<svg xmlns="http://www.w3.org/2000/svg" xmlns:xlink="http://www.w3.org/1999/xlink" xmlns:lucid="lucid" width="1502" height="964"><g transform="translate(-1019 -499)" lucid:page-tab-id="0_0"><path d="M1000 500h1500v1000H1000z" fill="#fff"/><path d="M1440 646a6 6 0 0 1 6-6h628a6 6 0 0 1 6 6v788a6 6 0 0 1-6 6h-628a6 6 0 0 1-6-6z" stroke="#282c33" stroke-width="6" fill="#fff"/><path d="M1600 806a6 6 0 0 1 6-6h148a6 6 0 0 1 6 6v468a6 6 0 0 1-6 6h-148a6 6 0 0 1-6-6zM1760 806a6 6 0 0 1 6-6h148a6 6 0 0 1 6 6v468a6 6 0 0 1-6 6h-148a6 6 0 0 1-6-6z" stroke="#282c33" stroke-width="6" fill="#c3f7c8"/><path d="M1600 526a6 6 0 0 1 6-6h308a6 6 0 0 1 6 6v100.12a6 6 0 0 1-6 6h-308a6 6 0 0 1-6-6z" stroke="#000" stroke-opacity="0" stroke-width="2" fill="#fff" fill-opacity="0"/><use xlink:href="#a" transform="matrix(1,0,0,1,1605,525) translate(31.80000000000004 67.66999999999999)"/><use xlink:href="#b" transform="matrix(1,0,0,1,1605,525) translate(186.92888888888888 67.66999999999999)"/><path d="M1680 724.06v45.97" stroke="#3a414a" stroke-width="6" fill="none"/><path d="M1682.97 724.13h-5.94v-3.07h5.94z" stroke="#3a414a" stroke-width=".05" fill="#3a414a"/><path d="M1680 787.3l-4.63-14.27h9.27z" stroke="#3a414a" stroke-width="6" fill="#3a414a"/><path d="M1840 1355.94v-45.97" stroke="#3a414a" stroke-width="6" fill="none"/><path d="M1842.97 1358.94h-5.94v-3.08h5.94z" stroke="#3a414a" stroke-width=".05" fill="#3a414a"/><path d="M1840 1292.7l4.63 14.27h-9.27z" stroke="#3a414a" stroke-width="6" fill="#3a414a"/><path d="M1560 666a6 6 0 0 1 6-6h228a6 6 0 0 1 6 6v49.06a6 6 0 0 1-6 6h-228a6 6 0 0 1-6-6z" stroke="#000" stroke-opacity="0" stroke-width="2" fill="#fff" fill-opacity="0"/><use xlink:href="#c" transform="matrix(1,0,0,1,1565,665) translate(46.32444444444447 45.16999999999999)"/><path d="M1720 1364.94a6 6 0 0 1 6-6h228a6 6 0 0 1 6 6V1414a6 6 0 0 1-6 6h-228a6 6 0 0 1-6-6z" stroke="#000" stroke-opacity="0" stroke-width="2" fill="#fff" fill-opacity="0"/><use xlink:href="#d" transform="matrix(1,0,0,1,1725,1363.9422222222222) translate(51.0177777777778 45.16999999999999)"/><path d="M1655.47 1275.1a3.1 3.1 0 0 0 2.53 4.9h44a3.1 3.1 0 0 0 2.53-4.9l-21.06-29.7a4.25 4.25 0 0 0-6.94 0zM1815.47 1275.1a3.1 3.1 0 0 0 2.53 4.9h44a3.1 3.1 0 0 0 2.53-4.9l-21.06-29.7a4.25 4.25 0 0 0-6.94 0z" stroke="#282c33" stroke-width="6" fill="#fff"/><path d="M1283 801h127.03" stroke="#3a414a" stroke-width="6" fill="none"/><path d="M1283.08 803.98H1280V798h3.08z" stroke="#3a414a" stroke-width=".05" fill="#3a414a"/><path d="M1427.3 801l-14.27 4.63v-9.26z" stroke="#3a414a" stroke-width="6" fill="#3a414a"/><path d="M1283 1280h127.03" stroke="#3a414a" stroke-width="6" fill="none"/><path d="M1283.08 1282.97H1280v-5.94h3.08z" stroke="#3a414a" stroke-width=".05" fill="#3a414a"/><path d="M1427.3 1280l-14.27 4.63v-9.27z" stroke="#3a414a" stroke-width="6" fill="#3a414a"/><path d="M2086 800h147.03" stroke="#3a414a" stroke-width="6" fill="none"/><path d="M2086.08 802.98H2083V797h3.08z" stroke="#3a414a" stroke-width=".05" fill="#3a414a"/><path d="M2250.3 800l-14.27 4.63v-9.26z" stroke="#3a414a" stroke-width="6" fill="#3a414a"/><path d="M2086 1280h127.03" stroke="#3a414a" stroke-width="6" fill="none"/><path d="M2086.08 1282.97H2083v-5.94h3.08z" stroke="#3a414a" stroke-width=".05" fill="#3a414a"/><path d="M2230.3 1280l-14.27 4.63v-9.27z" stroke="#3a414a" stroke-width="6" fill="#3a414a"/><path d="M2237 1040h-127.03" stroke="#3a414a" stroke-width="6" fill="none"/><path d="M2240 1042.97h-3.08v-5.94h3.08z" stroke="#3a414a" stroke-width=".05" fill="#3a414a"/><path d="M2092.7 1040l14.27-4.63v9.27z" stroke="#3a414a" stroke-width="6" fill="#3a414a"/><path d="M1414 1040h-127.03M1413.92 1040h3.08" stroke="#3a414a" stroke-width="6" fill="none"/><path d="M1269.7 1040l14.27-4.63v9.27z" stroke="#3a414a" stroke-width="6" fill="#3a414a"/><path d="M1040 777a6 6 0 0 1 6-6h228a6 6 0 0 1 6 6v48a6 6 0 0 1-6 6h-228a6 6 0 0 1-6-6z" stroke="#000" stroke-opacity="0" stroke-width="2" fill="#fff" fill-opacity="0"/><use xlink:href="#e" transform="matrix(1,0,0,1,1045,775.999999873094) translate(63.332222222222235 37.184999999999995)"/><path d="M1040 1016a6 6 0 0 1 6-6h208a6 6 0 0 1 6 6v48a6 6 0 0 1-6 6h-208a6 6 0 0 1-6-6z" stroke="#000" stroke-opacity="0" stroke-width="2" fill="#fff" fill-opacity="0"/><use xlink:href="#f" transform="matrix(1,0,0,1,1045,1015) translate(53.08666666666667 37.184999999999995)"/><path d="M1040 1256a6 6 0 0 1 6-6h228a6 6 0 0 1 6 6v48a6 6 0 0 1-6 6h-228a6 6 0 0 1-6-6z" stroke="#000" stroke-opacity="0" stroke-width="2" fill="#fff" fill-opacity="0"/><use xlink:href="#g" transform="matrix(1,0,0,1,1045,1255) translate(53.75555555555557 37.184999999999995)"/><path d="M2240 1256a6 6 0 0 1 6-6h228a6 6 0 0 1 6 6v48a6 6 0 0 1-6 6h-228a6 6 0 0 1-6-6z" stroke="#000" stroke-opacity="0" stroke-width="2" fill="#fff" fill-opacity="0"/><use xlink:href="#h" transform="matrix(1,0,0,1,2245,1255) translate(41.53555555555556 37.184999999999995)"/><path d="M2240 1016a6 6 0 0 1 6-6h228a6 6 0 0 1 6 6v48a6 6 0 0 1-6 6h-228a6 6 0 0 1-6-6z" stroke="#000" stroke-opacity="0" stroke-width="2" fill="#fff" fill-opacity="0"/><use xlink:href="#i" transform="matrix(1,0,0,1,2245,1015) translate(50.23111111111112 37.184999999999995)"/><path d="M2260 776a6 6 0 0 1 6-6h228a6 6 0 0 1 6 6v48a6 6 0 0 1-6 6h-228a6 6 0 0 1-6-6z" stroke="#000" stroke-opacity="0" stroke-width="2" fill="#fff" fill-opacity="0"/><use xlink:href="#j" transform="matrix(1,0,0,1,2265,775) translate(51.11222222222223 37.184999999999995)"/><defs><path fill="#3a414a" d="M489-785c107 0 154 111 116 214-29 79-213 255-300 345-26 27-38 39-16 63 95 2 204-5 287 7 22 4 49 51 49 77 0 63-95 31-141 31H320C244-52 124 2 73 14 50 19-1-26 3-53c6-51 111-140 150-182 94-98 182-189 275-285 55-57 80-102 80-129 1-31-28-24-56-21-120 11-265 81-296 145-13 26-15 67-56 65s-51-21-51-66c0-144 158-200 287-235 61-16 112-24 153-24" id="k"/><path fill="#3a414a" d="M44-228v-78h244v78H44" id="l"/><path fill="#3a414a" d="M19-91c0-222 71-428 58-668-3-62 121-44 170-33 118 27 229 50 293 128 44 53 63 97 63 217 0 165-189 328-383 400-36 13-62 45-108 45-66 0-93-23-93-89zm185-582c-30 151-43 322-58 489 5 39 27 28 60 14 129-54 276-147 276-304 0-155-106-203-278-199" id="m"/><path fill="#3a414a" d="M330-158c82-22 193-18 286-31 38 11 58 81 24 113-25 24-71 25-116 25-135 0-238 34-358 47C61 7 4-52 15-159c12-113 37-213 32-340-2-59 2-121-2-178-2-44 35-62 81-61 104-31 222-52 345-64 68-7 103 34 111 94 2 12-3 22-9 31-33 14-62 15-103 16-100 2-196 10-270 40h-8c-18 23-11 79-15 106-1 13 5 22 16 25 82-10 176-25 264-12 44 7 78 26 71 72-7 49-76 30-125 30-78 0-138 22-210 29-24 1-35 28-36 52-2 41-10 83-8 126-19 84 122 51 181 35" id="n"/><path fill="#3a414a" d="M23-677c-68-88 127-122 212-122 113 0 253 24 291 82 92 144-48 310-153 365-52 27-102 48-161 69-56 20-53 15-58 80-4 49-8 103-13 153-3 31-19 46-43 46-44 0-65-28-63-81 5-162 8-330 16-486 3-53-4-75-28-106zm415 73c0-44-44-66-132-66-78 0-124 8-135 26-10 16-14 89-14 218 0 44 22 39 57 25 83-34 224-115 224-203" id="o"/><path fill="#3a414a" d="M593-790c58 0 99 54 77 117-5 13-15 16-35 14-70-7-152-3-229 7-31 20-24 81-26 127-4 138-16 277-16 422 0 32 4 70-21 83-26 36-88 7-103-20 1-182 10-346 21-521 2-27 11-81-18-84-73-7-138 11-206 3-20-18-39-18-32-51-3-78 74-91 145-91 129 0 251 6 369-8 25-3 49 2 74 2" id="p"/><path fill="#3a414a" d="M107-780c100 15 51 176 51 272 0 29 23 25 56 24 33-11 175 4 171-42 9-67 4-153 14-224 12-14 39-57 70-50 51 0 74 34 69 103L490-47c-6 28-25 57-57 56-118-5-54-182-54-299 0-34 3-75-15-85-65 6-127 12-191 19-52 29-23 162-29 239C135-7 87 19 22-30 10-48 7-67 13-88c-16-100 8-215 8-322 0-127-9-364 86-370" id="q"/><g id="a"><use transform="matrix(0.03555555555555554,0,0,0.03555555555555554,0,0)" xlink:href="#k"/><use transform="matrix(0.03555555555555554,0,0,0.03555555555555554,22.791111111111103,0)" xlink:href="#l"/><use transform="matrix(0.03555555555555554,0,0,0.03555555555555554,34.55999999999999,0)" xlink:href="#m"/><use transform="matrix(0.03555555555555554,0,0,0.03555555555555554,56.03555555555553,0)" xlink:href="#n"/><use transform="matrix(0.03555555555555554,0,0,0.03555555555555554,79.71555555555553,0)" xlink:href="#o"/><use transform="matrix(0.03555555555555554,0,0,0.03555555555555554,99.76888888888885,0)" xlink:href="#p"/><use transform="matrix(0.03555555555555554,0,0,0.03555555555555554,125.33333333333329,0)" xlink:href="#q"/></g><path fill="#3a414a" d="M39-49c-7-93 9-204-6-289-18-30-12-41 1-77 37-27 19-97 25-162 2-23-27-37-49-40-11-18-14-56 0-71 17-39 273-99 376-109 72-7 163-32 165 45 1 65-62 51-115 66-63 18-176 24-229 55-41 23-20 107-25 176 83-2 166-25 259-33 74-6 91 70 44 97-80 23-228 35-304 57-18 6-27 18-27 35-9 45 6 274-42 299-35 2-92-5-73-49" id="r"/><path fill="#3a414a" d="M292-638c-67 2-113 14-176 21-81 9-112-68-58-103 132-46 304-52 470-66l65 5c50 52 43 111-50 111-45 0-75 15-112 18-18 16-19 83-24 152-7 108-21 214-33 322-5 46 36 20 67 20 54 0 81-10 139-16 43 25 50 62 23 110-151 29-311 50-490 79C58 24-8 22 3-44c14-83 161-45 224-90 22-16 24-69 29-107 17-126 33-258 36-397" id="s"/><path fill="#3a414a" d="M44-443c79-191 208-366 448-366 141 0 239 118 267 253 46 222-61 413-213 490-83 42-221 78-338 30-55-23-106-43-129-82-26-14-80-140-57-202 2-41 8-89 22-123zm103 115c1 136 75 191 208 191 130 0 180-50 241-135 38-53 55-111 55-169 0-109-73-236-179-227-143 12-260 151-311 271-9 24-14 47-14 69" id="t"/><g id="b"><use transform="matrix(0.03555555555555554,0,0,0.03555555555555554,0,0)" xlink:href="#r"/><use transform="matrix(0.03555555555555554,0,0,0.03555555555555554,19.662222222222216,0)" xlink:href="#s"/><use transform="matrix(0.03555555555555554,0,0,0.03555555555555554,43.05777777777776,0)" xlink:href="#r"/><use transform="matrix(0.03555555555555554,0,0,0.03555555555555554,62.71999999999997,0)" xlink:href="#t"/></g><path fill="#3a414a" d="M722-498c18-70 6-160 6-241 0-38 16-57 49-57 55 0 82 64 82 193 1 204-63 347-126 491-54 125-124 110-196 9-30-42-54-91-82-146-27-53-43-79-49-79-8-17-88 136-114 182C269-106 193 9 170-1 96-15 86-47 66-129 33-267 17-480 18-657c0-70 18-105 54-105 39 0 66 36 68 87 4 137-4 277 12 406 12 100 67-12 84-47 47-96 102-197 139-285 18-41 78-38 96-4 52 97 51 251 110 344 50 78 71 31 104-70 17-53 22-108 37-167" id="u"/><path fill="#3a414a" d="M608-642l-20 77c-36 56-69 94-113 138-49 48-58 40-29 81 33 46 69 89 97 147 44 89 52 141 40 147-3 38-20 49-63 52-68 5-97-106-129-160-40-68-56-162-144-164-53-1-27 78-45 121-7 56-12 123-28 170C157-4 113 24 66-1 46-11 40-39 49-87c19-111 19-139 19-313 0-144 1-187-40-242-27-37-13-94 26-108 103-36 250-59 389-41 63 8 182 85 165 149zm-140 11c-10-39-42-58-96-57-53 12-154 21-179 43-5 9-8 31-8 65 0 151 19 135 127 94 94-36 148-79 156-145" id="v"/><path fill="#3a414a" d="M241-1c89-9 265-42 213 87-19 47-79 30-136 38-61 8-140 8-212 8-58 0-95-35-94-93-2-9 22-38 33-35 70-1 130 2 196-5" id="w"/><g id="c"><use transform="matrix(0.03555555555555554,0,0,0.03555555555555554,0,0)" xlink:href="#u"/><use transform="matrix(0.03555555555555554,0,0,0.03555555555555554,30.86222222222221,0)" xlink:href="#v"/><use transform="matrix(0.03555555555555554,0,0,0.03555555555555554,52.83555555555554,0)" xlink:href="#w"/><use transform="matrix(0.03555555555555554,0,0,0.03555555555555554,69.75999999999998,0)" xlink:href="#o"/><use transform="matrix(0.03555555555555554,0,0,0.03555555555555554,89.8133333333333,0)" xlink:href="#p"/><use transform="matrix(0.03555555555555554,0,0,0.03555555555555554,115.37777777777774,0)" xlink:href="#v"/></g><path fill="#3a414a" d="M19-91c0-222 71-428 58-668-3-62 121-44 170-33 118 27 229 50 293 128 44 53 63 97 63 217 0 165-189 328-383 400-36 13-62 45-108 45-66 0-93-23-93-89zm185-582c-30 151-43 322-58 489 5 39 27 28 60 14 129-54 276-147 276-304 0-155-106-203-278-199" id="x"/><g id="d"><use transform="matrix(0.03555555555555554,0,0,0.03555555555555554,0,0)" xlink:href="#v"/><use transform="matrix(0.03555555555555554,0,0,0.03555555555555554,21.973333333333326,0)" xlink:href="#x"/><use transform="matrix(0.03555555555555554,0,0,0.03555555555555554,43.448888888888874,0)" xlink:href="#w"/><use transform="matrix(0.03555555555555554,0,0,0.03555555555555554,60.373333333333306,0)" xlink:href="#o"/><use transform="matrix(0.03555555555555554,0,0,0.03555555555555554,80.42666666666663,0)" xlink:href="#p"/><use transform="matrix(0.03555555555555554,0,0,0.03555555555555554,105.99111111111107,0)" xlink:href="#v"/></g><path fill="#3a414a" d="M106-737c41-53 131 12 108 86-42 139-71 285-71 455 0 88 72 66 143 48 49-12 128-35 183-63 38-19 36-69 44-119 17-114 31-247 31-354 0-57 26-85 79-85 37 0 55 27 55 81 0 190-34 397-59 573 4 31 20 93-13 105-8 10-30 7-65-8-16-20-33-38-51-54C397-48 305 0 205 0 79 0 5-43 13-176c13-196 50-391 93-561" id="y"/><path fill="#3a414a" d="M109-735c-25-57-110-11-99 37 30 130 91 291 122 410 18 69 44 132 72 190 44 90 75 116 148 73 102-105 149-290 208-441 32-82 48-168 48-261 0-51-15-77-46-77-38 0-59 34-73 100-35 160-89 312-149 454-40 95-58 66-91-37-28-90-54-179-79-263-24-79-42-141-61-185" id="z"/><path fill="#3a414a" d="M21-302C-7-136 9 24 196-12c147-28 263-93 386-142 57-23 26-120-26-120-111 32-240 115-378 126-13 1-22-26-25-45 30-174 59-350 88-524 10-62-86-124-120-61-39 73-49 196-69 277-19 77-22 145-31 199" id="A"/><g id="e"><use transform="matrix(0.028888888888888884,0,0,0.028888888888888884,0,0)" xlink:href="#y"/><use transform="matrix(0.028888888888888884,0,0,0.028888888888888884,20.308888888888884,0)" xlink:href="#o"/><use transform="matrix(0.028888888888888884,0,0,0.028888888888888884,36.60222222222221,0)" xlink:href="#w"/><use transform="matrix(0.028888888888888884,0,0,0.028888888888888884,50.35333333333332,0)" xlink:href="#z"/><use transform="matrix(0.028888888888888884,0,0,0.028888888888888884,68.11999999999998,0)" xlink:href="#A"/><use transform="matrix(0.028888888888888884,0,0,0.028888888888888884,85.88666666666664,0)" xlink:href="#m"/></g><path fill="#3a414a" d="M608-642l-20 77c-36 56-69 94-113 138-49 48-58 40-29 81 33 46 69 89 97 147 44 89 52 141 40 147-3 38-20 49-63 52-68 5-97-106-129-160-40-68-56-162-144-164-53-1-27 78-45 121-7 56-12 123-28 170C157-4 113 24 66-1 46-11 40-39 49-87c19-111 19-139 19-313 0-144 1-187-40-242-27-37-13-94 26-108 103-36 250-59 389-41 63 8 182 85 165 149zm-140 11c-10-39-42-58-96-57-53 12-154 21-179 43-5 9-8 31-8 65 0 151 19 135 127 94 94-36 148-79 156-145" id="B"/><path fill="#3a414a" d="M192-85c-3 48 46 100 89 72 52-75 73-232 102-321 46-139 146-233 278-374 22-37 2-105-46-93-81 20-199 174-252 246-53 73-46 65-110 7-63-57-96-136-132-220-11-25-31-37-54-37-36-1-56 32-56 68 32 142 118 264 224 332 15 16 24 24 21 38" id="C"/><g id="f"><use transform="matrix(0.028888888888888884,0,0,0.028888888888888884,0,0)" xlink:href="#y"/><use transform="matrix(0.028888888888888884,0,0,0.028888888888888884,20.308888888888884,0)" xlink:href="#o"/><use transform="matrix(0.028888888888888884,0,0,0.028888888888888884,36.60222222222221,0)" xlink:href="#w"/><use transform="matrix(0.028888888888888884,0,0,0.028888888888888884,50.35333333333332,0)" xlink:href="#B"/><use transform="matrix(0.028888888888888884,0,0,0.028888888888888884,68.20666666666665,0)" xlink:href="#x"/><use transform="matrix(0.028888888888888884,0,0,0.028888888888888884,84.38444444444443,0)" xlink:href="#C"/></g><path fill="#3a414a" d="M103-24C79 10-2-14 8-59c42-186 129-353 193-524 23-62 63-135 99-197 39-38 106-10 109 47 27 100 51 209 81 307 8 25 72 24 72 63 0 44-26 46-37 75 12 83 46 156 55 243 7 63-106 47-114 11-13-58-36-170-57-231-3-4-7-8-9-14-69 4-134 40-198 52-53 21-53 108-81 160-4 16-8 29-18 43zm215-551c-16 18-92 195-73 208 46 2 100-12 123-31-5-30-32-162-38-171-2-3-6-5-12-6" id="D"/><g id="g"><use transform="matrix(0.028888888888888884,0,0,0.028888888888888884,0,0)" xlink:href="#y"/><use transform="matrix(0.028888888888888884,0,0,0.028888888888888884,20.308888888888884,0)" xlink:href="#o"/><use transform="matrix(0.028888888888888884,0,0,0.028888888888888884,36.60222222222221,0)" xlink:href="#w"/><use transform="matrix(0.028888888888888884,0,0,0.028888888888888884,50.35333333333332,0)" xlink:href="#m"/><use transform="matrix(0.028888888888888884,0,0,0.028888888888888884,67.8022222222222,0)" xlink:href="#D"/><use transform="matrix(0.028888888888888884,0,0,0.028888888888888884,84.75999999999998,0)" xlink:href="#p"/><use transform="matrix(0.028888888888888884,0,0,0.028888888888888884,105.53111111111109,0)" xlink:href="#D"/></g><path fill="#3a414a" d="M24-128c0-158-18-313-5-472 6-74-11-192 62-191 78 1 88 68 113 130 59 143 102 191 174 297 50 73 81 109 92 109 8 0 12-3 13-9 24-163 3-322-12-477-6-63 62-76 101-37 65 64 45 212 54 340 10 141 7 304-15 413-8 15-20 23-37 23-76 0-203-132-244-200-33-54-79-109-116-169l4 4c-9-20-41-55-54-51-14 102-5 244 6 344 3 30-15 69-41 68-9 0-28-1-56-3-44-28-39-45-39-119" id="E"/><g id="h"><use transform="matrix(0.028888888888888884,0,0,0.028888888888888884,0,0)" xlink:href="#x"/><use transform="matrix(0.028888888888888884,0,0,0.028888888888888884,17.448888888888884,0)" xlink:href="#u"/><use transform="matrix(0.028888888888888884,0,0,0.028888888888888884,42.52444444444444,0)" xlink:href="#E"/><use transform="matrix(0.028888888888888884,0,0,0.028888888888888884,61.042222222222215,0)" xlink:href="#w"/><use transform="matrix(0.028888888888888884,0,0,0.028888888888888884,74.79333333333332,0)" xlink:href="#m"/><use transform="matrix(0.028888888888888884,0,0,0.028888888888888884,92.24222222222221,0)" xlink:href="#D"/><use transform="matrix(0.028888888888888884,0,0,0.028888888888888884,109.19999999999999,0)" xlink:href="#p"/><use transform="matrix(0.028888888888888884,0,0,0.028888888888888884,129.9711111111111,0)" xlink:href="#D"/></g><path fill="#3a414a" d="M192-85c-3 48 46 100 89 72 52-75 73-232 102-321 46-139 146-233 278-374 22-37 2-105-46-93-81 20-199 174-252 246-53 73-46 65-110 7-63-57-96-136-132-220-11-25-31-37-54-37-36-1-56 32-56 68 32 142 118 264 224 332 15 16 24 24 21 38" id="F"/><g id="i"><use transform="matrix(0.028888888888888884,0,0,0.028888888888888884,0,0)" xlink:href="#x"/><use transform="matrix(0.028888888888888884,0,0,0.028888888888888884,17.448888888888884,0)" xlink:href="#u"/><use transform="matrix(0.028888888888888884,0,0,0.028888888888888884,42.52444444444444,0)" xlink:href="#E"/><use transform="matrix(0.028888888888888884,0,0,0.028888888888888884,61.042222222222215,0)" xlink:href="#w"/><use transform="matrix(0.028888888888888884,0,0,0.028888888888888884,74.79333333333332,0)" xlink:href="#v"/><use transform="matrix(0.028888888888888884,0,0,0.028888888888888884,92.64666666666665,0)" xlink:href="#m"/><use transform="matrix(0.028888888888888884,0,0,0.028888888888888884,110.09555555555553,0)" xlink:href="#F"/></g><g id="j"><use transform="matrix(0.028888888888888884,0,0,0.028888888888888884,0,0)" xlink:href="#x"/><use transform="matrix(0.028888888888888884,0,0,0.028888888888888884,17.448888888888884,0)" xlink:href="#u"/><use transform="matrix(0.028888888888888884,0,0,0.028888888888888884,42.52444444444444,0)" xlink:href="#E"/><use transform="matrix(0.028888888888888884,0,0,0.028888888888888884,61.042222222222215,0)" xlink:href="#w"/><use transform="matrix(0.028888888888888884,0,0,0.028888888888888884,74.79333333333332,0)" xlink:href="#z"/><use transform="matrix(0.028888888888888884,0,0,0.028888888888888884,92.55999999999999,0)" xlink:href="#A"/><use transform="matrix(0.028888888888888884,0,0,0.028888888888888884,110.32666666666665,0)" xlink:href="#m"/></g></defs></g></svg>