<svg xmlns="http://www.w3.org/2000/svg" xmlns:xlink="http://www.w3.org/1999/xlink" xmlns:lucid="lucid" width="2490.33" height="2449.17"><g transform="translate(-698.5 181.5)" lucid:page-tab-id="0_0"><path d="M500-500h3000v3000H500z" fill="#f2f3f5"/><path d="M2158 562a6 6 0 0 1 6-6h301.33a6 6 0 0 1 6 6v390.67a6 6 0 0 1-6 6H2164a6 6 0 0 1-6-6z" stroke="#54c45e" stroke-width="10" fill="#c3f7c8"/><use xlink:href="#a" transform="matrix(1,0,0,1,2173.666666666667,576.1333333333334) translate(104.63333333333333 214.72500000000002)"/><path d="M2293.47 953.36a3.6 3.6 0 0 0 3.2 5.3h36a3.6 3.6 0 0 0 3.2-5.3l-18.4-34.72a3.18 3.18 0 0 0-5.6 0z" stroke="#54c45e" stroke-width="10" fill="#fff"/><path d="M2158 1846a6 6 0 0 1 6-6h301.33a6 6 0 0 1 6 6v390.67a6 6 0 0 1-6 6H2164a6 6 0 0 1-6-6z" stroke="#54c45e" stroke-width="10" fill="#c3f7c8"/><use xlink:href="#a" transform="matrix(1,0,0,1,2173.666666666667,1860.1333333333334) translate(104.63333333333333 214.72500000000002)"/><path d="M2293.47 2237.36a3.6 3.6 0 0 0 3.2 5.3h36a3.6 3.6 0 0 0 3.2-5.3l-18.4-34.72a3.18 3.18 0 0 0-5.6 0z" stroke="#54c45e" stroke-width="10" fill="#fff"/><path d="M1160 320h160v402.67h-160z" fill="none"/><path d="M1192 320v402.67l96-80.54v-241.6z" stroke="#3a414a" stroke-width="6" fill="#fc9432"/><path d="M1288 521.33h32M1240 682.4v40.27M1192 430.73h-32M1192 611.93h-32" stroke="#3a414a" stroke-width="6" fill="none"/><path d="M1720 556h160v402.67h-160z" fill="none"/><path d="M1752 556v402.67l96-80.54v-241.6z" stroke="#3a414a" stroke-width="6" fill="#fc9432"/><path d="M1848 757.33h32M1800 918.4v40.27M1752 666.73h-32M1752 847.93h-32" stroke="#3a414a" stroke-width="6" fill="none"/><path d="M1720 2242.67h160V1840h-160z" fill="none"/><path d="M1752 2242.67V1840l96 80.53v241.6z" stroke="#3a414a" stroke-width="6" fill="#fc9432"/><path d="M1848 2041.33h32M1800 1880.27V1840M1752 2131.93h-32M1752 1950.73h-32M1323 521.33h173a24 24 0 0 1 24 24v97.4a24 24 0 0 0 24 24h173" stroke="#3a414a" stroke-width="6" fill="none"/><path d="M1323.08 524.3H1320v-5.94h3.08zM1720 669.7h-3.08v-5.94h3.08z" stroke="#3a414a" stroke-width=".05" fill="#3a414a"/><path d="M1883 757.33h267" stroke="#3a414a" stroke-width="6" fill="none"/><path d="M1883.08 760.3H1880v-5.94h3.08zM2153 760.3h-3.08v-5.94h3.08z" stroke="#3a414a" stroke-width=".05" fill="#3a414a"/><path d="M1157 430.73h-53a24 24 0 0 1-24-24V184a24 24 0 0 1 24-24h1512a24 24 0 0 1 24 24v569" stroke="#3a414a" stroke-width="6" fill="none"/><path d="M1160 433.7h-3.08v-5.94h3.08z" stroke="#3a414a" stroke-width=".05" fill="#3a414a"/><path d="M2640 752.92V756M1800 961.67V1837" stroke="#3a414a" stroke-width="6" fill="none"/><path d="M1802.97 961.74h-5.94v-3.07h5.94zM1802.97 1840h-5.94v-3.08h5.94z" stroke="#3a414a" stroke-width=".05" fill="#3a414a"/><path d="M1883 2041.33h267" stroke="#3a414a" stroke-width="6" fill="none"/><path d="M1883.08 2044.3H1880v-5.94h3.08zM2153 2044.3h-3.08v-5.94h3.08z" stroke="#3a414a" stroke-width=".05" fill="#3a414a"/><path d="M2240 1520v-160h-48v160zM2048 1520v-160h-48v160z" fill="none"/><path d="M2168 1440h72zm-120 0h-48zm120 80l-96-80 96-80zm-120-80c0-6.4 4.8-12.8 12-12.8s12 6.4 12 12.8-4.8 12.8-12 12.8-12-6.4-12-12.8" stroke="#3a414a" stroke-width="6" fill="#fff"/><path d="M1997 1440H961.67" stroke="#3a414a" stroke-width="6" fill="none"/><path d="M2000 1442.97h-3.08v-5.94h3.08zM961.74 1442.97h-3.07v-5.94h3.07z" stroke="#3a414a" stroke-width=".05" fill="#3a414a"/><path d="M2243 1440h373a24 24 0 0 0 24-24v-133.08a2.3 2.3 0 0 1 2.3-2.3 2.3 2.3 0 0 0 2.32-2.32v-154.08" stroke="#3a414a" stroke-width="6" fill="none"/><path d="M2243.08 1442.97H2240v-5.94h3.08z" stroke="#3a414a" stroke-width=".05" fill="#3a414a"/><path d="M2644.62 1124.3v-3.08M1240 725.67v371.55a24 24 0 0 0 24 24h1613" stroke="#3a414a" stroke-width="6" fill="none"/><path d="M1242.97 725.74h-5.94v-3.07h5.94zM2880 1124.2h-3.08v-5.96h3.08z" stroke="#3a414a" stroke-width=".05" fill="#3a414a"/><path d="M2479.34 2041.33l383.2-.1" stroke="#3a414a" stroke-width="6" stroke-linejoin="round" fill="none"/><path d="M2479.42 2044.3h-3.1v-5.94h3.1z" stroke="#3a414a" stroke-width=".05" fill="#3a414a"/><path d="M2874.1 2041.22l-12.9 7.64v-15.27z" stroke="#3a414a" stroke-width="6" fill="#3a414a"/><path d="M2479.34 757.33h383.2" stroke="#3a414a" stroke-width="6" stroke-linejoin="round" fill="none"/><path d="M2479.42 760.3h-3.1v-5.94h3.1z" stroke="#3a414a" stroke-width=".05" fill="#3a414a"/><path d="M2874.1 757.33l-12.9 7.64V749.7z" stroke="#3a414a" stroke-width="6" fill="#3a414a"/><path d="M1717 847.93H961.67" stroke="#3a414a" stroke-width="6" fill="none"/><path d="M1720 850.9h-3.08v-5.94h3.08zM961.74 850.9h-3.07v-5.94h3.07z" stroke="#3a414a" stroke-width=".05" fill="#3a414a"/><path d="M1157 611.93H963" stroke="#3a414a" stroke-width="6" fill="none"/><path d="M1160 614.9h-3.08v-5.94h3.08zM963.08 614.9H960v-5.94h3.08z" stroke="#3a414a" stroke-width=".05" fill="#3a414a"/><path d="M1717 2131.93H961.67" stroke="#3a414a" stroke-width="6" fill="none"/><path d="M1720 2134.9h-3.08v-5.94h3.08zM961.74 2134.9h-3.07v-5.94h3.07z" stroke="#3a414a" stroke-width=".05" fill="#3a414a"/><path d="M1717 1950.73h-53a24 24 0 0 1-24-24V1704a24 24 0 0 1 24-24h952a24 24 0 0 1 24 24v334.3" stroke="#3a414a" stroke-width="6" fill="none"/><path d="M1720 1953.7h-3.08v-5.94h3.08z" stroke="#3a414a" stroke-width=".05" fill="#3a414a"/><path d="M2640 2038.2v3.1" stroke="#3a414a" stroke-width="6" fill="none"/><path d="M800 576.7a6 6 0 0 1 6-6h148a6 6 0 0 1 6 6v70.45a6 6 0 0 1-6 6H806a6 6 0 0 1-6-6z" stroke="#000" stroke-opacity="0" stroke-width="3" fill="#fff" fill-opacity="0"/><use xlink:href="#b" transform="matrix(1,0,0,1,805,575.7142222222219) translate(53.107111111111124 61.75524999999996)"/><path d="M720 812.7a6 6 0 0 1 6-6h226.67a6 6 0 0 1 6 6v70.45a6 6 0 0 1-6 6H726a6 6 0 0 1-6-6z" stroke="#000" stroke-opacity="0" stroke-width="3" fill="#fff" fill-opacity="0"/><use xlink:href="#c" transform="matrix(1,0,0,1,725,811.7142222222224) translate(24.280111111111168 61.75524999999996)"/><path d="M720 1404.78a6 6 0 0 1 6-6h226.67a6 6 0 0 1 6 6v70.44a6 6 0 0 1-6 6H726a6 6 0 0 1-6-6z" stroke="#000" stroke-opacity="0" stroke-width="3" fill="#fff" fill-opacity="0"/><use xlink:href="#d" transform="matrix(1,0,0,1,725,1403.780888888889) translate(22.74155555555562 61.75524999999996)"/><path d="M720 2096.7a6 6 0 0 1 6-6h226.67a6 6 0 0 1 6 6v70.45a6 6 0 0 1-6 6H726a6 6 0 0 1-6-6z" stroke="#000" stroke-opacity="0" stroke-width="3" fill="#fff" fill-opacity="0"/><use xlink:href="#e" transform="matrix(1,0,0,1,725,2095.714222222223) translate(7.557777777777844 61.75524999999996)"/><path d="M2880 2006a6 6 0 0 1 6-6h275.33a6 6 0 0 1 6 6v70.44a6 6 0 0 1-6 6H2886a6 6 0 0 1-6-6z" stroke="#000" stroke-opacity="0" stroke-width="3" fill="#fff" fill-opacity="0"/><use xlink:href="#f" transform="matrix(1,0,0,1,2885,2005) translate(10.719777777777864 61.75524999999996)"/><path d="M2880 1086a6 6 0 0 1 6-6h275.33a6 6 0 0 1 6 6v70.44a6 6 0 0 1-6 6H2886a6 6 0 0 1-6-6z" stroke="#000" stroke-opacity="0" stroke-width="3" fill="#fff" fill-opacity="0"/><use xlink:href="#g" transform="matrix(1,0,0,1,2885,1085) translate(25.90355555555564 61.75524999999996)"/><path d="M2880 722.1a6 6 0 0 1 6-6h275.33a6 6 0 0 1 6 6v70.45a6 6 0 0 1-6 6H2886a6 6 0 0 1-6-6z" stroke="#000" stroke-opacity="0" stroke-width="3" fill="#fff" fill-opacity="0"/><use xlink:href="#h" transform="matrix(1,0,0,1,2885,721.1142222222222) translate(27.44211111111119 61.75524999999996)"/><path d="M1320-154a6 6 0 0 1 6-6h1228a6 6 0 0 1 6 6V50.3a6 6 0 0 1-6 6H1326a6 6 0 0 1-6-6z" stroke="#000" stroke-opacity="0" stroke-width="3" fill="#fff" fill-opacity="0"/><use xlink:href="#i" transform="matrix(1,0,0,1,1325,-155) translate(103.84588888888948 140.0439999999999)"/><use xlink:href="#j" transform="matrix(1,0,0,1,1325,-155) translate(298.2574444444448 140.0439999999999)"/><use xlink:href="#k" transform="matrix(1,0,0,1,1325,-155) translate(846.369222222222 140.0439999999999)"/><defs><path d="M39-49c-7-93 9-204-6-289-18-30-12-41 1-77 37-27 19-97 25-162 2-23-27-37-49-40-11-18-14-56 0-71 17-39 273-99 376-109 72-7 163-32 165 45 1 65-62 51-115 66-63 18-176 24-229 55-41 23-20 107-25 176 83-2 166-25 259-33 74-6 91 70 44 97-80 23-228 35-304 57-18 6-27 18-27 35-9 45 6 274-42 299-35 2-92-5-73-49" id="l"/><g id="a"><use transform="matrix(0.06666666666666667,0,0,0.06666666666666667,0,0)" xlink:href="#l"/><use transform="matrix(0.06666666666666667,0,0,0.06666666666666667,36.86666666666667,0)" xlink:href="#l"/></g><path d="M760-689c54 66 114 194 89 305-22 96-60 182-130 233C644-96 571-43 466-22 362-1 196 2 130-53 83-92 15-170 14-243c-3-132 48-208 100-291 87-138 222-257 433-251 99 3 168 41 213 96zM147-248c0 125 211 119 317 79 118-45 205-117 253-230 30-71-7-171-46-201-79-58-137-52-237-20-103 33-177 98-233 203-36 66-54 122-54 169" id="m"/><use transform="matrix(0.05044444444444441,0,0,0.05044444444444441,0,0)" xlink:href="#m" id="b"/><path d="M106-737c41-53 131 12 108 86-42 139-71 285-71 455 0 88 72 66 143 48 49-12 128-35 183-63 38-19 36-69 44-119 17-114 31-247 31-354 0-57 26-85 79-85 37 0 55 27 55 81 0 190-34 397-59 573 4 31 20 93-13 105-8 10-30 7-65-8-16-20-33-38-51-54C397-48 305 0 205 0 79 0 5-43 13-176c13-196 50-391 93-561" id="n"/><path d="M23-677c-68-88 127-122 212-122 113 0 253 24 291 82 92 144-48 310-153 365-52 27-102 48-161 69-56 20-53 15-58 80-4 49-8 103-13 153-3 31-19 46-43 46-44 0-65-28-63-81 5-162 8-330 16-486 3-53-4-75-28-106zm415 73c0-44-44-66-132-66-78 0-124 8-135 26-10 16-14 89-14 218 0 44 22 39 57 25 83-34 224-115 224-203" id="o"/><path d="M241-1c89-9 265-42 213 87-19 47-79 30-136 38-61 8-140 8-212 8-58 0-95-35-94-93-2-9 22-38 33-35 70-1 130 2 196-5" id="p"/><path d="M109-735c-25-57-110-11-99 37 30 130 91 291 122 410 18 69 44 132 72 190 44 90 75 116 148 73 102-105 149-290 208-441 32-82 48-168 48-261 0-51-15-77-46-77-38 0-59 34-73 100-35 160-89 312-149 454-40 95-58 66-91-37-28-90-54-179-79-263-24-79-42-141-61-185" id="q"/><path d="M21-302C-7-136 9 24 196-12c147-28 263-93 386-142 57-23 26-120-26-120-111 32-240 115-378 126-13 1-22-26-25-45 30-174 59-350 88-524 10-62-86-124-120-61-39 73-49 196-69 277-19 77-22 145-31 199" id="r"/><path d="M19-91c0-222 71-428 58-668-3-62 121-44 170-33 118 27 229 50 293 128 44 53 63 97 63 217 0 165-189 328-383 400-36 13-62 45-108 45-66 0-93-23-93-89zm185-582c-30 151-43 322-58 489 5 39 27 28 60 14 129-54 276-147 276-304 0-155-106-203-278-199" id="s"/><g id="c"><use transform="matrix(0.05044444444444441,0,0,0.05044444444444441,0,0)" xlink:href="#n"/><use transform="matrix(0.05044444444444441,0,0,0.05044444444444441,35.46244444444442,0)" xlink:href="#o"/><use transform="matrix(0.05044444444444441,0,0,0.05044444444444441,63.913111111111064,0)" xlink:href="#p"/><use transform="matrix(0.05044444444444441,0,0,0.05044444444444441,87.92466666666661,0)" xlink:href="#q"/><use transform="matrix(0.05044444444444441,0,0,0.05044444444444441,118.94799999999992,0)" xlink:href="#r"/><use transform="matrix(0.05044444444444441,0,0,0.05044444444444441,149.97133333333323,0)" xlink:href="#s"/></g><path d="M608-642l-20 77c-36 56-69 94-113 138-49 48-58 40-29 81 33 46 69 89 97 147 44 89 52 141 40 147-3 38-20 49-63 52-68 5-97-106-129-160-40-68-56-162-144-164-53-1-27 78-45 121-7 56-12 123-28 170C157-4 113 24 66-1 46-11 40-39 49-87c19-111 19-139 19-313 0-144 1-187-40-242-27-37-13-94 26-108 103-36 250-59 389-41 63 8 182 85 165 149zm-140 11c-10-39-42-58-96-57-53 12-154 21-179 43-5 9-8 31-8 65 0 151 19 135 127 94 94-36 148-79 156-145" id="t"/><path d="M192-85c-3 48 46 100 89 72 52-75 73-232 102-321 46-139 146-233 278-374 22-37 2-105-46-93-81 20-199 174-252 246-53 73-46 65-110 7-63-57-96-136-132-220-11-25-31-37-54-37-36-1-56 32-56 68 32 142 118 264 224 332 15 16 24 24 21 38" id="u"/><g id="d"><use transform="matrix(0.05044444444444441,0,0,0.05044444444444441,0,0)" xlink:href="#n"/><use transform="matrix(0.05044444444444441,0,0,0.05044444444444441,35.46244444444442,0)" xlink:href="#o"/><use transform="matrix(0.05044444444444441,0,0,0.05044444444444441,63.913111111111064,0)" xlink:href="#p"/><use transform="matrix(0.05044444444444441,0,0,0.05044444444444441,87.92466666666661,0)" xlink:href="#t"/><use transform="matrix(0.05044444444444441,0,0,0.05044444444444441,119.09933333333325,0)" xlink:href="#s"/><use transform="matrix(0.05044444444444441,0,0,0.05044444444444441,149.56777777777768,0)" xlink:href="#u"/></g><path d="M103-24C79 10-2-14 8-59c42-186 129-353 193-524 23-62 63-135 99-197 39-38 106-10 109 47 27 100 51 209 81 307 8 25 72 24 72 63 0 44-26 46-37 75 12 83 46 156 55 243 7 63-106 47-114 11-13-58-36-170-57-231-3-4-7-8-9-14-69 4-134 40-198 52-53 21-53 108-81 160-4 16-8 29-18 43zm215-551c-16 18-92 195-73 208 46 2 100-12 123-31-5-30-32-162-38-171-2-3-6-5-12-6" id="v"/><path d="M593-790c58 0 99 54 77 117-5 13-15 16-35 14-70-7-152-3-229 7-31 20-24 81-26 127-4 138-16 277-16 422 0 32 4 70-21 83-26 36-88 7-103-20 1-182 10-346 21-521 2-27 11-81-18-84-73-7-138 11-206 3-20-18-39-18-32-51-3-78 74-91 145-91 129 0 251 6 369-8 25-3 49 2 74 2" id="w"/><g id="e"><use transform="matrix(0.05044444444444441,0,0,0.05044444444444441,0,0)" xlink:href="#n"/><use transform="matrix(0.05044444444444441,0,0,0.05044444444444441,35.46244444444442,0)" xlink:href="#o"/><use transform="matrix(0.05044444444444441,0,0,0.05044444444444441,63.913111111111064,0)" xlink:href="#p"/><use transform="matrix(0.05044444444444441,0,0,0.05044444444444441,87.92466666666661,0)" xlink:href="#s"/><use transform="matrix(0.05044444444444441,0,0,0.05044444444444441,118.39311111111103,0)" xlink:href="#v"/><use transform="matrix(0.05044444444444441,0,0,0.05044444444444441,148.0039999999999,0)" xlink:href="#w"/><use transform="matrix(0.05044444444444441,0,0,0.05044444444444441,184.27355555555545,0)" xlink:href="#v"/></g><path d="M722-498c18-70 6-160 6-241 0-38 16-57 49-57 55 0 82 64 82 193 1 204-63 347-126 491-54 125-124 110-196 9-30-42-54-91-82-146-27-53-43-79-49-79-8-17-88 136-114 182C269-106 193 9 170-1 96-15 86-47 66-129 33-267 17-480 18-657c0-70 18-105 54-105 39 0 66 36 68 87 4 137-4 277 12 406 12 100 67-12 84-47 47-96 102-197 139-285 18-41 78-38 96-4 52 97 51 251 110 344 50 78 71 31 104-70 17-53 22-108 37-167" id="x"/><path d="M24-128c0-158-18-313-5-472 6-74-11-192 62-191 78 1 88 68 113 130 59 143 102 191 174 297 50 73 81 109 92 109 8 0 12-3 13-9 24-163 3-322-12-477-6-63 62-76 101-37 65 64 45 212 54 340 10 141 7 304-15 413-8 15-20 23-37 23-76 0-203-132-244-200-33-54-79-109-116-169l4 4c-9-20-41-55-54-51-14 102-5 244 6 344 3 30-15 69-41 68-9 0-28-1-56-3-44-28-39-45-39-119" id="y"/><g id="f"><use transform="matrix(0.05044444444444441,0,0,0.05044444444444441,0,0)" xlink:href="#s"/><use transform="matrix(0.05044444444444441,0,0,0.05044444444444441,30.468444444444422,0)" xlink:href="#x"/><use transform="matrix(0.05044444444444441,0,0,0.05044444444444441,74.25422222222217,0)" xlink:href="#y"/><use transform="matrix(0.05044444444444441,0,0,0.05044444444444441,106.58911111111104,0)" xlink:href="#p"/><use transform="matrix(0.05044444444444441,0,0,0.05044444444444441,130.60066666666657,0)" xlink:href="#s"/><use transform="matrix(0.05044444444444441,0,0,0.05044444444444441,161.069111111111,0)" xlink:href="#v"/><use transform="matrix(0.05044444444444441,0,0,0.05044444444444441,190.67999999999986,0)" xlink:href="#w"/><use transform="matrix(0.05044444444444441,0,0,0.05044444444444441,226.9495555555554,0)" xlink:href="#v"/></g><g id="g"><use transform="matrix(0.05044444444444441,0,0,0.05044444444444441,0,0)" xlink:href="#s"/><use transform="matrix(0.05044444444444441,0,0,0.05044444444444441,30.468444444444422,0)" xlink:href="#x"/><use transform="matrix(0.05044444444444441,0,0,0.05044444444444441,74.25422222222217,0)" xlink:href="#y"/><use transform="matrix(0.05044444444444441,0,0,0.05044444444444441,106.58911111111104,0)" xlink:href="#p"/><use transform="matrix(0.05044444444444441,0,0,0.05044444444444441,130.60066666666657,0)" xlink:href="#t"/><use transform="matrix(0.05044444444444441,0,0,0.05044444444444441,161.7753333333332,0)" xlink:href="#s"/><use transform="matrix(0.05044444444444441,0,0,0.05044444444444441,192.24377777777764,0)" xlink:href="#u"/></g><g id="h"><use transform="matrix(0.05044444444444441,0,0,0.05044444444444441,0,0)" xlink:href="#s"/><use transform="matrix(0.05044444444444441,0,0,0.05044444444444441,30.468444444444422,0)" xlink:href="#x"/><use transform="matrix(0.05044444444444441,0,0,0.05044444444444441,74.25422222222217,0)" xlink:href="#y"/><use transform="matrix(0.05044444444444441,0,0,0.05044444444444441,106.58911111111104,0)" xlink:href="#p"/><use transform="matrix(0.05044444444444441,0,0,0.05044444444444441,130.60066666666657,0)" xlink:href="#q"/><use transform="matrix(0.05044444444444441,0,0,0.05044444444444441,161.62399999999988,0)" xlink:href="#r"/><use transform="matrix(0.05044444444444441,0,0,0.05044444444444441,192.6473333333332,0)" xlink:href="#s"/></g><path d="M420-750c13-14 37-57 70-50 50 0 75 34 71 103L524-47c-6 47-50 72-97 46-45-26-24-111-24-178 0-43 4-90 6-134 1-32-5-53-18-62-64 6-126 12-190 19-17 2-25 19-26 52-3 96 24 301-59 298-21 0-40-8-59-24-13-17-17-37-11-58-18-108 2-241 2-365 0-94 5-153 6-177 4-100 28-150 73-150 102 0 57 175 57 272 0 29 24 28 56 24 24-3 149-7 162-24 19-26 11-94 13-141" id="z"/><path d="M39-49c-7-93 9-204-6-289-18-30-12-41 1-77 37-27 19-97 25-162 2-23-27-37-49-40-11-18-14-56 0-71 17-39 273-99 376-109 72-7 163-32 165 45 1 65-62 51-115 66-63 18-176 24-229 55-41 23-20 107-25 176 83-2 166-25 259-33 74-6 91 70 44 97-80 23-228 35-304 57-18 6-27 18-27 35-9 45 6 274-42 299-35 2-92-5-73-49" id="A"/><g id="i"><use transform="matrix(0.0748888888888888,0,0,0.0748888888888888,0,0)" xlink:href="#z"/><use transform="matrix(0.0748888888888888,0,0,0.0748888888888888,40.739555555555505,0)" xlink:href="#v"/><use transform="matrix(0.0748888888888888,0,0,0.0748888888888888,84.69933333333323,0)" xlink:href="#r"/><use transform="matrix(0.0748888888888888,0,0,0.0748888888888888,130.75599999999983,0)" xlink:href="#A"/></g><path d="M23-677c-68-88 127-122 212-122 113 0 253 24 291 82 92 144-48 310-153 365-52 27-102 48-161 69-56 20-53 15-58 80-4 49-8 103-13 153-3 31-19 46-43 46-44 0-65-28-63-81 5-162 8-330 16-486 3-53-4-75-28-106zm415 73c0-44-44-66-132-66-78 0-124 8-135 26-10 16-14 89-14 218 0 44 22 39 57 25 83-34 224-115 224-203" id="B"/><path d="M330-158c82-22 193-18 286-31 38 11 58 81 24 113-25 24-71 25-116 25-135 0-238 34-358 47C61 7 4-52 15-159c12-113 37-213 32-340-2-59 2-121-2-178-2-44 35-62 81-61 104-31 222-52 345-64 68-7 103 34 111 94 2 12-3 22-9 31-33 14-62 15-103 16-100 2-196 10-270 40h-8c-18 23-11 79-15 106-1 13 5 22 16 25 82-10 176-25 264-12 44 7 78 26 71 72-7 49-76 30-125 30-78 0-138 22-210 29-24 1-35 28-36 52-2 41-10 83-8 126-19 84 122 51 181 35" id="C"/><path d="M44-443c79-191 208-366 448-366 141 0 239 118 267 253 46 222-61 413-213 490-83 42-221 78-338 30-55-23-106-43-129-82-26-14-80-140-57-202 2-41 8-89 22-123zm103 115c1 136 75 191 208 191 130 0 180-50 241-135 38-53 55-111 55-169 0-109-73-236-179-227-143 12-260 151-311 271-9 24-14 47-14 69" id="D"/><path d="M629-645c28 177 9 401 28 582 3 29-18 50-47 50-97 0-67-194-71-306-1-24-4-66-3-92 1-39-15-57-30-33-49 79-88 161-139 243-9 15-21 23-34 23-33 0-70-69-89-115-10-23-57-152-73-152-28 0-27 119-31 162-9 93-16 174-27 265-2 3-35 21-48 20-71-3-50-117-43-176 24-211 38-410 84-595 39-67 121 2 138 59 22 73 63 167 84 249 7 23 13 34 20 34 17 0 54-75 107-225 17-48 42-155 115-96 31 25 52 57 59 103" id="E"/><path d="M521-275c40-33 108-24 108 34 0 49-75 103-210 183-80 47-247 72-323 10-66-54-95-101-82-218 12-106 41-136 91-224 55-96 145-209 240-278 32-23 68-33 107-33 86 2 108 61 107 158 0 55-15 82-44 82-55 1-25-116-79-110-132 15-229 223-291 334-48 86-31 226 81 218 122-9 217-92 295-156" id="F"/><g id="j"><use transform="matrix(0.0748888888888888,0,0,0.0748888888888888,0,0)" xlink:href="#B"/><use transform="matrix(0.0748888888888888,0,0,0.0748888888888888,42.23733333333328,0)" xlink:href="#C"/><use transform="matrix(0.0748888888888888,0,0,0.0748888888888888,92.11333333333323,0)" xlink:href="#t"/><use transform="matrix(0.0748888888888888,0,0,0.0748888888888888,138.39466666666652,0)" xlink:href="#A"/><use transform="matrix(0.0748888888888888,0,0,0.0748888888888888,179.808222222222,0)" xlink:href="#D"/><use transform="matrix(0.0748888888888888,0,0,0.0748888888888888,239.94399999999973,0)" xlink:href="#t"/><use transform="matrix(0.0748888888888888,0,0,0.0748888888888888,286.225333333333,0)" xlink:href="#E"/><use transform="matrix(0.0748888888888888,0,0,0.0748888888888888,336.5506666666663,0)" xlink:href="#v"/><use transform="matrix(0.0748888888888888,0,0,0.0748888888888888,380.51044444444403,0)" xlink:href="#y"/><use transform="matrix(0.0748888888888888,0,0,0.0748888888888888,428.51422222222175,0)" xlink:href="#F"/><use transform="matrix(0.0748888888888888,0,0,0.0748888888888888,475.99377777777727,0)" xlink:href="#C"/></g><path d="M68-174c-8-157-1-333-1-488 0-23-21-28-12-60 24-87 141-85 256-77 161 12 317 42 251 258-5 17-40 45-44 60 15 30 85 80 98 123 62 108 25 192-76 258C455-45 341-9 207-4 145-2 19-30 19-85c0-36 51-41 49-89zm137-510c-18 6-26 137-16 192 30 22 66 2 112-6 70-13 158-95 159-132 17-68-169-82-255-54zm-15 330c-15 57-2 155 5 215 6 4 6 12 18 11 101-5 211-32 267-82 52-46 58-91 12-140s-73-73-81-73c-39 14-121 48-173 54-15 2-34 14-48 15" id="G"/><g id="k"><use transform="matrix(0.0748888888888888,0,0,0.0748888888888888,0,0)" xlink:href="#G"/><use transform="matrix(0.0748888888888888,0,0,0.0748888888888888,48.1535555555555,0)" xlink:href="#n"/><use transform="matrix(0.0748888888888888,0,0,0.0748888888888888,100.80044444444432,0)" xlink:href="#A"/><use transform="matrix(0.0748888888888888,0,0,0.0748888888888888,142.21399999999983,0)" xlink:href="#A"/><use transform="matrix(0.0748888888888888,0,0,0.0748888888888888,183.62755555555532,0)" xlink:href="#C"/><use transform="matrix(0.0748888888888888,0,0,0.0748888888888888,233.50355555555527,0)" xlink:href="#t"/></g></defs></g></svg>