<svg xmlns="http://www.w3.org/2000/svg" xmlns:xlink="http://www.w3.org/1999/xlink" xmlns:lucid="lucid" width="8562" height="2644"><g transform="translate(-139 61)" lucid:page-tab-id="0_0"><path d="M0-500h9000v3500H0z" fill="#fff"/><path d="M1280 486a6 6 0 0 1 6-6h628a6 6 0 0 1 6 6v468a6 6 0 0 1-6 6h-628a6 6 0 0 1-6-6z" stroke="#282c33" stroke-width="6" fill="#ffdda6"/><use xlink:href="#a" transform="matrix(1,0,0,1,1292,492) translate(216.19444444444463 250.7499999999999)"/><use xlink:href="#b" transform="matrix(1,0,0,1,1292,492) translate(385.08333333333314 250.7499999999999)"/><path d="M4380 1286a6 6 0 0 1 6-6h628a6 6 0 0 1 6 6v468a6 6 0 0 1-6 6h-628a6 6 0 0 1-6-6z" stroke="#282c33" stroke-width="6" fill="#ffdda6"/><use xlink:href="#a" transform="matrix(1,0,0,1,4392,1292) translate(206.2500000000002 250.7499999999999)"/><use xlink:href="#c" transform="matrix(1,0,0,1,4392,1292) translate(375.13888888888874 250.7499999999999)"/><path d="M1280 1286a6 6 0 0 1 6-6h1268a6 6 0 0 1 6 6v468a6 6 0 0 1-6 6H1286a6 6 0 0 1-6-6z" stroke="#282c33" stroke-width="6" fill="#c3f7c8"/><use xlink:href="#d" transform="matrix(1,0,0,1,1292,1292) translate(396.50000000000045 250.7499999999999)"/><use xlink:href="#e" transform="matrix(1,0,0,1,1292,1292) translate(448.6111111111115 250.7499999999999)"/><use xlink:href="#f" transform="matrix(1,0,0,1,1292,1292) translate(651.9444444444443 250.7499999999999)"/><path d="M1280 2086a6 6 0 0 1 6-6h4148a6 6 0 0 1 6 6v468a6 6 0 0 1-6 6H1286a6 6 0 0 1-6-6z" stroke="#282c33" stroke-width="6" fill="#c3f7c8"/><use xlink:href="#g" transform="matrix(1,0,0,1,1292,2092) translate(1719.6111111111118 250.7499999999999)"/><use xlink:href="#h" transform="matrix(1,0,0,1,1292,2092) translate(1802.5000000000005 250.7499999999999)"/><use xlink:href="#i" transform="matrix(1,0,0,1,1292,2092) translate(1844.0000000000005 250.7499999999999)"/><use xlink:href="#j" transform="matrix(1,0,0,1,1292,2092) translate(1914.777777777778 250.7499999999999)"/><use xlink:href="#k" transform="matrix(1,0,0,1,1292,2092) translate(1958.0000000000002 250.7499999999999)"/><use xlink:href="#e" transform="matrix(1,0,0,1,1292,2092) translate(2005.5 250.7499999999999)"/><use xlink:href="#l" transform="matrix(1,0,0,1,1292,2092) translate(2208.833333333333 250.7499999999999)"/><path d="M3520 486a6 6 0 0 1 6-6h248a6 6 0 0 1 6 6v1268a6 6 0 0 1-6 6h-248a6 6 0 0 1-6-6z" stroke="#282c33" stroke-width="6" fill="#edf5ff"/><use xlink:href="#m" transform="matrix(1,0,0,1,3532,492) translate(52.9166666666668 654.2499999999999)"/><use xlink:href="#b" transform="matrix(1,0,0,1,3532,492) translate(167.36111111111103 654.2499999999999)"/><path d="M3035.27 1589.63c-30.53 0-55.27-26.82-55.27-59.9 0-26.46 14.97-48.78 38.2-56.96-1.36-77.8 90.76-92.77 127.6-62.82 18.42-44.92 110.54-29.95 110.54 14.97 55.26-14.97 110.53 44.92 73.7 119.8 36.83 59.88 0 134.75-73.7 104.8-18.43 38.94-92.12 38.94-110.54 0-36.84 29.95-110.53 14.98-110.53-59.9z" stroke="#282c33" stroke-width="6" fill="#fff"/><use xlink:href="#n" transform="matrix(1,0,0,1,2985,1385) translate(172.29944444444448 182.32499999999987)"/><path d="M6400 1286a6 6 0 0 1 6-6h248a6 6 0 0 1 6 6v1268a6 6 0 0 1-6 6h-248a6 6 0 0 1-6-6z" stroke="#282c33" stroke-width="6" fill="#edf5ff"/><use xlink:href="#o" transform="matrix(1,0,0,1,6412,1292) translate(41.75000000000014 654.2499999999999)"/><use xlink:href="#c" transform="matrix(1,0,0,1,6412,1292) translate(158.6388888888888 654.2499999999999)"/><path d="M563 560h687.03" stroke="#3a414a" stroke-width="6" fill="none"/><path d="M563.08 562.98H560V557h3.08z" stroke="#3a414a" stroke-width=".05" fill="#3a414a"/><path d="M1267.3 560l-14.27 4.63v-9.26z" stroke="#3a414a" stroke-width="6" fill="#3a414a"/><path d="M740.1 563v791a6 6 0 0 0 6 6h503.93M740.1 563.08V560" stroke="#3a414a" stroke-width="6" fill="none"/><path d="M1267.3 1360l-14.27 4.63v-9.27z" stroke="#3a414a" stroke-width="6" fill="#3a414a"/><path d="M740.1 1350.83V2154a6 6 0 0 0 6 6h503.93M740.1 1350.9v-3.07" stroke="#3a414a" stroke-width="6" fill="none"/><path d="M1267.3 2160l-14.27 4.64v-9.28z" stroke="#3a414a" stroke-width="6" fill="#3a414a"/><path d="M3226 599.35h264.03" stroke="#3a414a" stroke-width="6" fill="none"/><path d="M3226.08 602.33h-3.2l.12-2.97-.1-2.98h3.18z" stroke="#3a414a" stroke-width=".05" fill="#3a414a"/><path d="M3507.3 599.35L3493 604v-9.28z" stroke="#3a414a" stroke-width="6" fill="#3a414a"/><path d="M1926 884.47h1239.1a6 6 0 0 1 6 6v466.3" stroke="#3a414a" stroke-width="6" fill="none"/><path d="M1926.08 887.45H1923v-5.95h3.08z" stroke="#3a414a" stroke-width=".05" fill="#3a414a"/><path d="M3171.1 1374.05l-4.65-14.27h9.27z" stroke="#3a414a" stroke-width="6" fill="#3a414a"/><path d="M2566 1520h384.75" stroke="#3a414a" stroke-width="6" fill="none"/><path d="M2566.08 1522.97H2563v-5.94h3.08z" stroke="#3a414a" stroke-width=".05" fill="#3a414a"/><path d="M2968.02 1520l-14.27 4.63v-9.27z" stroke="#3a414a" stroke-width="6" fill="#3a414a"/><path d="M3514 720H1949.97" stroke="#3a414a" stroke-width="6" fill="none"/><path d="M3517 722.98h-3.08V717h3.08z" stroke="#3a414a" stroke-width=".05" fill="#3a414a"/><path d="M1932.7 720l14.27-4.63v9.26z" stroke="#3a414a" stroke-width="6" fill="#3a414a"/><path d="M2760.04 723l-.04 651a6 6 0 0 1-6 6h-150.97a.03.03 0 0 0-.03.03.03.03 0 0 1-.03.02h-13M2760.04 723.08V720" stroke="#3a414a" stroke-width="6" fill="none"/><path d="M2572.7 1380.05l14.27-4.63v9.27z" stroke="#3a414a" stroke-width="6" fill="#3a414a"/><path d="M3345.02 1520.67h145" stroke="#3a414a" stroke-width="6" fill="none"/><path d="M3345.1 1523.64h-3.84l.22-.74 1.1-4.48.13-.73h2.4z" stroke="#3a414a" stroke-width=".05" fill="#3a414a"/><path d="M3507.3 1520.67l-14.27 4.63v-9.27z" stroke="#3a414a" stroke-width="6" fill="#3a414a"/><path d="M3786 1679h564.02" stroke="#3a414a" stroke-width="6" fill="none"/><path d="M3786.08 1681.97H3783v-5.95h3.08z" stroke="#3a414a" stroke-width=".05" fill="#3a414a"/><path d="M4367.3 1679l-14.28 4.63v-9.27z" stroke="#3a414a" stroke-width="6" fill="#3a414a"/><path d="M4374 1520h-358a6 6 0 0 1-6-6v-388.47a6 6 0 0 0-6-6h-194.03" stroke="#3a414a" stroke-width="6" fill="none"/><path d="M4377 1522.97h-3.08v-5.94h3.08z" stroke="#3a414a" stroke-width=".05" fill="#3a414a"/><path d="M3792.7 1119.53l14.27-4.64v9.26z" stroke="#3a414a" stroke-width="6" fill="#3a414a"/><path d="M4374 1359.46h-208a6 6 0 0 1-6-6v-750.8a6 6 0 0 0-6-6h-344.03" stroke="#3a414a" stroke-width="6" fill="none"/><path d="M4377 1362.43h-3.08v-5.95h3.08z" stroke="#3a414a" stroke-width=".05" fill="#3a414a"/><path d="M3792.7 596.67l14.27-4.64v9.27z" stroke="#3a414a" stroke-width="6" fill="#3a414a"/><path d="M7260 2086a6 6 0 0 1 6-6h628a6 6 0 0 1 6 6v468a6 6 0 0 1-6 6h-628a6 6 0 0 1-6-6z" stroke="#282c33" stroke-width="6" fill="#ffdda6"/><use xlink:href="#a" transform="matrix(1,0,0,1,7272,2092) translate(206.2500000000002 250.7499999999999)"/><use xlink:href="#c" transform="matrix(1,0,0,1,7272,2092) translate(375.13888888888874 250.7499999999999)"/><path d="M6666 2479.47h564.03" stroke="#3a414a" stroke-width="6" fill="none"/><path d="M6666.08 2482.45H6663v-5.95h3.08z" stroke="#3a414a" stroke-width=".05" fill="#3a414a"/><path d="M7247.3 2479.47l-14.27 4.64v-9.26z" stroke="#3a414a" stroke-width="6" fill="#3a414a"/><path d="M7254 2320h-364a6 6 0 0 1-6-6v-388a6 6 0 0 0-6-6h-188.03" stroke="#3a414a" stroke-width="6" fill="none"/><path d="M7257 2322.97h-3.08v-5.94h3.08z" stroke="#3a414a" stroke-width=".05" fill="#3a414a"/><path d="M6672.7 1920l14.27-4.63v9.27z" stroke="#3a414a" stroke-width="6" fill="#3a414a"/><path d="M7254 2169.44h-211a6 6 0 0 1-6-6v-758.77a6 6 0 0 0-6-6h-341.03" stroke="#3a414a" stroke-width="6" fill="none"/><path d="M7257 2172.4h-3.08v-5.94h3.08z" stroke="#3a414a" stroke-width=".05" fill="#3a414a"/><path d="M6672.7 1398.67l14.27-4.64v9.27z" stroke="#3a414a" stroke-width="6" fill="#3a414a"/><path d="M6394 1520H5049.98" stroke="#3a414a" stroke-width="6" fill="none"/><path d="M6397 1522.97h-3.08v-5.94h3.08z" stroke="#3a414a" stroke-width=".05" fill="#3a414a"/><path d="M5032.7 1520l14.28-4.63v9.27z" stroke="#3a414a" stroke-width="6" fill="#3a414a"/><path d="M5920.82 2389.63c-30.53 0-55.27-26.82-55.27-59.9 0-26.46 14.97-48.78 38.2-56.96-1.35-77.8 90.76-92.77 127.6-62.82 18.42-44.92 110.54-29.95 110.54 14.97 55.26-14.97 110.52 44.92 73.68 119.8 36.84 59.9 0 134.75-73.7 104.8-18.4 38.94-92.1 38.94-110.53 0-36.84 29.95-110.53 14.98-110.53-59.9z" stroke="#282c33" stroke-width="6" fill="#fff"/><use xlink:href="#n" transform="matrix(1,0,0,1,5870.550369179281,2185) translate(172.29944444444448 182.32499999999987)"/><path d="M5446 2320h390.3" stroke="#3a414a" stroke-width="6" fill="none"/><path d="M5446.08 2322.97H5443v-5.94h3.08z" stroke="#3a414a" stroke-width=".05" fill="#3a414a"/><path d="M5853.57 2320l-14.27 4.64v-9.28z" stroke="#3a414a" stroke-width="6" fill="#3a414a"/><path d="M6230.57 2320.67h136.46" stroke="#3a414a" stroke-width="6" fill="none"/><path d="M6230.65 2323.64h-3.84l.23-.74 1.1-4.48.13-.73h2.4z" stroke="#3a414a" stroke-width=".05" fill="#3a414a"/><path d="M6384.3 2320.67l-14.27 4.63v-9.27z" stroke="#3a414a" stroke-width="6" fill="#3a414a"/><path d="M5026 1684.76h1029.77a6 6 0 0 1 6 6v464.47" stroke="#3a414a" stroke-width="6" fill="none"/><path d="M5026.08 1687.73H5023v-5.95h3.08z" stroke="#3a414a" stroke-width=".05" fill="#3a414a"/><path d="M6061.77 2172.5l-4.63-14.27h9.27z" stroke="#3a414a" stroke-width="6" fill="#3a414a"/><path d="M7906 2180h387.03" stroke="#3a414a" stroke-width="6" fill="none"/><path d="M7906.08 2182.97H7903v-5.94h3.08z" stroke="#3a414a" stroke-width=".05" fill="#3a414a"/><path d="M8310.3 2180l-14.27 4.64v-9.28z" stroke="#3a414a" stroke-width="6" fill="#3a414a"/><path d="M7906 2471.7h387.02" stroke="#3a414a" stroke-width="6" fill="none"/><path d="M7906.08 2474.68H7903v-5.95h3.08z" stroke="#3a414a" stroke-width=".05" fill="#3a414a"/><path d="M8310.3 2471.7l-14.27 4.64v-9.27z" stroke="#3a414a" stroke-width="6" fill="#3a414a"/><path d="M8317 2320h-387.02" stroke="#3a414a" stroke-width="6" fill="none"/><path d="M8320 2322.97h-3.08v-5.94h3.08z" stroke="#3a414a" stroke-width=".05" fill="#3a414a"/><path d="M7912.7 2320l14.28-4.64v9.28z" stroke="#3a414a" stroke-width="6" fill="#3a414a"/><path d="M1274 720H852.67a6 6 0 0 0-6 6v1567.03" stroke="#3a414a" stroke-width="6" fill="none"/><path d="M1277 722.98h-3.08V717h3.08z" stroke="#3a414a" stroke-width=".05" fill="#3a414a"/><path d="M846.67 2310.3l-4.64-14.27h9.27z" stroke="#3a414a" stroke-width="6" fill="#3a414a"/><path d="M563 880h687.03" stroke="#3a414a" stroke-width="6" fill="none"/><path d="M563.08 882.98H560V877h3.08z" stroke="#3a414a" stroke-width=".05" fill="#3a414a"/><path d="M1267.3 880l-14.27 4.63v-9.26z" stroke="#3a414a" stroke-width="6" fill="#3a414a"/><path d="M1277 1519.47H873.63M1276.92 1519.47h3.08" stroke="#3a414a" stroke-width="6" fill="none"/><path d="M856.38 1519.47l14.26-4.63v9.27z" stroke="#3a414a" stroke-width="6" fill="#3a414a"/><path d="M563 1679.47h690.03" stroke="#3a414a" stroke-width="6" fill="none"/><path d="M563.08 1682.45H560v-5.95h3.08z" stroke="#3a414a" stroke-width=".05" fill="#3a414a"/><path d="M1270.3 1679.47l-14.27 4.64v-9.26z" stroke="#3a414a" stroke-width="6" fill="#3a414a"/><path d="M1274 2319.47H918.76a.26.26 0 0 0-.26.27.26.26 0 0 1-.26.26H586.97M1273.92 2319.47h3.08" stroke="#3a414a" stroke-width="6" fill="none"/><path d="M569.7 2320l14.27-4.64v9.28z" stroke="#3a414a" stroke-width="6" fill="#3a414a"/><path d="M563 2479.47h687.03" stroke="#3a414a" stroke-width="6" fill="none"/><path d="M563.08 2482.45H560v-5.95h3.08z" stroke="#3a414a" stroke-width=".05" fill="#3a414a"/><path d="M1267.3 2479.47l-14.27 4.64v-9.26z" stroke="#3a414a" stroke-width="6" fill="#3a414a"/><path d="M1000 626a6 6 0 0 1 6-6h248a6 6 0 0 1 6 6v87.35a6 6 0 0 1-6 6h-248a6 6 0 0 1-6-6z" stroke="#000" stroke-opacity="0" stroke-width="2" fill="#fff" fill-opacity="0"/><use xlink:href="#p" transform="matrix(1,0,0,1,1005,625) translate(60.32444444444462 61.60749999999989)"/><path d="M1000 1406a6 6 0 0 1 6-6h248a6 6 0 0 1 6 6v87.35a6 6 0 0 1-6 6h-248a6 6 0 0 1-6-6z" stroke="#000" stroke-opacity="0" stroke-width="2" fill="#fff" fill-opacity="0"/><use xlink:href="#p" transform="matrix(1,0,0,1,1005,1405) translate(60.32444444444462 61.60749999999989)"/><path d="M1000 2206a6 6 0 0 1 6-6h248a6 6 0 0 1 6 6v87.35a6 6 0 0 1-6 6h-248a6 6 0 0 1-6-6z" stroke="#000" stroke-opacity="0" stroke-width="2" fill="#fff" fill-opacity="0"/><use xlink:href="#p" transform="matrix(1,0,0,1,1005,2205) translate(60.32444444444462 61.60749999999989)"/><path d="M7900 2226a6 6 0 0 1 6-6h248a6 6 0 0 1 6 6v87.35a6 6 0 0 1-6 6h-248a6 6 0 0 1-6-6z" stroke="#000" stroke-opacity="0" stroke-width="2" fill="#fff" fill-opacity="0"/><use xlink:href="#q" transform="matrix(1,0,0,1,7905,2225) translate(45.28444444444466 61.60749999999989)"/><path d="M7900 2066a6 6 0 0 1 6-6h248a6 6 0 0 1 6 6v87.35a6 6 0 0 1-6 6h-248a6 6 0 0 1-6-6z" stroke="#000" stroke-opacity="0" stroke-width="2" fill="#fff" fill-opacity="0"/><use xlink:href="#r" transform="matrix(1,0,0,1,7905,2065) translate(46.3688888888891 61.60749999999989)"/><path d="M7900 2366a6 6 0 0 1 6-6h248a6 6 0 0 1 6 6v87.35a6 6 0 0 1-6 6h-248a6 6 0 0 1-6-6z" stroke="#000" stroke-opacity="0" stroke-width="2" fill="#fff" fill-opacity="0"/><use xlink:href="#s" transform="matrix(1,0,0,1,7905,2365) translate(34.58222222222247 61.60749999999989)"/><path d="M3100 545.35a6 6 0 0 1 6-6h54c33.14 0 60 26.86 60 60s-26.86 60-60 60h-54a6 6 0 0 1-6-6z" stroke="#282c33" stroke-width="6" fill="#fff"/><path d="M2566 1680h308a6 6 0 0 0 6-6V645.35a6 6 0 0 1 6-6h184.03" stroke="#3a414a" stroke-width="6" fill="none"/><path d="M2566.08 1682.97H2563v-5.94h3.08z" stroke="#3a414a" stroke-width=".05" fill="#3a414a"/><path d="M3087.3 639.35l-14.27 4.64v-9.28z" stroke="#3a414a" stroke-width="6" fill="#3a414a"/><path d="M1926 560.95h1144.03" stroke="#3a414a" stroke-width="6" fill="none"/><path d="M1926.08 563.93H1923v-5.95h3.08z" stroke="#3a414a" stroke-width=".05" fill="#3a414a"/><path d="M3087.3 560.95L3073 565.6v-9.28z" stroke="#3a414a" stroke-width="6" fill="#3a414a"/><path d="M6106 1400h264.02" stroke="#3a414a" stroke-width="6" fill="none"/><path d="M6106.08 1402.97h-3.2l.12-2.96-.1-2.97h3.18z" stroke="#3a414a" stroke-width=".05" fill="#3a414a"/><path d="M6387.3 1400l-14.28 4.63v-9.27z" stroke="#3a414a" stroke-width="6" fill="#3a414a"/><path d="M5980 1346a6 6 0 0 1 6-6h54c33.14 0 60 26.86 60 60s-26.86 60-60 60h-54a6 6 0 0 1-6-6z" stroke="#282c33" stroke-width="6" fill="#fff"/><path d="M5446 2479.06h310.3a6 6 0 0 0 6-6V1446a6 6 0 0 1 6-6h181.73" stroke="#3a414a" stroke-width="6" fill="none"/><path d="M5446.08 2482.04H5443v-5.95h3.08z" stroke="#3a414a" stroke-width=".05" fill="#3a414a"/><path d="M5967.3 1440l-14.27 4.63v-9.27z" stroke="#3a414a" stroke-width="6" fill="#3a414a"/><path d="M5023 1361.6h927.02M5023.08 1361.6H5020" stroke="#3a414a" stroke-width="6" fill="none"/><path d="M5967.3 1361.6l-14.28 4.63v-9.27z" stroke="#3a414a" stroke-width="6" fill="#3a414a"/><path d="M5640.62 1523v630.56a6 6 0 0 1-6 6h-164.65M5640.62 1523.08V1520" stroke="#3a414a" stroke-width="6" fill="none"/><path d="M5452.7 2159.56l14.27-4.63v9.27z" stroke="#3a414a" stroke-width="6" fill="#3a414a"/><path d="M1000 446a6 6 0 0 1 6-6h248a6 6 0 0 1 6 6v87.35a6 6 0 0 1-6 6h-248a6 6 0 0 1-6-6z" stroke="#000" stroke-opacity="0" stroke-width="2" fill="#fff" fill-opacity="0"/><use xlink:href="#t" transform="matrix(1,0,0,1,1005,445) translate(61.40888888888906 61.60749999999989)"/><path d="M1000 1246a6 6 0 0 1 6-6h248a6 6 0 0 1 6 6v87.35a6 6 0 0 1-6 6h-248a6 6 0 0 1-6-6z" stroke="#000" stroke-opacity="0" stroke-width="2" fill="#fff" fill-opacity="0"/><use xlink:href="#t" transform="matrix(1,0,0,1,1005,1245) translate(61.40888888888906 61.60749999999989)"/><path d="M990 2052.97a6 6 0 0 1 6-6h248a6 6 0 0 1 6 6v87.35a6 6 0 0 1-6 6H996a6 6 0 0 1-6-6z" stroke="#000" stroke-opacity="0" stroke-width="2" fill="#fff" fill-opacity="0"/><use xlink:href="#r" transform="matrix(1,0,0,1,995,2051.9666666666667) translate(46.3688888888891 61.60749999999989)"/><path d="M990 766a6 6 0 0 1 6-6h248a6 6 0 0 1 6 6v87.35a6 6 0 0 1-6 6H996a6 6 0 0 1-6-6z" stroke="#000" stroke-opacity="0" stroke-width="2" fill="#fff" fill-opacity="0"/><use xlink:href="#u" transform="matrix(1,0,0,1,995,765) translate(49.62222222222243 61.60749999999989)"/><path d="M990 1566a6 6 0 0 1 6-6h248a6 6 0 0 1 6 6v87.35a6 6 0 0 1-6 6H996a6 6 0 0 1-6-6z" stroke="#000" stroke-opacity="0" stroke-width="2" fill="#fff" fill-opacity="0"/><use xlink:href="#u" transform="matrix(1,0,0,1,995,1565) translate(49.62222222222243 61.60749999999989)"/><path d="M990 2366a6 6 0 0 1 6-6h248a6 6 0 0 1 6 6v87.35a6 6 0 0 1-6 6H996a6 6 0 0 1-6-6z" stroke="#000" stroke-opacity="0" stroke-width="2" fill="#fff" fill-opacity="0"/><use xlink:href="#u" transform="matrix(1,0,0,1,995,2365) translate(49.62222222222243 61.60749999999989)"/><path d="M8320 2273.13a6 6 0 0 1 6-6h348a6 6 0 0 1 6 6v93.74a6 6 0 0 1-6 6h-348a6 6 0 0 1-6-6z" stroke="#000" stroke-opacity="0" stroke-width="2" fill="#fff" fill-opacity="0"/><use xlink:href="#v" transform="matrix(1,0,0,1,8325,2272.133333333333) translate(43.26666666666702 81.5999999999998)"/><path d="M1920 446a6 6 0 0 1 6-6h248a6 6 0 0 1 6 6v87.35a6 6 0 0 1-6 6h-248a6 6 0 0 1-6-6z" stroke="#000" stroke-opacity="0" stroke-width="2" fill="#fff" fill-opacity="0"/><use xlink:href="#r" transform="matrix(1,0,0,1,1925.0000000000002,445) translate(46.3688888888891 61.60749999999989)"/><path d="M5020 1246.65a6 6 0 0 1 6-6h248a6 6 0 0 1 6 6V1334a6 6 0 0 1-6 6h-248a6 6 0 0 1-6-6z" stroke="#000" stroke-opacity="0" stroke-width="2" fill="#fff" fill-opacity="0"/><use xlink:href="#r" transform="matrix(1,0,0,1,5025,1245.6488893162361) translate(46.3688888888891 61.60749999999989)"/><path d="M5420 2386a6 6 0 0 1 6-6h248a6 6 0 0 1 6 6v87.35a6 6 0 0 1-6 6h-248a6 6 0 0 1-6-6z" stroke="#000" stroke-opacity="0" stroke-width="2" fill="#fff" fill-opacity="0"/><use xlink:href="#r" transform="matrix(1,0,0,1,5425,2385) translate(46.3688888888891 61.60749999999989)"/><path d="M2540 1586.12a6 6 0 0 1 6-6h248a6 6 0 0 1 6 6v87.35a6 6 0 0 1-6 6h-248a6 6 0 0 1-6-6z" stroke="#000" stroke-opacity="0" stroke-width="2" fill="#fff" fill-opacity="0"/><use xlink:href="#r" transform="matrix(1,0,0,1,2545,1585.1219812583674) translate(46.3688888888891 61.60749999999989)"/><path d="M5420 2226a6 6 0 0 1 6-6h248a6 6 0 0 1 6 6v87.35a6 6 0 0 1-6 6h-248a6 6 0 0 1-6-6z" stroke="#000" stroke-opacity="0" stroke-width="2" fill="#fff" fill-opacity="0"/><use xlink:href="#s" transform="matrix(1,0,0,1,5425,2225) translate(34.58222222222247 61.60749999999989)"/><path d="M2540 1426a6 6 0 0 1 6-6h248a6 6 0 0 1 6 6v87.35a6 6 0 0 1-6 6h-248a6 6 0 0 1-6-6z" stroke="#000" stroke-opacity="0" stroke-width="2" fill="#fff" fill-opacity="0"/><use xlink:href="#s" transform="matrix(1,0,0,1,2545,1425) translate(34.58222222222247 61.60749999999989)"/><path d="M5020 1406a6 6 0 0 1 6-6h248a6 6 0 0 1 6 6v87.35a6 6 0 0 1-6 6h-248a6 6 0 0 1-6-6z" stroke="#000" stroke-opacity="0" stroke-width="2" fill="#fff" fill-opacity="0"/><use xlink:href="#q" transform="matrix(1,0,0,1,5025,1405) translate(45.28444444444466 61.60749999999989)"/><path d="M5020 1586.12a6 6 0 0 1 6-6h248a6 6 0 0 1 6 6v87.35a6 6 0 0 1-6 6h-248a6 6 0 0 1-6-6z" stroke="#000" stroke-opacity="0" stroke-width="2" fill="#fff" fill-opacity="0"/><use xlink:href="#s" transform="matrix(1,0,0,1,5025,1585.1219812583674) translate(34.58222222222247 61.60749999999989)"/><path d="M6140 1306.65a6 6 0 0 1 6-6h248a6 6 0 0 1 6 6V1394a6 6 0 0 1-6 6h-248a6 6 0 0 1-6-6z" stroke="#000" stroke-opacity="0" stroke-width="2" fill="#fff" fill-opacity="0"/><use xlink:href="#t" transform="matrix(1,0,0,1,6145,1305.648888888889) translate(61.40888888888906 61.60749999999989)"/><path d="M3260 506a6 6 0 0 1 6-6h248a6 6 0 0 1 6 6v87.35a6 6 0 0 1-6 6h-248a6 6 0 0 1-6-6z" stroke="#000" stroke-opacity="0" stroke-width="2" fill="#fff" fill-opacity="0"/><use xlink:href="#t" transform="matrix(1,0,0,1,3265,505) translate(61.40888888888906 61.60749999999989)"/><path d="M7040 2066a6 6 0 0 1 6-6h248a6 6 0 0 1 6 6v87.35a6 6 0 0 1-6 6h-248a6 6 0 0 1-6-6z" stroke="#000" stroke-opacity="0" stroke-width="2" fill="#fff" fill-opacity="0"/><use xlink:href="#t" transform="matrix(1,0,0,1,7045,2065) translate(61.40888888888906 61.60749999999989)"/><path d="M4140 1246.65a6 6 0 0 1 6-6h248a6 6 0 0 1 6 6V1334a6 6 0 0 1-6 6h-248a6 6 0 0 1-6-6z" stroke="#000" stroke-opacity="0" stroke-width="2" fill="#fff" fill-opacity="0"/><use xlink:href="#t" transform="matrix(1,0,0,1,4145,1245.6488893162361) translate(61.40888888888906 61.60749999999989)"/><path d="M3260 626a6 6 0 0 1 6-6h248a6 6 0 0 1 6 6v87.35a6 6 0 0 1-6 6h-248a6 6 0 0 1-6-6z" stroke="#000" stroke-opacity="0" stroke-width="2" fill="#fff" fill-opacity="0"/><use xlink:href="#p" transform="matrix(1,0,0,1,3265,625) translate(60.32444444444462 61.60749999999989)"/><path d="M4140 1426a6 6 0 0 1 6-6h248a6 6 0 0 1 6 6v87.35a6 6 0 0 1-6 6h-248a6 6 0 0 1-6-6z" stroke="#000" stroke-opacity="0" stroke-width="2" fill="#fff" fill-opacity="0"/><use xlink:href="#p" transform="matrix(1,0,0,1,4145,1425) translate(60.32444444444462 61.60749999999989)"/><path d="M6140 1426a6 6 0 0 1 6-6h248a6 6 0 0 1 6 6v87.35a6 6 0 0 1-6 6h-248a6 6 0 0 1-6-6z" stroke="#000" stroke-opacity="0" stroke-width="2" fill="#fff" fill-opacity="0"/><use xlink:href="#p" transform="matrix(1,0,0,1,6145,1425) translate(60.32444444444462 61.60749999999989)"/><path d="M7020 2226a6 6 0 0 1 6-6h248a6 6 0 0 1 6 6v87.35a6 6 0 0 1-6 6h-248a6 6 0 0 1-6-6z" stroke="#000" stroke-opacity="0" stroke-width="2" fill="#fff" fill-opacity="0"/><use xlink:href="#p" transform="matrix(1,0,0,1,7025,2225) translate(60.32444444444462 61.60749999999989)"/><path d="M3300 1426a6 6 0 0 1 6-6h248a6 6 0 0 1 6 6v87.35a6 6 0 0 1-6 6h-248a6 6 0 0 1-6-6z" stroke="#000" stroke-opacity="0" stroke-width="2" fill="#fff" fill-opacity="0"/><use xlink:href="#u" transform="matrix(1,0,0,1,3305,1425) translate(49.62222222222243 61.60749999999989)"/><path d="M4140 1586.12a6 6 0 0 1 6-6h248a6 6 0 0 1 6 6v87.35a6 6 0 0 1-6 6h-248a6 6 0 0 1-6-6z" stroke="#000" stroke-opacity="0" stroke-width="2" fill="#fff" fill-opacity="0"/><use xlink:href="#u" transform="matrix(1,0,0,1,4145,1585.1219812583674) translate(49.62222222222243 61.60749999999989)"/><path d="M6180 2206a6 6 0 0 1 6-6h248a6 6 0 0 1 6 6v87.35a6 6 0 0 1-6 6h-248a6 6 0 0 1-6-6z" stroke="#000" stroke-opacity="0" stroke-width="2" fill="#fff" fill-opacity="0"/><use xlink:href="#u" transform="matrix(1,0,0,1,6185,2205) translate(49.62222222222243 61.60749999999989)"/><path d="M7020 2386.12a6 6 0 0 1 6-6h248a6 6 0 0 1 6 6v87.35a6 6 0 0 1-6 6h-248a6 6 0 0 1-6-6z" stroke="#000" stroke-opacity="0" stroke-width="2" fill="#fff" fill-opacity="0"/><use xlink:href="#u" transform="matrix(1,0,0,1,7025,2385.1219812583677) translate(49.62222222222243 61.60749999999989)"/><path d="M6640 2378.87a6 6 0 0 1 6-6h248a6 6 0 0 1 6 6v87.35a6 6 0 0 1-6 6h-248a6 6 0 0 1-6-6z" stroke="#000" stroke-opacity="0" stroke-width="2" fill="#fff" fill-opacity="0"/><use xlink:href="#s" transform="matrix(1,0,0,1,6645,2377.8666666666663) translate(34.58222222222247 61.60749999999989)"/><path d="M6660 1826a6 6 0 0 1 6-6h248a6 6 0 0 1 6 6v87.35a6 6 0 0 1-6 6h-248a6 6 0 0 1-6-6z" stroke="#000" stroke-opacity="0" stroke-width="2" fill="#fff" fill-opacity="0"/><use xlink:href="#q" transform="matrix(1,0,0,1,6665,1825) translate(45.28444444444466 61.60749999999989)"/><path d="M3760 1026a6 6 0 0 1 6-6h248a6 6 0 0 1 6 6v87.35a6 6 0 0 1-6 6h-248a6 6 0 0 1-6-6z" stroke="#000" stroke-opacity="0" stroke-width="2" fill="#fff" fill-opacity="0"/><use xlink:href="#q" transform="matrix(1,0,0,1,3765,1025) translate(45.28444444444466 61.60749999999989)"/><path d="M1920 626a6 6 0 0 1 6-6h248a6 6 0 0 1 6 6v87.35a6 6 0 0 1-6 6h-248a6 6 0 0 1-6-6z" stroke="#000" stroke-opacity="0" stroke-width="2" fill="#fff" fill-opacity="0"/><use xlink:href="#q" transform="matrix(1,0,0,1,1925,625) translate(45.28444444444466 61.60749999999989)"/><path d="M6640 1286a6 6 0 0 1 6-6h248a6 6 0 0 1 6 6v87.35a6 6 0 0 1-6 6h-248a6 6 0 0 1-6-6z" stroke="#000" stroke-opacity="0" stroke-width="2" fill="#fff" fill-opacity="0"/><use xlink:href="#r" transform="matrix(1,0,0,1,6645,1285) translate(46.3688888888891 61.60749999999989)"/><path d="M3760 506a6 6 0 0 1 6-6h248a6 6 0 0 1 6 6v87.35a6 6 0 0 1-6 6h-248a6 6 0 0 1-6-6z" stroke="#000" stroke-opacity="0" stroke-width="2" fill="#fff" fill-opacity="0"/><use xlink:href="#r" transform="matrix(1,0,0,1,3765,505) translate(46.3688888888891 61.60749999999989)"/><path d="M5400 2052.97a6 6 0 0 1 6-6h248a6 6 0 0 1 6 6v87.35a6 6 0 0 1-6 6h-248a6 6 0 0 1-6-6z" stroke="#000" stroke-opacity="0" stroke-width="2" fill="#fff" fill-opacity="0"/><use xlink:href="#q" transform="matrix(1,0,0,1,5405,2051.9666666666667) translate(45.28444444444466 61.60749999999989)"/><path d="M2540 1286a6 6 0 0 1 6-6h248a6 6 0 0 1 6 6v87.35a6 6 0 0 1-6 6h-248a6 6 0 0 1-6-6z" stroke="#000" stroke-opacity="0" stroke-width="2" fill="#fff" fill-opacity="0"/><use xlink:href="#q" transform="matrix(1,0,0,1,2545,1285) translate(45.28444444444466 61.60749999999989)"/><path d="M1920 786a6 6 0 0 1 6-6h248a6 6 0 0 1 6 6v87.35a6 6 0 0 1-6 6h-248a6 6 0 0 1-6-6z" stroke="#000" stroke-opacity="0" stroke-width="2" fill="#fff" fill-opacity="0"/><use xlink:href="#s" transform="matrix(1,0,0,1,1925,785) translate(34.58222222222247 61.60749999999989)"/><path d="M160 513.13a6 6 0 0 1 6-6h388a6 6 0 0 1 6 6v93.74a6 6 0 0 1-6 6H166a6 6 0 0 1-6-6z" stroke="#000" stroke-opacity="0" stroke-width="2" fill="#fff" fill-opacity="0"/><use xlink:href="#w" transform="matrix(1,0,0,1,165,512.1333333333334) translate(52.5000000000002 81.5999999999999)"/><path d="M160 2273.13a6 6 0 0 1 6-6h388a6 6 0 0 1 6 6v93.74a6 6 0 0 1-6 6H166a6 6 0 0 1-6-6z" stroke="#000" stroke-opacity="0" stroke-width="2" fill="#fff" fill-opacity="0"/><use xlink:href="#x" transform="matrix(1,0,0,1,165,2272.1333333333328) translate(51.933333333333536 81.5999999999999)"/><path d="M160 2432.6a6 6 0 0 1 6-6h388a6 6 0 0 1 6 6v93.74a6 6 0 0 1-6 6H166a6 6 0 0 1-6-6z" stroke="#000" stroke-opacity="0" stroke-width="2" fill="#fff" fill-opacity="0"/><use xlink:href="#y" transform="matrix(1,0,0,1,165.00000000000006,2431.606425702812) translate(175.43333333333337 81.5999999999999)"/><path d="M160 1632.6a6 6 0 0 1 6-6h388a6 6 0 0 1 6 6v93.74a6 6 0 0 1-6 6H166a6 6 0 0 1-6-6z" stroke="#000" stroke-opacity="0" stroke-width="2" fill="#fff" fill-opacity="0"/><use xlink:href="#z" transform="matrix(1,0,0,1,165,1631.606425702812) translate(173.5666666666667 81.5999999999999)"/><path d="M160 833.13a6 6 0 0 1 6-6h388a6 6 0 0 1 6 6v93.74a6 6 0 0 1-6 6H166a6 6 0 0 1-6-6z" stroke="#000" stroke-opacity="0" stroke-width="2" fill="#fff" fill-opacity="0"/><g><use xlink:href="#A" transform="matrix(1,0,0,1,165,832.1333333333334) translate(173.8666666666667 81.5999999999999)"/></g><path d="M8320 2133.13a6 6 0 0 1 6-6h348a6 6 0 0 1 6 6v93.74a6 6 0 0 1-6 6h-348a6 6 0 0 1-6-6z" stroke="#000" stroke-opacity="0" stroke-width="2" fill="#fff" fill-opacity="0"/><g><use xlink:href="#B" transform="matrix(1,0,0,1,8325,2132.133333333334) translate(34.166666666667055 81.5999999999998)"/></g><path d="M8320 2424.84a6 6 0 0 1 6-6h348a6 6 0 0 1 6 6v93.73a6 6 0 0 1-6 6h-348a6 6 0 0 1-6-6z" stroke="#000" stroke-opacity="0" stroke-width="2" fill="#fff" fill-opacity="0"/><g><use xlink:href="#C" transform="matrix(1,0,0,1,8325,2423.8345402491877) translate(33.60000000000039 81.5999999999998)"/></g><path d="M3760 1586.12a6 6 0 0 1 6-6h248a6 6 0 0 1 6 6v87.35a6 6 0 0 1-6 6h-248a6 6 0 0 1-6-6z" stroke="#000" stroke-opacity="0" stroke-width="2" fill="#fff" fill-opacity="0"/><g><use xlink:href="#s" transform="matrix(1,0,0,1,3765,1585.1219812583674) translate(34.58222222222247 61.60749999999989)"/></g><path d="M2900-34a6 6 0 0 1 6-6h3268a6 6 0 0 1 6 6v189.47a6 6 0 0 1-6 6H2906a6 6 0 0 1-6-6z" stroke="#000" stroke-opacity="0" stroke-width="2" fill="#fff" fill-opacity="0"/><g><use xlink:href="#D" transform="matrix(1,0,0,1,2905,-35) translate(284.3333333333335 163.20000000000002)"/><use xlink:href="#E" transform="matrix(1,0,0,1,2905,-35) translate(1069.2666666666669 163.20000000000002)"/><use xlink:href="#F" transform="matrix(1,0,0,1,2905,-35) translate(1602.4666666666667 163.20000000000002)"/><use xlink:href="#G" transform="matrix(1,0,0,1,2905,-35) translate(1706.2 163.20000000000002)"/><use xlink:href="#F" transform="matrix(1,0,0,1,2905,-35) translate(2246.866666666667 163.20000000000002)"/><use xlink:href="#H" transform="matrix(1,0,0,1,2905,-35) translate(2350.6 163.20000000000002)"/></g><path d="M3598.38 1755.05a3.17 3.17 0 0 0 2.62 4.95h98a3.17 3.17 0 0 0 2.62-4.95l-48.24-70.62a4.1 4.1 0 0 0-6.76 0zM6478.38 2555.05a3.17 3.17 0 0 0 2.62 4.95h98a3.17 3.17 0 0 0 2.62-4.95l-48.24-70.62a4.1 4.1 0 0 0-6.76 0z" stroke="#282c33" stroke-width="6" fill="#fff"/><defs><path fill="#3a414a" d="M371-533c189 0 256 55 239 237-9 91-67 138-157 205C374-33 301-7 236-7 155-7 13-82 18-160c3-44 62-73 96-38 43 44 152 73 218 29 77-51 166-125 156-169 2-44-67-63-119-62-47 1-108 1-155 3C87-393 13-429 1-531c11-87 101-150 165-187 90-52 160-96 290-87 34 2 118 78 115 115-3 35-23 38-55 45-15 4-26-4-33-24-37-64-116-1-164 12-41 11-154 77-154 113 0 15 14 22 41 22 45 0 127-11 165-11" id="I"/><path fill="#3a414a" d="M690-16c1 27-22 53-49 52-21 0-47-17-78-51-31-35-50-52-55-52C384-16 286 0 174-46 66-91 12-146 12-292c0-165 91-286 178-377 58-61 105-100 201-130 173-55 319 38 370 162 9 21 40 127 19 177-19 105-68 191-126 260-19 22-27 38-27 44 1 18 74 108 63 140zM445-229c4-68-43-207 50-207 52 0 63 37 68 87 8 80 61-19 73-41 58-107 35-292-110-292-94 0-188 52-242 114-50 58-151 211-151 284 0 83 72 131 159 129 48-1 160-25 153-74" id="J"/><path fill="#3a414a" d="M608-642l-20 77c-36 56-69 94-113 138-49 48-58 40-29 81 33 46 69 89 97 147 44 89 52 141 40 147-3 38-20 49-63 52-68 5-97-106-129-160-40-68-56-162-144-164-53-1-27 78-45 121-7 56-12 123-28 170C157-4 113 24 66-1 46-11 40-39 49-87c19-111 19-139 19-313 0-144 1-187-40-242-27-37-13-94 26-108 103-36 250-59 389-41 63 8 182 85 165 149zm-140 11c-10-39-42-58-96-57-53 12-154 21-179 43-5 9-8 31-8 65 0 151 19 135 127 94 94-36 148-79 156-145" id="K"/><path fill="#3a414a" d="M382-556c-3 158-18 304-18 470 0 31 6 72-21 86-20 35-87 21-104-6-1-188 14-367 23-549 1-24 13-80-17-80-77 0-131 31-210 31-15-10-43-18-33-45 0-82 83-94 148-109 103-23 215-12 315-40 43-12 91-17 142-23 62-8 95 53 77 116-8 28-47 14-75 18-68 9-134 10-195 30-32 11-31 60-32 101" id="L"/><g id="a"><use transform="matrix(0.05555555555555545,0,0,0.05555555555555545,0,0)" xlink:href="#I"/><use transform="matrix(0.05555555555555545,0,0,0.05555555555555545,35.055555555555486,0)" xlink:href="#J"/><use transform="matrix(0.05555555555555545,0,0,0.05555555555555545,79.94444444444429,0)" xlink:href="#K"/><use transform="matrix(0.05555555555555545,0,0,0.05555555555555545,114.27777777777753,0)" xlink:href="#L"/></g><path fill="#3a414a" d="M49-77C44-40 70-4 106-4c52 0 58-115 69-176 33-185 88-339 106-531 5-55-37-120-88-84-58 41-108 94-156 139-9 8-27 43-27 58-1 28 35 54 60 54 15-1 48-23 43 15" id="M"/><use transform="matrix(0.05555555555555545,0,0,0.05555555555555545,0,0)" xlink:href="#M" id="b"/><path fill="#3a414a" d="M489-785c107 0 154 111 116 214-29 79-213 255-300 345-26 27-38 39-16 63 95 2 204-5 287 7 22 4 49 51 49 77 0 63-95 31-141 31H320C244-52 124 2 73 14 50 19-1-26 3-53c6-51 111-140 150-182 94-98 182-189 275-285 55-57 80-102 80-129 1-31-28-24-56-21-120 11-265 81-296 145-13 26-15 67-56 65s-51-21-51-66c0-144 158-200 287-235 61-16 112-24 153-24" id="N"/><use transform="matrix(0.05555555555555545,0,0,0.05555555555555545,0,0)" xlink:href="#N" id="c"/><path fill="#3a414a" d="M24-128c0-158-18-313-5-472 6-74-11-192 62-191 78 1 88 68 113 130 59 143 102 191 174 297 50 73 81 109 92 109 8 0 12-3 13-9 24-163 3-322-12-477-6-63 62-76 101-37 65 64 45 212 54 340 10 141 7 304-15 413-8 15-20 23-37 23-76 0-203-132-244-200-33-54-79-109-116-169l4 4c-9-20-41-55-54-51-14 102-5 244 6 344 3 30-15 69-41 68-9 0-28-1-56-3-44-28-39-45-39-119" id="O"/><use transform="matrix(0.05555555555555545,0,0,0.05555555555555545,0,0)" xlink:href="#O" id="d"/><path fill="#3a414a" d="M593-790c58 0 99 54 77 117-5 13-15 16-35 14-70-7-152-3-229 7-31 20-24 81-26 127-4 138-16 277-16 422 0 32 4 70-21 83-26 36-88 7-103-20 1-182 10-346 21-521 2-27 11-81-18-84-73-7-138 11-206 3-20-18-39-18-32-51-3-78 74-91 145-91 129 0 251 6 369-8 25-3 49 2 74 2" id="P"/><path fill="#3a414a" d="M103-24C79 10-2-14 8-59c42-186 129-353 193-524 23-62 63-135 99-197 39-38 106-10 109 47 27 100 51 209 81 307 8 25 72 24 72 63 0 44-26 46-37 75 12 83 46 156 55 243 7 63-106 47-114 11-13-58-36-170-57-231-3-4-7-8-9-14-69 4-134 40-198 52-53 21-53 108-81 160-4 16-8 29-18 43zm215-551c-16 18-92 195-73 208 46 2 100-12 123-31-5-30-32-162-38-171-2-3-6-5-12-6" id="Q"/><path fill="#3a414a" d="M590-683c0-95-64-132-148-103-62 21-113 58-161 92-97 69-165 165-223 275C-45-222 51 11 277-12c154-16 257-81 343-160 63-58 100-126 109-243 12-155-158-93-246-67-61 18-178 69-168 115-2 30 28 68 54 64 69-10 133-52 201-67 9-2 20 9 20 17 0 11-18 38-57 79-85 91-188 136-306 136-55 0-99-68-99-127 0-30 16-69 37-123 25-64 237-288 318-281 25-8 66 40 79 44 19 0 28-19 28-58" id="R"/><path fill="#3a414a" d="M330-158c82-22 193-18 286-31 38 11 58 81 24 113-25 24-71 25-116 25-135 0-238 34-358 47C61 7 4-52 15-159c12-113 37-213 32-340-2-59 2-121-2-178-2-44 35-62 81-61 104-31 222-52 345-64 68-7 103 34 111 94 2 12-3 22-9 31-33 14-62 15-103 16-100 2-196 10-270 40h-8c-18 23-11 79-15 106-1 13 5 22 16 25 82-10 176-25 264-12 44 7 78 26 71 72-7 49-76 30-125 30-78 0-138 22-210 29-24 1-35 28-36 52-2 41-10 83-8 126-19 84 122 51 181 35" id="S"/><g id="e"><use transform="matrix(0.05555555555555545,0,0,0.05555555555555545,0,0)" xlink:href="#I"/><use transform="matrix(0.05555555555555545,0,0,0.05555555555555545,35.055555555555486,0)" xlink:href="#P"/><use transform="matrix(0.05555555555555545,0,0,0.05555555555555545,74.99999999999986,0)" xlink:href="#Q"/><use transform="matrix(0.05555555555555545,0,0,0.05555555555555545,107.61111111111092,0)" xlink:href="#R"/><use transform="matrix(0.05555555555555545,0,0,0.05555555555555545,149.83333333333306,0)" xlink:href="#S"/></g><path fill="#3a414a" d="M68-174c-8-157-1-333-1-488 0-23-21-28-12-60 24-87 141-85 256-77 161 12 317 42 251 258-5 17-40 45-44 60 15 30 85 80 98 123 62 108 25 192-76 258C455-45 341-9 207-4 145-2 19-30 19-85c0-36 51-41 49-89zm137-510c-18 6-26 137-16 192 30 22 66 2 112-6 70-13 158-95 159-132 17-68-169-82-255-54zm-15 330c-15 57-2 155 5 215 6 4 6 12 18 11 101-5 211-32 267-82 52-46 58-91 12-140s-73-73-81-73c-39 14-121 48-173 54-15 2-34 14-48 15" id="T"/><path fill="#3a414a" d="M106-737c41-53 131 12 108 86-42 139-71 285-71 455 0 88 72 66 143 48 49-12 128-35 183-63 38-19 36-69 44-119 17-114 31-247 31-354 0-57 26-85 79-85 37 0 55 27 55 81 0 190-34 397-59 573 4 31 20 93-13 105-8 10-30 7-65-8-16-20-33-38-51-54C397-48 305 0 205 0 79 0 5-43 13-176c13-196 50-391 93-561" id="U"/><path fill="#3a414a" d="M39-49c-7-93 9-204-6-289-18-30-12-41 1-77 37-27 19-97 25-162 2-23-27-37-49-40-11-18-14-56 0-71 17-39 273-99 376-109 72-7 163-32 165 45 1 65-62 51-115 66-63 18-176 24-229 55-41 23-20 107-25 176 83-2 166-25 259-33 74-6 91 70 44 97-80 23-228 35-304 57-18 6-27 18-27 35-9 45 6 274-42 299-35 2-92-5-73-49" id="V"/><path fill="#3a414a" d="M608-642l-20 77c-36 56-69 94-113 138-49 48-58 40-29 81 33 46 69 89 97 147 44 89 52 141 40 147-3 38-20 49-63 52-68 5-97-106-129-160-40-68-56-162-144-164-53-1-27 78-45 121-7 56-12 123-28 170C157-4 113 24 66-1 46-11 40-39 49-87c19-111 19-139 19-313 0-144 1-187-40-242-27-37-13-94 26-108 103-36 250-59 389-41 63 8 182 85 165 149zm-140 11c-10-39-42-58-96-57-53 12-154 21-179 43-5 9-8 31-8 65 0 151 19 135 127 94 94-36 148-79 156-145" id="W"/><g id="f"><use transform="matrix(0.05555555555555545,0,0,0.05555555555555545,0,0)" xlink:href="#T"/><use transform="matrix(0.05555555555555545,0,0,0.05555555555555545,35.72222222222215,0)" xlink:href="#U"/><use transform="matrix(0.05555555555555545,0,0,0.05555555555555545,74.77777777777763,0)" xlink:href="#V"/><use transform="matrix(0.05555555555555545,0,0,0.05555555555555545,105.4999999999998,0)" xlink:href="#V"/><use transform="matrix(0.05555555555555545,0,0,0.05555555555555545,136.22222222222197,0)" xlink:href="#S"/><use transform="matrix(0.05555555555555545,0,0,0.05555555555555545,173.2222222222219,0)" xlink:href="#W"/></g><path fill="#3a414a" d="M312-705c33-33 39-107-26-103-49 3-81 54-111 81-75 69-115 191-144 308-21 84-23 101-14 176 9 78 64 163 125 214 24 20 92 29 89-18-4-43-67-95-83-129-51-107-29-195 12-325 28-89 89-143 152-204" id="X"/><g id="g"><use transform="matrix(0.05555555555555545,0,0,0.05555555555555545,0,0)" xlink:href="#X"/><use transform="matrix(0.05555555555555545,0,0,0.05555555555555545,14.722222222222193,0)" xlink:href="#X"/><use transform="matrix(0.05555555555555545,0,0,0.05555555555555545,30.777777777777718,0)" xlink:href="#N"/></g><path fill="#3a414a" d="M326-672c47-13 117-11 117-73 0-69-77-55-133-49-71 9-36-80-58-137-21-55-106-22-95 35-4 10 15 48-3 53-23-22-47-62-88-62-20-1-38 17-37 37 2 32 48 80 67 106-10 12-32 12-55 11-79 22-11 125 48 117 33-5 73-11 66 36-8 59 3 111 63 117 42 4 32-88 52-111 15 5 75 36 84 37 20 2 38-22 37-42 6-25-64-61-65-75" id="Y"/><use transform="matrix(0.05555555555555545,0,0,0.05555555555555545,0,0)" xlink:href="#Y" id="h"/><path fill="#3a414a" d="M24-128c0-158-18-313-5-472 6-74-11-192 62-191 78 1 88 68 113 130 59 143 102 191 174 297 50 73 81 109 92 109 8 0 12-3 13-9 24-163 3-322-12-477-6-63 62-76 101-37 65 64 45 212 54 340 10 141 7 304-15 413-8 15-20 23-37 23-76 0-203-132-244-200-33-54-79-109-116-169l4 4c-9-20-41-55-54-51-14 102-5 244 6 344 3 30-15 69-41 68-9 0-28-1-56-3-44-28-39-45-39-119" id="Z"/><path fill="#3a414a" d="M281-285c31-114 79-277 15-384-30-51-68-104-118-134-26-16-69-9-66 27 4 51 46 70 66 106 47 87 58 158 22 285-23 82-35 147-91 197C43-130 8-88 8-59 8-15 61 0 89-24c71-61 131-123 171-221 9-21 13-29 21-43v3" id="aa"/><g id="i"><use transform="matrix(0.05555555555555545,0,0,0.05555555555555545,0,0)" xlink:href="#Z"/><use transform="matrix(0.05555555555555545,0,0,0.05555555555555545,35.61111111111104,0)" xlink:href="#aa"/></g><path fill="#3a414a" d="M247-706c69-7 55 87 47 144 7 36 7 40 59 43 50 3 122-1 122 59 0 38-26 67-57 68-54 2-108-13-130 27-29 34-30 125-56 158-43 28-93 0-87-69-5-35 30-117-28-110-65 8-119-7-115-66 3-51 46-54 113-53 79 2 72-25 75-84 4-71 5-112 57-117" id="ab"/><use transform="matrix(0.05555555555555545,0,0,0.05555555555555545,0,0)" xlink:href="#ab" id="j"/><g id="k"><use transform="matrix(0.05555555555555545,0,0,0.05555555555555545,0,0)" xlink:href="#M"/><use transform="matrix(0.05555555555555545,0,0,0.05555555555555545,12.333333333333309,0)" xlink:href="#aa"/></g><path fill="#3a414a" d="M68-174c-8-157-1-333-1-488 0-23-21-28-12-60 24-87 141-85 256-77 161 12 317 42 251 258-5 17-40 45-44 60 15 30 85 80 98 123 62 108 25 192-76 258C455-45 341-9 207-4 145-2 19-30 19-85c0-36 51-41 49-89zm137-510c-18 6-26 137-16 192 30 22 66 2 112-6 70-13 158-95 159-132 17-68-169-82-255-54zm-15 330c-15 57-2 155 5 215 6 4 6 12 18 11 101-5 211-32 267-82 52-46 58-91 12-140s-73-73-81-73c-39 14-121 48-173 54-15 2-34 14-48 15" id="ac"/><g id="l"><use transform="matrix(0.05555555555555545,0,0,0.05555555555555545,0,0)" xlink:href="#ac"/><use transform="matrix(0.05555555555555545,0,0,0.05555555555555545,35.72222222222215,0)" xlink:href="#U"/><use transform="matrix(0.05555555555555545,0,0,0.05555555555555545,74.77777777777763,0)" xlink:href="#V"/><use transform="matrix(0.05555555555555545,0,0,0.05555555555555545,105.4999999999998,0)" xlink:href="#V"/><use transform="matrix(0.05555555555555545,0,0,0.05555555555555545,136.22222222222197,0)" xlink:href="#S"/><use transform="matrix(0.05555555555555545,0,0,0.05555555555555545,173.2222222222219,0)" xlink:href="#W"/></g><path fill="#3a414a" d="M23-677c-68-88 127-122 212-122 113 0 253 24 291 82 92 144-48 310-153 365-52 27-102 48-161 69-56 20-53 15-58 80-4 49-8 103-13 153-3 31-19 46-43 46-44 0-65-28-63-81 5-162 8-330 16-486 3-53-4-75-28-106zm415 73c0-44-44-66-132-66-78 0-124 8-135 26-10 16-14 89-14 218 0 44 22 39 57 25 83-34 224-115 224-203" id="ad"/><path fill="#3a414a" d="M292-638c-67 2-113 14-176 21-81 9-112-68-58-103 132-46 304-52 470-66l65 5c50 52 43 111-50 111-45 0-75 15-112 18-18 16-19 83-24 152-7 108-21 214-33 322-5 46 36 20 67 20 54 0 81-10 139-16 43 25 50 62 23 110-151 29-311 50-490 79C58 24-8 22 3-44c14-83 161-45 224-90 22-16 24-69 29-107 17-126 33-258 36-397" id="ae"/><g id="m"><use transform="matrix(0.05555555555555545,0,0,0.05555555555555545,0,0)" xlink:href="#ad"/><use transform="matrix(0.05555555555555545,0,0,0.05555555555555545,31.33333333333327,0)" xlink:href="#ae"/><use transform="matrix(0.05555555555555545,0,0,0.05555555555555545,66.61111111111097,0)" xlink:href="#ad"/></g><use transform="matrix(0.07777777777777765,0,0,0.07777777777777765,0,0)" xlink:href="#ab" id="n"/><path fill="#3a414a" d="M23-677c-68-88 127-122 212-122 113 0 253 24 291 82 92 144-48 310-153 365-52 27-102 48-161 69-56 20-53 15-58 80-4 49-8 103-13 153-3 31-19 46-43 46-44 0-65-28-63-81 5-162 8-330 16-486 3-53-4-75-28-106zm415 73c0-44-44-66-132-66-78 0-124 8-135 26-10 16-14 89-14 218 0 44 22 39 57 25 83-34 224-115 224-203" id="af"/><path fill="#3a414a" d="M292-638c-67 2-113 14-176 21-81 9-112-68-58-103 132-46 304-52 470-66l65 5c50 52 43 111-50 111-45 0-75 15-112 18-18 16-19 83-24 152-7 108-21 214-33 322-5 46 36 20 67 20 54 0 81-10 139-16 43 25 50 62 23 110-151 29-311 50-490 79C58 24-8 22 3-44c14-83 161-45 224-90 22-16 24-69 29-107 17-126 33-258 36-397" id="ag"/><g id="o"><use transform="matrix(0.05555555555555545,0,0,0.05555555555555545,0,0)" xlink:href="#af"/><use transform="matrix(0.05555555555555545,0,0,0.05555555555555545,31.33333333333327,0)" xlink:href="#ag"/><use transform="matrix(0.05555555555555545,0,0,0.05555555555555545,69.05555555555543,0)" xlink:href="#af"/></g><path fill="#3a414a" d="M241-1c89-9 265-42 213 87-19 47-79 30-136 38-61 8-140 8-212 8-58 0-95-35-94-93-2-9 22-38 33-35 70-1 130 2 196-5" id="ah"/><path fill="#3a414a" d="M19-91c0-222 71-428 58-668-3-62 121-44 170-33 118 27 229 50 293 128 44 53 63 97 63 217 0 165-189 328-383 400-36 13-62 45-108 45-66 0-93-23-93-89zm185-582c-30 151-43 322-58 489 5 39 27 28 60 14 129-54 276-147 276-304 0-155-106-203-278-199" id="ai"/><path fill="#3a414a" d="M192-85c-3 48 46 100 89 72 52-75 73-232 102-321 46-139 146-233 278-374 22-37 2-105-46-93-81 20-199 174-252 246-53 73-46 65-110 7-63-57-96-136-132-220-11-25-31-37-54-37-36-1-56 32-56 68 32 142 118 264 224 332 15 16 24 24 21 38" id="aj"/><g id="p"><use transform="matrix(0.03555555555555546,0,0,0.03555555555555546,0,0)" xlink:href="#U"/><use transform="matrix(0.03555555555555546,0,0,0.03555555555555546,24.995555555555487,0)" xlink:href="#ad"/><use transform="matrix(0.03555555555555546,0,0,0.03555555555555546,45.04888888888877,0)" xlink:href="#ah"/><use transform="matrix(0.03555555555555546,0,0,0.03555555555555546,61.973333333333166,0)" xlink:href="#W"/><use transform="matrix(0.03555555555555546,0,0,0.03555555555555546,83.94666666666643,0)" xlink:href="#ai"/><use transform="matrix(0.03555555555555546,0,0,0.03555555555555546,105.42222222222193,0)" xlink:href="#aj"/></g><path fill="#3a414a" d="M722-498c18-70 6-160 6-241 0-38 16-57 49-57 55 0 82 64 82 193 1 204-63 347-126 491-54 125-124 110-196 9-30-42-54-91-82-146-27-53-43-79-49-79-8-17-88 136-114 182C269-106 193 9 170-1 96-15 86-47 66-129 33-267 17-480 18-657c0-70 18-105 54-105 39 0 66 36 68 87 4 137-4 277 12 406 12 100 67-12 84-47 47-96 102-197 139-285 18-41 78-38 96-4 52 97 51 251 110 344 50 78 71 31 104-70 17-53 22-108 37-167" id="ak"/><g id="q"><use transform="matrix(0.03555555555555546,0,0,0.03555555555555546,0,0)" xlink:href="#ai"/><use transform="matrix(0.03555555555555546,0,0,0.03555555555555546,21.4755555555555,0)" xlink:href="#ak"/><use transform="matrix(0.03555555555555546,0,0,0.03555555555555546,52.33777777777763,0)" xlink:href="#Z"/><use transform="matrix(0.03555555555555546,0,0,0.03555555555555546,75.12888888888868,0)" xlink:href="#ah"/><use transform="matrix(0.03555555555555546,0,0,0.03555555555555546,92.05333333333309,0)" xlink:href="#W"/><use transform="matrix(0.03555555555555546,0,0,0.03555555555555546,114.02666666666636,0)" xlink:href="#ai"/><use transform="matrix(0.03555555555555546,0,0,0.03555555555555546,135.50222222222186,0)" xlink:href="#aj"/></g><path fill="#3a414a" d="M109-735c-25-57-110-11-99 37 30 130 91 291 122 410 18 69 44 132 72 190 44 90 75 116 148 73 102-105 149-290 208-441 32-82 48-168 48-261 0-51-15-77-46-77-38 0-59 34-73 100-35 160-89 312-149 454-40 95-58 66-91-37-28-90-54-179-79-263-24-79-42-141-61-185" id="al"/><path fill="#3a414a" d="M21-302C-7-136 9 24 196-12c147-28 263-93 386-142 57-23 26-120-26-120-111 32-240 115-378 126-13 1-22-26-25-45 30-174 59-350 88-524 10-62-86-124-120-61-39 73-49 196-69 277-19 77-22 145-31 199" id="am"/><g id="r"><use transform="matrix(0.03555555555555546,0,0,0.03555555555555546,0,0)" xlink:href="#ai"/><use transform="matrix(0.03555555555555546,0,0,0.03555555555555546,21.4755555555555,0)" xlink:href="#ak"/><use transform="matrix(0.03555555555555546,0,0,0.03555555555555546,52.33777777777763,0)" xlink:href="#Z"/><use transform="matrix(0.03555555555555546,0,0,0.03555555555555546,75.12888888888868,0)" xlink:href="#ah"/><use transform="matrix(0.03555555555555546,0,0,0.03555555555555546,92.05333333333309,0)" xlink:href="#al"/><use transform="matrix(0.03555555555555546,0,0,0.03555555555555546,113.91999999999969,0)" xlink:href="#am"/><use transform="matrix(0.03555555555555546,0,0,0.03555555555555546,135.7866666666663,0)" xlink:href="#ai"/></g><g id="s"><use transform="matrix(0.03555555555555546,0,0,0.03555555555555546,0,0)" xlink:href="#ai"/><use transform="matrix(0.03555555555555546,0,0,0.03555555555555546,21.4755555555555,0)" xlink:href="#ak"/><use transform="matrix(0.03555555555555546,0,0,0.03555555555555546,52.33777777777763,0)" xlink:href="#Z"/><use transform="matrix(0.03555555555555546,0,0,0.03555555555555546,75.12888888888868,0)" xlink:href="#ah"/><use transform="matrix(0.03555555555555546,0,0,0.03555555555555546,92.05333333333309,0)" xlink:href="#ai"/><use transform="matrix(0.03555555555555546,0,0,0.03555555555555546,113.52888888888859,0)" xlink:href="#Q"/><use transform="matrix(0.03555555555555546,0,0,0.03555555555555546,134.39999999999964,0)" xlink:href="#P"/><use transform="matrix(0.03555555555555546,0,0,0.03555555555555546,159.964444444444,0)" xlink:href="#Q"/></g><g id="t"><use transform="matrix(0.03555555555555546,0,0,0.03555555555555546,0,0)" xlink:href="#U"/><use transform="matrix(0.03555555555555546,0,0,0.03555555555555546,24.995555555555487,0)" xlink:href="#ad"/><use transform="matrix(0.03555555555555546,0,0,0.03555555555555546,45.04888888888877,0)" xlink:href="#ah"/><use transform="matrix(0.03555555555555546,0,0,0.03555555555555546,61.973333333333166,0)" xlink:href="#al"/><use transform="matrix(0.03555555555555546,0,0,0.03555555555555546,83.83999999999978,0)" xlink:href="#am"/><use transform="matrix(0.03555555555555546,0,0,0.03555555555555546,105.70666666666638,0)" xlink:href="#ai"/></g><g id="u"><use transform="matrix(0.03555555555555546,0,0,0.03555555555555546,0,0)" xlink:href="#U"/><use transform="matrix(0.03555555555555546,0,0,0.03555555555555546,24.995555555555487,0)" xlink:href="#ad"/><use transform="matrix(0.03555555555555546,0,0,0.03555555555555546,45.04888888888877,0)" xlink:href="#ah"/><use transform="matrix(0.03555555555555546,0,0,0.03555555555555546,61.973333333333166,0)" xlink:href="#ai"/><use transform="matrix(0.03555555555555546,0,0,0.03555555555555546,83.44888888888866,0)" xlink:href="#Q"/><use transform="matrix(0.03555555555555546,0,0,0.03555555555555546,104.31999999999971,0)" xlink:href="#P"/><use transform="matrix(0.03555555555555546,0,0,0.03555555555555546,129.88444444444409,0)" xlink:href="#Q"/></g><path fill="#3a414a" d="M371-533c189 0 256 55 239 237-9 91-67 138-157 205C374-33 301-7 236-7 155-7 13-82 18-160c3-44 62-73 96-38 43 44 152 73 218 29 77-51 166-125 156-169 2-44-67-63-119-62-47 1-108 1-155 3C87-393 13-429 1-531c11-87 101-150 165-187 90-52 160-96 290-87 34 2 118 78 115 115-3 35-23 38-55 45-15 4-26-4-33-24-37-64-116-1-164 12-41 11-154 77-154 113 0 15 14 22 41 22 45 0 127-11 165-11" id="an"/><g id="v"><use transform="matrix(0.06666666666666649,0,0,0.06666666666666649,0,0)" xlink:href="#K"/><use transform="matrix(0.06666666666666649,0,0,0.06666666666666649,41.19999999999989,0)" xlink:href="#S"/><use transform="matrix(0.06666666666666649,0,0,0.06666666666666649,85.59999999999977,0)" xlink:href="#an"/><use transform="matrix(0.06666666666666649,0,0,0.06666666666666649,127.66666666666632,0)" xlink:href="#U"/><use transform="matrix(0.06666666666666649,0,0,0.06666666666666649,174.53333333333285,0)" xlink:href="#am"/><use transform="matrix(0.06666666666666649,0,0,0.06666666666666649,215.53333333333273,0)" xlink:href="#P"/></g><path fill="#3a414a" d="M103-24C79 10-2-14 8-59c42-186 129-353 193-524 23-62 63-135 99-197 39-38 106-10 109 47 27 100 51 209 81 307 8 25 72 24 72 63 0 44-26 46-37 75 12 83 46 156 55 243 7 63-106 47-114 11-13-58-36-170-57-231-3-4-7-8-9-14-69 4-134 40-198 52-53 21-53 108-81 160-4 16-8 29-18 43zm215-551c-16 18-92 195-73 208 46 2 100-12 123-31-5-30-32-162-38-171-2-3-6-5-12-6" id="ao"/><path fill="#3a414a" d="M590-683c0-95-64-132-148-103-62 21-113 58-161 92-97 69-165 165-223 275C-45-222 51 11 277-12c154-16 257-81 343-160 63-58 100-126 109-243 12-155-158-93-246-67-61 18-178 69-168 115-2 30 28 68 54 64 69-10 133-52 201-67 9-2 20 9 20 17 0 11-18 38-57 79-85 91-188 136-306 136-55 0-99-68-99-127 0-30 16-69 37-123 25-64 237-288 318-281 25-8 66 40 79 44 19 0 28-19 28-58" id="ap"/><g id="w"><use transform="matrix(0.06666666666666657,0,0,0.06666666666666657,0,0)" xlink:href="#ao"/><use transform="matrix(0.06666666666666657,0,0,0.06666666666666657,39.133333333333276,0)" xlink:href="#K"/><use transform="matrix(0.06666666666666657,0,0,0.06666666666666657,80.33333333333321,0)" xlink:href="#ap"/><use transform="matrix(0.06666666666666657,0,0,0.06666666666666657,130.9999999999998,0)" xlink:href="#ah"/><use transform="matrix(0.06666666666666657,0,0,0.06666666666666657,162.7333333333331,0)" xlink:href="#al"/><use transform="matrix(0.06666666666666657,0,0,0.06666666666666657,203.73333333333304,0)" xlink:href="#am"/><use transform="matrix(0.06666666666666657,0,0,0.06666666666666657,244.73333333333298,0)" xlink:href="#ai"/></g><path fill="#3a414a" d="M19-91c0-222 71-428 58-668-3-62 121-44 170-33 118 27 229 50 293 128 44 53 63 97 63 217 0 165-189 328-383 400-36 13-62 45-108 45-66 0-93-23-93-89zm185-582c-30 151-43 322-58 489 5 39 27 28 60 14 129-54 276-147 276-304 0-155-106-203-278-199" id="aq"/><path fill="#3a414a" d="M192-85c-3 48 46 100 89 72 52-75 73-232 102-321 46-139 146-233 278-374 22-37 2-105-46-93-81 20-199 174-252 246-53 73-46 65-110 7-63-57-96-136-132-220-11-25-31-37-54-37-36-1-56 32-56 68 32 142 118 264 224 332 15 16 24 24 21 38" id="ar"/><g id="x"><use transform="matrix(0.06666666666666657,0,0,0.06666666666666657,0,0)" xlink:href="#ao"/><use transform="matrix(0.06666666666666657,0,0,0.06666666666666657,39.133333333333276,0)" xlink:href="#K"/><use transform="matrix(0.06666666666666657,0,0,0.06666666666666657,80.33333333333321,0)" xlink:href="#ap"/><use transform="matrix(0.06666666666666657,0,0,0.06666666666666657,130.9999999999998,0)" xlink:href="#ah"/><use transform="matrix(0.06666666666666657,0,0,0.06666666666666657,162.7333333333331,0)" xlink:href="#K"/><use transform="matrix(0.06666666666666657,0,0,0.06666666666666657,203.93333333333302,0)" xlink:href="#aq"/><use transform="matrix(0.06666666666666657,0,0,0.06666666666666657,241.2666666666663,0)" xlink:href="#ar"/></g><use transform="matrix(0.06666666666666657,0,0,0.06666666666666657,0,0)" xlink:href="#ao" id="y"/><use transform="matrix(0.06666666666666657,0,0,0.06666666666666657,0,0)" xlink:href="#T" id="z"/><path fill="#3a414a" d="M521-275c40-33 108-24 108 34 0 49-75 103-210 183-80 47-247 72-323 10-66-54-95-101-82-218 12-106 41-136 91-224 55-96 145-209 240-278 32-23 68-33 107-33 86 2 108 61 107 158 0 55-15 82-44 82-55 1-25-116-79-110-132 15-229 223-291 334-48 86-31 226 81 218 122-9 217-92 295-156" id="as"/><use transform="matrix(0.06666666666666657,0,0,0.06666666666666657,0,0)" xlink:href="#as" id="A"/><path fill="#3a414a" d="M109-735c-25-57-110-11-99 37 30 130 91 291 122 410 18 69 44 132 72 190 44 90 75 116 148 73 102-105 149-290 208-441 32-82 48-168 48-261 0-51-15-77-46-77-38 0-59 34-73 100-35 160-89 312-149 454-40 95-58 66-91-37-28-90-54-179-79-263-24-79-42-141-61-185" id="at"/><path fill="#3a414a" d="M21-302C-7-136 9 24 196-12c147-28 263-93 386-142 57-23 26-120-26-120-111 32-240 115-378 126-13 1-22-26-25-45 30-174 59-350 88-524 10-62-86-124-120-61-39 73-49 196-69 277-19 77-22 145-31 199" id="au"/><g id="B"><use transform="matrix(0.06666666666666649,0,0,0.06666666666666649,0,0)" xlink:href="#K"/><use transform="matrix(0.06666666666666649,0,0,0.06666666666666649,41.19999999999989,0)" xlink:href="#S"/><use transform="matrix(0.06666666666666649,0,0,0.06666666666666649,85.59999999999977,0)" xlink:href="#an"/><use transform="matrix(0.06666666666666649,0,0,0.06666666666666649,127.66666666666632,0)" xlink:href="#ah"/><use transform="matrix(0.06666666666666649,0,0,0.06666666666666649,159.39999999999952,0)" xlink:href="#at"/><use transform="matrix(0.06666666666666649,0,0,0.06666666666666649,200.39999999999944,0)" xlink:href="#au"/><use transform="matrix(0.06666666666666649,0,0,0.06666666666666649,241.39999999999932,0)" xlink:href="#aq"/></g><g id="C"><use transform="matrix(0.06666666666666649,0,0,0.06666666666666649,0,0)" xlink:href="#K"/><use transform="matrix(0.06666666666666649,0,0,0.06666666666666649,41.19999999999989,0)" xlink:href="#S"/><use transform="matrix(0.06666666666666649,0,0,0.06666666666666649,85.59999999999977,0)" xlink:href="#an"/><use transform="matrix(0.06666666666666649,0,0,0.06666666666666649,127.66666666666632,0)" xlink:href="#ah"/><use transform="matrix(0.06666666666666649,0,0,0.06666666666666649,159.39999999999952,0)" xlink:href="#K"/><use transform="matrix(0.06666666666666649,0,0,0.06666666666666649,200.59999999999945,0)" xlink:href="#aq"/><use transform="matrix(0.06666666666666649,0,0,0.06666666666666649,237.93333333333268,0)" xlink:href="#ar"/></g><g id="D"><use transform="matrix(0.13333333333333333,0,0,0.13333333333333333,0,0)" xlink:href="#af"/><use transform="matrix(0.13333333333333333,0,0,0.13333333333333333,75.2,0)" xlink:href="#ae"/><use transform="matrix(0.13333333333333333,0,0,0.13333333333333333,159.86666666666667,0)" xlink:href="#ad"/><use transform="matrix(0.13333333333333333,0,0,0.13333333333333333,235.06666666666666,0)" xlink:href="#S"/><use transform="matrix(0.13333333333333333,0,0,0.13333333333333333,323.8666666666667,0)" xlink:href="#am"/><use transform="matrix(0.13333333333333333,0,0,0.13333333333333333,405.8666666666667,0)" xlink:href="#ae"/><use transform="matrix(0.13333333333333333,0,0,0.13333333333333333,490.53333333333336,0)" xlink:href="#Z"/><use transform="matrix(0.13333333333333333,0,0,0.13333333333333333,576,0)" xlink:href="#S"/><use transform="matrix(0.13333333333333333,0,0,0.13333333333333333,664.8,0)" xlink:href="#ai"/></g><path fill="#3a414a" d="M697 1c1 28-21 55-50 54-21 0-46-18-77-52-32-35-51-52-56-52C390 2 288 19 176-28 69-73 12-126 13-276c0-184 157-386 282-467 76-50 243-89 339-27 58 37 109 80 135 146 29 74 35 147 3 242-27 79-64 141-111 199-18 23-27 38-27 44 0 19 74 109 63 140zM448-200c12-68-47-222 52-222 51 0 64 41 70 89 9 80 60-19 72-41 20-37 29-84 29-134 1-93-48-165-140-161-161 7-233 84-316 209-53 79-80 143-80 192-1 114 135 154 246 114 40-14 63-27 67-46" id="av"/><g id="E"><use transform="matrix(0.13333333333333333,0,0,0.13333333333333333,0,0)" xlink:href="#an"/><use transform="matrix(0.13333333333333333,0,0,0.13333333333333333,84.13333333333333,0)" xlink:href="#av"/><use transform="matrix(0.13333333333333333,0,0,0.13333333333333333,191.86666666666667,0)" xlink:href="#W"/><use transform="matrix(0.13333333333333333,0,0,0.13333333333333333,274.26666666666665,0)" xlink:href="#P"/><use transform="matrix(0.13333333333333333,0,0,0.13333333333333333,370.1333333333333,0)" xlink:href="#X"/><use transform="matrix(0.13333333333333333,0,0,0.13333333333333333,415.3333333333333,0)" xlink:href="#Q"/></g><use transform="matrix(0.13333333333333333,0,0,0.13333333333333333,0,0)" xlink:href="#ab" id="F"/><g id="G"><use transform="matrix(0.13333333333333333,0,0,0.13333333333333333,0,0)" xlink:href="#an"/><use transform="matrix(0.13333333333333333,0,0,0.13333333333333333,84.13333333333333,0)" xlink:href="#av"/><use transform="matrix(0.13333333333333333,0,0,0.13333333333333333,191.86666666666667,0)" xlink:href="#W"/><use transform="matrix(0.13333333333333333,0,0,0.13333333333333333,274.26666666666665,0)" xlink:href="#P"/><use transform="matrix(0.13333333333333333,0,0,0.13333333333333333,370.1333333333333,0)" xlink:href="#X"/><use transform="matrix(0.13333333333333333,0,0,0.13333333333333333,415.3333333333333,0)" xlink:href="#T"/></g><path fill="#3a414a" d="M521-275c40-33 108-24 108 34 0 49-75 103-210 183-80 47-247 72-323 10-66-54-95-101-82-218 12-106 41-136 91-224 55-96 145-209 240-278 32-23 68-33 107-33 86 2 108 61 107 158 0 55-15 82-44 82-55 1-25-116-79-110-132 15-229 223-291 334-48 86-31 226 81 218 122-9 217-92 295-156" id="aw"/><g id="H"><use transform="matrix(0.13333333333333333,0,0,0.13333333333333333,0,0)" xlink:href="#an"/><use transform="matrix(0.13333333333333333,0,0,0.13333333333333333,84.13333333333333,0)" xlink:href="#av"/><use transform="matrix(0.13333333333333333,0,0,0.13333333333333333,191.86666666666667,0)" xlink:href="#W"/><use transform="matrix(0.13333333333333333,0,0,0.13333333333333333,274.26666666666665,0)" xlink:href="#P"/><use transform="matrix(0.13333333333333333,0,0,0.13333333333333333,370.1333333333333,0)" xlink:href="#X"/><use transform="matrix(0.13333333333333333,0,0,0.13333333333333333,415.3333333333333,0)" xlink:href="#aw"/><use transform="matrix(0.13333333333333333,0,0,0.13333333333333333,499.8666666666667,0)" xlink:href="#aa"/><use transform="matrix(0.13333333333333333,0,0,0.13333333333333333,530,0)" xlink:href="#aa"/><use transform="matrix(0.13333333333333333,0,0,0.13333333333333333,560.1333333333333,0)" xlink:href="#aa"/><use transform="matrix(0.13333333333333333,0,0,0.13333333333333333,590.2666666666667,0)" xlink:href="#aa"/></g></defs></g></svg>