<svg xmlns="http://www.w3.org/2000/svg" xmlns:xlink="http://www.w3.org/1999/xlink" xmlns:lucid="lucid" width="2083.57" height="2242.11"><g transform="translate(1623 503)" lucid:page-tab-id="0_0"><path d="M-2000-500H500v2500h-2500z" fill="#f2f3f5"/><path d="M-1080 1716.1h240v-560h-240z" fill="none"/><path d="M-1032 1716.1v-560l144 112v336z" stroke="#3a414a" stroke-width="6" fill="#fc9432"/><path d="M-888 1436.1h48M-960 1212.1v-56M-1032 1562.1h-48M-1032 1310.1h-48" stroke="#3a414a" stroke-width="6" fill="none"/><path d="M-600 166.1a6 6 0 0 1 6-6h301.33a6 6 0 0 1 6 6v390.67a6 6 0 0 1-6 6H-594a6 6 0 0 1-6-6z" stroke="#54c45e" stroke-width="10" fill="#c3f7c8"/><use xlink:href="#a" transform="matrix(1,0,0,1,-584.3333333333334,180.2356601717798) translate(104.63333333333333 214.72500000000002)"/><path d="M-464.53 557.47a3.6 3.6 0 0 0 3.2 5.3h36a3.6 3.6 0 0 0 3.2-5.3l-18.4-34.73a3.18 3.18 0 0 0-5.6 0z" stroke="#54c45e" stroke-width="10" fill="#fff"/><path d="M-837 361.44h214.54" stroke="#3a414a" stroke-width="6" stroke-linejoin="round" fill="none"/><path d="M-836.92 364.4H-840v-5.94h3.08z" stroke="#3a414a" stroke-width=".05" fill="#3a414a"/><path d="M-610.9 361.44l-12.9 7.63V353.8z" stroke="#3a414a" stroke-width="6" fill="#3a414a"/><path d="M-278.66 361.44h421.2" stroke="#3a414a" stroke-width="6" stroke-linejoin="round" fill="none"/><path d="M-278.58 364.4h-3.1v-5.94h3.1z" stroke="#3a414a" stroke-width=".05" fill="#3a414a"/><path d="M154.1 361.44l-12.9 7.63V353.8z" stroke="#3a414a" stroke-width="6" fill="#3a414a"/><path d="M-117-117v474M-1197-117v354M-1197-117h1080" stroke="#3a414a" stroke-width="6" stroke-linecap="round" fill="none"/><path d="M-600 1242.22a6 6 0 0 1 6-6h301.33a6 6 0 0 1 6 6v390.66a6 6 0 0 1-6 6H-594a6 6 0 0 1-6-6z" stroke="#54c45e" stroke-width="10" fill="#c3f7c8"/><use xlink:href="#a" transform="matrix(1,0,0,1,-584.3333333333331,1256.3489194821987) translate(104.63333333333333 214.72500000000002)"/><path d="M-464.53 1633.58a3.6 3.6 0 0 0 3.2 5.3h36a3.6 3.6 0 0 0 3.2-5.3l-18.4-34.73a3.18 3.18 0 0 0-5.6 0z" stroke="#54c45e" stroke-width="10" fill="#fff"/><path d="M-278.66 1437.54l423.63-1.37" stroke="#3a414a" stroke-width="6" stroke-linejoin="round" fill="none"/><path d="M-278.57 1440.5l-3.1.02v-5.95h3.08z" stroke="#3a414a" stroke-width=".05" fill="#3a414a"/><path d="M156.54 1436.13l-12.9 7.68-.04-15.26z" stroke="#3a414a" stroke-width="6" fill="#3a414a"/><path d="M-117 965.1v468M-1203 965.1h1086M-117 797h294" stroke="#3a414a" stroke-width="6" stroke-linecap="round" fill="none"/><path d="M-123 797h-1219.54" stroke="#3a414a" stroke-width="6" stroke-linejoin="round" fill="none"/><path d="M-118.57 794.46l-1.06 1.1-.37 1.5.42 1.48 1.1 1.08 1.4.37h-6v-5.96h6z" stroke="#3a414a" stroke-width=".05" fill="#3a414a"/><path d="M-1354.1 797l12.9-7.62v15.27z" stroke="#3a414a" stroke-width="6" fill="#3a414a"/><path d="M-1080 81.44h240v560h-240z" fill="none"/><path d="M-1032 81.44v560l144-112v-336z" stroke="#3a414a" stroke-width="6" fill="#fc9432"/><path d="M-888 361.44h48M-960 585.44v56M-1032 235.44h-48M-1032 487.44h-48M-1083 487.44h-274" stroke="#3a414a" stroke-width="6" fill="none"/><path d="M-1080 490.4h-3.08v-5.94h3.08zM-1356.92 490.4h-3.08v-5.94h3.08z" stroke="#3a414a" stroke-width=".05" fill="#3a414a"/><path d="M-1083 235.44h-114" stroke="#3a414a" stroke-width="6" fill="none"/><path d="M-1080 238.4h-3.08v-5.94h3.08z" stroke="#3a414a" stroke-width=".05" fill="#3a414a"/><path d="M-1196.92 235.44h-3.08M-1083 1310.1h-117.98" stroke="#3a414a" stroke-width="6" fill="none"/><path d="M-1080 1313.1h-3.08v-5.96h3.08zM-1205.55 1307.72l1.1 1.06 1.5.37 1.48-.42 1.08-1.1.38-1.4v5.98h-5.95v-5.96z" stroke="#3a414a" stroke-width=".05" fill="#3a414a"/><path d="M-960 644.44V794.02" stroke="#3a414a" stroke-width="6" fill="none"/><path d="M-957.02 644.5H-963v-3.06h5.96z" stroke="#3a414a" stroke-width=".05" fill="#3a414a"/><path d="M-960 793.93V797M-960 1153.1V800" stroke="#3a414a" stroke-width="6" fill="none"/><path d="M-957.02 1156.1H-963v-3.06h5.96z" stroke="#3a414a" stroke-width=".05" fill="#3a414a"/><path d="M-956.92 797H-960M-837.48 1436.1H-840" stroke="#3a414a" stroke-width="6" fill="none"/><path d="M-836.92 1439.1H-840v-5.96h3.08z" stroke="#3a414a" stroke-width=".05" fill="#3a414a"/><path d="M-840.56 1436.1h3.08" stroke="#3a414a" stroke-width="6" fill="none"/><path d="M-834.48 1436.1h212.02" stroke="#3a414a" stroke-width="6" stroke-linejoin="round" fill="none"/><path d="M-834.4 1436.1h-3.08" stroke="#3a414a" stroke-width="6" fill="none"/><path d="M-610.9 1436.1l-12.9 7.65v-15.27z" stroke="#3a414a" stroke-width="6" fill="#3a414a"/><path d="M-1083 1562.1h-274" stroke="#3a414a" stroke-width="6" fill="none"/><path d="M-1080 1565.1h-3.08v-5.96h3.08zM-1356.92 1565.1h-3.08v-5.96h3.08z" stroke="#3a414a" stroke-width=".05" fill="#3a414a"/><path d="M-1203 965.1v341.05" stroke="#3a414a" stroke-width="6" stroke-linecap="round" fill="none"/><path d="M-1600 450.62a6 6 0 0 1 6-6h228a6 6 0 0 1 6 6v73.63a6 6 0 0 1-6 6h-228a6 6 0 0 1-6-6z" stroke="#000" stroke-opacity="0" stroke-width="6" fill="#fff" fill-opacity="0"/><use xlink:href="#b" transform="matrix(1,0,0,1,-1595,449.6209935051131) translate(20.805666666666752 64.46899999999997)"/><path d="M-1600 760.2a6 6 0 0 1 6-6h228a6 6 0 0 1 6 6v73.63a6 6 0 0 1-6 6h-228a6 6 0 0 1-6-6z" stroke="#000" stroke-opacity="0" stroke-width="6" fill="#fff" fill-opacity="0"/><use xlink:href="#c" transform="matrix(1,0,0,1,-1595,759.1970520833333) translate(19.1993333333334 64.46899999999997)"/><path d="M-1600 1525.3a6 6 0 0 1 6-6h228a6 6 0 0 1 6 6v73.63a6 6 0 0 1-6 6h-228a6 6 0 0 1-6-6z" stroke="#000" stroke-opacity="0" stroke-width="6" fill="#fff" fill-opacity="0"/><use xlink:href="#d" transform="matrix(1,0,0,1,-1595,1524.2985926437523) translate(3.3466666666667493 64.46899999999997)"/><path d="M160 324.62a6 6 0 0 1 6-6h228a6 6 0 0 1 6 6v73.63a6 6 0 0 1-6 6H166a6 6 0 0 1-6-6z" stroke="#000" stroke-opacity="0" stroke-width="6" fill="#fff" fill-opacity="0"/><use xlink:href="#e" transform="matrix(1,0,0,1,165,323.6209935051131) translate(-1.4723333333332391 62.27933333333332)"/><path d="M180 760.2a6 6 0 0 1 6-6h228a6 6 0 0 1 6 6v73.63a6 6 0 0 1-6 6H186a6 6 0 0 1-6-6z" stroke="#000" stroke-opacity="0" stroke-width="6" fill="#fff" fill-opacity="0"/><use xlink:href="#f" transform="matrix(1,0,0,1,185,759.1970520833333) translate(-3.078666666666564 62.27933333333332)"/><path d="M162.43 1399.3a6 6 0 0 1 6-6h263.14a6 6 0 0 1 6 6v73.63a6 6 0 0 1-6 6H168.43a6 6 0 0 1-6-6z" stroke="#000" stroke-opacity="0" stroke-width="6" fill="#fff" fill-opacity="0"/><use xlink:href="#g" transform="matrix(1,0,0,1,167.4301258388707,1398.2985926437523) translate(-0.9313333333332139 62.27933333333332)"/><path d="M-920-474a6 6 0 0 1 6-6h668a6 6 0 0 1 6 6v190.54a6 6 0 0 1-6 6h-668a6 6 0 0 1-6-6z" stroke="#000" stroke-opacity="0" stroke-width="6" fill="#fff" fill-opacity="0"/><use xlink:href="#h" transform="matrix(1,0,0,1,-915,-475) translate(64.42644444444477 130.5127499999999)"/><use xlink:href="#i" transform="matrix(1,0,0,1,-915,-475) translate(385.7746666666666 130.5127499999999)"/><defs><path d="M39-49c-7-93 9-204-6-289-18-30-12-41 1-77 37-27 19-97 25-162 2-23-27-37-49-40-11-18-14-56 0-71 17-39 273-99 376-109 72-7 163-32 165 45 1 65-62 51-115 66-63 18-176 24-229 55-41 23-20 107-25 176 83-2 166-25 259-33 74-6 91 70 44 97-80 23-228 35-304 57-18 6-27 18-27 35-9 45 6 274-42 299-35 2-92-5-73-49" id="j"/><g id="a"><use transform="matrix(0.06666666666666667,0,0,0.06666666666666667,0,0)" xlink:href="#j"/><use transform="matrix(0.06666666666666667,0,0,0.06666666666666667,36.86666666666667,0)" xlink:href="#j"/></g><path d="M106-737c41-53 131 12 108 86-42 139-71 285-71 455 0 88 72 66 143 48 49-12 128-35 183-63 38-19 36-69 44-119 17-114 31-247 31-354 0-57 26-85 79-85 37 0 55 27 55 81 0 190-34 397-59 573 4 31 20 93-13 105-8 10-30 7-65-8-16-20-33-38-51-54C397-48 305 0 205 0 79 0 5-43 13-176c13-196 50-391 93-561" id="k"/><path d="M23-677c-68-88 127-122 212-122 113 0 253 24 291 82 92 144-48 310-153 365-52 27-102 48-161 69-56 20-53 15-58 80-4 49-8 103-13 153-3 31-19 46-43 46-44 0-65-28-63-81 5-162 8-330 16-486 3-53-4-75-28-106zm415 73c0-44-44-66-132-66-78 0-124 8-135 26-10 16-14 89-14 218 0 44 22 39 57 25 83-34 224-115 224-203" id="l"/><path d="M241-1c89-9 265-42 213 87-19 47-79 30-136 38-61 8-140 8-212 8-58 0-95-35-94-93-2-9 22-38 33-35 70-1 130 2 196-5" id="m"/><path d="M109-735c-25-57-110-11-99 37 30 130 91 291 122 410 18 69 44 132 72 190 44 90 75 116 148 73 102-105 149-290 208-441 32-82 48-168 48-261 0-51-15-77-46-77-38 0-59 34-73 100-35 160-89 312-149 454-40 95-58 66-91-37-28-90-54-179-79-263-24-79-42-141-61-185" id="n"/><path d="M21-302C-7-136 9 24 196-12c147-28 263-93 386-142 57-23 26-120-26-120-111 32-240 115-378 126-13 1-22-26-25-45 30-174 59-350 88-524 10-62-86-124-120-61-39 73-49 196-69 277-19 77-22 145-31 199" id="o"/><path d="M19-91c0-222 71-428 58-668-3-62 121-44 170-33 118 27 229 50 293 128 44 53 63 97 63 217 0 165-189 328-383 400-36 13-62 45-108 45-66 0-93-23-93-89zm185-582c-30 151-43 322-58 489 5 39 27 28 60 14 129-54 276-147 276-304 0-155-106-203-278-199" id="p"/><g id="b"><use transform="matrix(0.052666666666666626,0,0,0.052666666666666626,0,0)" xlink:href="#k"/><use transform="matrix(0.052666666666666626,0,0,0.052666666666666626,37.02466666666664,0)" xlink:href="#l"/><use transform="matrix(0.052666666666666626,0,0,0.052666666666666626,66.72866666666661,0)" xlink:href="#m"/><use transform="matrix(0.052666666666666626,0,0,0.052666666666666626,91.79799999999993,0)" xlink:href="#n"/><use transform="matrix(0.052666666666666626,0,0,0.052666666666666626,124.1879999999999,0)" xlink:href="#o"/><use transform="matrix(0.052666666666666626,0,0,0.052666666666666626,156.57799999999986,0)" xlink:href="#p"/></g><path d="M608-642l-20 77c-36 56-69 94-113 138-49 48-58 40-29 81 33 46 69 89 97 147 44 89 52 141 40 147-3 38-20 49-63 52-68 5-97-106-129-160-40-68-56-162-144-164-53-1-27 78-45 121-7 56-12 123-28 170C157-4 113 24 66-1 46-11 40-39 49-87c19-111 19-139 19-313 0-144 1-187-40-242-27-37-13-94 26-108 103-36 250-59 389-41 63 8 182 85 165 149zm-140 11c-10-39-42-58-96-57-53 12-154 21-179 43-5 9-8 31-8 65 0 151 19 135 127 94 94-36 148-79 156-145" id="q"/><path d="M192-85c-3 48 46 100 89 72 52-75 73-232 102-321 46-139 146-233 278-374 22-37 2-105-46-93-81 20-199 174-252 246-53 73-46 65-110 7-63-57-96-136-132-220-11-25-31-37-54-37-36-1-56 32-56 68 32 142 118 264 224 332 15 16 24 24 21 38" id="r"/><g id="c"><use transform="matrix(0.052666666666666626,0,0,0.052666666666666626,0,0)" xlink:href="#k"/><use transform="matrix(0.052666666666666626,0,0,0.052666666666666626,37.02466666666664,0)" xlink:href="#l"/><use transform="matrix(0.052666666666666626,0,0,0.052666666666666626,66.72866666666661,0)" xlink:href="#m"/><use transform="matrix(0.052666666666666626,0,0,0.052666666666666626,91.79799999999993,0)" xlink:href="#q"/><use transform="matrix(0.052666666666666626,0,0,0.052666666666666626,124.3459999999999,0)" xlink:href="#p"/><use transform="matrix(0.052666666666666626,0,0,0.052666666666666626,156.15666666666655,0)" xlink:href="#r"/></g><path d="M103-24C79 10-2-14 8-59c42-186 129-353 193-524 23-62 63-135 99-197 39-38 106-10 109 47 27 100 51 209 81 307 8 25 72 24 72 63 0 44-26 46-37 75 12 83 46 156 55 243 7 63-106 47-114 11-13-58-36-170-57-231-3-4-7-8-9-14-69 4-134 40-198 52-53 21-53 108-81 160-4 16-8 29-18 43zm215-551c-16 18-92 195-73 208 46 2 100-12 123-31-5-30-32-162-38-171-2-3-6-5-12-6" id="s"/><path d="M593-790c58 0 99 54 77 117-5 13-15 16-35 14-70-7-152-3-229 7-31 20-24 81-26 127-4 138-16 277-16 422 0 32 4 70-21 83-26 36-88 7-103-20 1-182 10-346 21-521 2-27 11-81-18-84-73-7-138 11-206 3-20-18-39-18-32-51-3-78 74-91 145-91 129 0 251 6 369-8 25-3 49 2 74 2" id="t"/><g id="d"><use transform="matrix(0.052666666666666626,0,0,0.052666666666666626,0,0)" xlink:href="#k"/><use transform="matrix(0.052666666666666626,0,0,0.052666666666666626,37.02466666666664,0)" xlink:href="#l"/><use transform="matrix(0.052666666666666626,0,0,0.052666666666666626,66.72866666666661,0)" xlink:href="#m"/><use transform="matrix(0.052666666666666626,0,0,0.052666666666666626,91.79799999999993,0)" xlink:href="#p"/><use transform="matrix(0.052666666666666626,0,0,0.052666666666666626,123.60866666666656,0)" xlink:href="#s"/><use transform="matrix(0.052666666666666626,0,0,0.052666666666666626,154.5239999999999,0)" xlink:href="#t"/><use transform="matrix(0.052666666666666626,0,0,0.052666666666666626,192.3913333333332,0)" xlink:href="#s"/></g><path d="M722-498c18-70 6-160 6-241 0-38 16-57 49-57 55 0 82 64 82 193 1 204-63 347-126 491-54 125-124 110-196 9-30-42-54-91-82-146-27-53-43-79-49-79-8-17-88 136-114 182C269-106 193 9 170-1 96-15 86-47 66-129 33-267 17-480 18-657c0-70 18-105 54-105 39 0 66 36 68 87 4 137-4 277 12 406 12 100 67-12 84-47 47-96 102-197 139-285 18-41 78-38 96-4 52 97 51 251 110 344 50 78 71 31 104-70 17-53 22-108 37-167" id="u"/><path d="M24-128c0-158-18-313-5-472 6-74-11-192 62-191 78 1 88 68 113 130 59 143 102 191 174 297 50 73 81 109 92 109 8 0 12-3 13-9 24-163 3-322-12-477-6-63 62-76 101-37 65 64 45 212 54 340 10 141 7 304-15 413-8 15-20 23-37 23-76 0-203-132-244-200-33-54-79-109-116-169l4 4c-9-20-41-55-54-51-14 102-5 244 6 344 3 30-15 69-41 68-9 0-28-1-56-3-44-28-39-45-39-119" id="v"/><g id="e"><use transform="matrix(0.052666666666666626,0,0,0.052666666666666626,0,0)" xlink:href="#p"/><use transform="matrix(0.052666666666666626,0,0,0.052666666666666626,31.81066666666664,0)" xlink:href="#u"/><use transform="matrix(0.052666666666666626,0,0,0.052666666666666626,77.52533333333326,0)" xlink:href="#v"/><use transform="matrix(0.052666666666666626,0,0,0.052666666666666626,111.28466666666655,0)" xlink:href="#m"/><use transform="matrix(0.052666666666666626,0,0,0.052666666666666626,136.35399999999987,0)" xlink:href="#n"/><use transform="matrix(0.052666666666666626,0,0,0.052666666666666626,168.74399999999986,0)" xlink:href="#o"/><use transform="matrix(0.052666666666666626,0,0,0.052666666666666626,201.13399999999984,0)" xlink:href="#p"/></g><g id="f"><use transform="matrix(0.052666666666666626,0,0,0.052666666666666626,0,0)" xlink:href="#p"/><use transform="matrix(0.052666666666666626,0,0,0.052666666666666626,31.81066666666664,0)" xlink:href="#u"/><use transform="matrix(0.052666666666666626,0,0,0.052666666666666626,77.52533333333326,0)" xlink:href="#v"/><use transform="matrix(0.052666666666666626,0,0,0.052666666666666626,111.28466666666655,0)" xlink:href="#m"/><use transform="matrix(0.052666666666666626,0,0,0.052666666666666626,136.35399999999987,0)" xlink:href="#q"/><use transform="matrix(0.052666666666666626,0,0,0.052666666666666626,168.90199999999984,0)" xlink:href="#p"/><use transform="matrix(0.052666666666666626,0,0,0.052666666666666626,200.71266666666648,0)" xlink:href="#r"/></g><g id="g"><use transform="matrix(0.052666666666666626,0,0,0.052666666666666626,0,0)" xlink:href="#p"/><use transform="matrix(0.052666666666666626,0,0,0.052666666666666626,31.81066666666664,0)" xlink:href="#u"/><use transform="matrix(0.052666666666666626,0,0,0.052666666666666626,77.52533333333326,0)" xlink:href="#v"/><use transform="matrix(0.052666666666666626,0,0,0.052666666666666626,111.28466666666655,0)" xlink:href="#m"/><use transform="matrix(0.052666666666666626,0,0,0.052666666666666626,136.35399999999987,0)" xlink:href="#p"/><use transform="matrix(0.052666666666666626,0,0,0.052666666666666626,168.1646666666665,0)" xlink:href="#s"/><use transform="matrix(0.052666666666666626,0,0,0.052666666666666626,199.0799999999998,0)" xlink:href="#t"/><use transform="matrix(0.052666666666666626,0,0,0.052666666666666626,236.9473333333331,0)" xlink:href="#s"/></g><path d="M590-683c0-95-64-132-148-103-62 21-113 58-161 92-97 69-165 165-223 275C-45-222 51 11 277-12c154-16 257-81 343-160 63-58 100-126 109-243 12-155-158-93-246-67-61 18-178 69-168 115-2 30 28 68 54 64 69-10 133-52 201-67 9-2 20 9 20 17 0 11-18 38-57 79-85 91-188 136-306 136-55 0-99-68-99-127 0-30 16-69 37-123 25-64 237-288 318-281 25-8 66 40 79 44 19 0 28-19 28-58" id="w"/><path d="M21-302C-7-136 9 24 196-12c147-28 263-93 386-142 57-23 26-120-26-120-111 32-240 115-378 126-13 1-22-26-25-45 30-174 59-350 88-524 10-62-86-124-120-61-39 73-49 196-69 277-19 77-22 145-31 199" id="x"/><path d="M44-443c79-191 208-366 448-366 141 0 239 118 267 253 46 222-61 413-213 490-83 42-221 78-338 30-55-23-106-43-129-82-26-14-80-140-57-202 2-41 8-89 22-123zm103 115c1 136 75 191 208 191 130 0 180-50 241-135 38-53 55-111 55-169 0-109-73-236-179-227-143 12-260 151-311 271-9 24-14 47-14 69" id="y"/><path d="M68-174c-8-157-1-333-1-488 0-23-21-28-12-60 24-87 141-85 256-77 161 12 317 42 251 258-5 17-40 45-44 60 15 30 85 80 98 123 62 108 25 192-76 258C455-45 341-9 207-4 145-2 19-30 19-85c0-36 51-41 49-89zm137-510c-18 6-26 137-16 192 30 22 66 2 112-6 70-13 158-95 159-132 17-68-169-82-255-54zm-15 330c-15 57-2 155 5 215 6 4 6 12 18 11 101-5 211-32 267-82 52-46 58-91 12-140s-73-73-81-73c-39 14-121 48-173 54-15 2-34 14-48 15" id="z"/><path d="M103-24C79 10-2-14 8-59c42-186 129-353 193-524 23-62 63-135 99-197 39-38 106-10 109 47 27 100 51 209 81 307 8 25 72 24 72 63 0 44-26 46-37 75 12 83 46 156 55 243 7 63-106 47-114 11-13-58-36-170-57-231-3-4-7-8-9-14-69 4-134 40-198 52-53 21-53 108-81 160-4 16-8 29-18 43zm215-551c-16 18-92 195-73 208 46 2 100-12 123-31-5-30-32-162-38-171-2-3-6-5-12-6" id="A"/><g id="h"><use transform="matrix(0.0748888888888888,0,0,0.0748888888888888,0,0)" xlink:href="#w"/><use transform="matrix(0.0748888888888888,0,0,0.0748888888888888,56.915555555555486,0)" xlink:href="#x"/><use transform="matrix(0.0748888888888888,0,0,0.0748888888888888,102.97222222222207,0)" xlink:href="#y"/><use transform="matrix(0.0748888888888888,0,0,0.0748888888888888,163.10799999999978,0)" xlink:href="#z"/><use transform="matrix(0.0748888888888888,0,0,0.0748888888888888,207.74177777777751,0)" xlink:href="#A"/><use transform="matrix(0.0748888888888888,0,0,0.0748888888888888,253.04955555555523,0)" xlink:href="#x"/></g><path d="M371-533c189 0 256 55 239 237-9 91-67 138-157 205C374-33 301-7 236-7 155-7 13-82 18-160c3-44 62-73 96-38 43 44 152 73 218 29 77-51 166-125 156-169 2-44-67-63-119-62-47 1-108 1-155 3C87-393 13-429 1-531c11-87 101-150 165-187 90-52 160-96 290-87 34 2 118 78 115 115-3 35-23 38-55 45-15 4-26-4-33-24-37-64-116-1-164 12-41 11-154 77-154 113 0 15 14 22 41 22 45 0 127-11 165-11" id="B"/><path d="M382-556c-3 158-18 304-18 470 0 31 6 72-21 86-20 35-87 21-104-6-1-188 14-367 23-549 1-24 13-80-17-80-77 0-131 31-210 31-15-10-43-18-33-45 0-82 83-94 148-109 103-23 215-12 315-40 43-12 91-17 142-23 62-8 95 53 77 116-8 28-47 14-75 18-68 9-134 10-195 30-32 11-31 60-32 101" id="C"/><g id="i"><use transform="matrix(0.0748888888888888,0,0,0.0748888888888888,0,0)" xlink:href="#B"/><use transform="matrix(0.0748888888888888,0,0,0.0748888888888888,42.68666666666661,0)" xlink:href="#C"/><use transform="matrix(0.0748888888888888,0,0,0.0748888888888888,81.10466666666656,0)" xlink:href="#A"/><use transform="matrix(0.0748888888888888,0,0,0.0748888888888888,126.41244444444428,0)" xlink:href="#x"/><use transform="matrix(0.0748888888888888,0,0,0.0748888888888888,173.74222222222198,0)" xlink:href="#x"/></g></defs></g></svg>