<svg xmlns="http://www.w3.org/2000/svg" xmlns:xlink="http://www.w3.org/1999/xlink" xmlns:lucid="lucid" width="2282" height="544"><g transform="translate(-1418.999865527066 -1239)" lucid:page-tab-id="0_0"><path d="M1000 1000h3000v1000H1000z" fill="#fff"/><path d="M1760 1286a6 6 0 0 1 6-6h628a6 6 0 0 1 6 6v468a6 6 0 0 1-6 6h-628a6 6 0 0 1-6-6z" stroke="#282c33" stroke-width="6" fill="#fff"/><use xlink:href="#a" transform="matrix(1,0,0,1,1772,1292) translate(170.00000000000026 250.7499999999999)"/><path d="M2720 1286a6 6 0 0 1 6-6h628a6 6 0 0 1 6 6v468a6 6 0 0 1-6 6h-628a6 6 0 0 1-6-6z" stroke="#282c33" stroke-width="6" fill="#fff"/><use xlink:href="#a" transform="matrix(1,0,0,1,2732,1292) translate(170.00000000000026 250.7499999999999)"/><path d="M2406 1360h284.03" stroke="#3a414a" stroke-width="6" fill="none"/><path d="M2406.08 1362.97H2403v-5.94h3.08z" stroke="#3a414a" stroke-width=".05" fill="#3a414a"/><path d="M2707.3 1360l-14.27 4.63v-9.27z" stroke="#3a414a" stroke-width="6" fill="#3a414a"/><path d="M2714 1520h-284.03" stroke="#3a414a" stroke-width="6" fill="none"/><path d="M2717 1522.97h-3.08v-5.94h3.08z" stroke="#3a414a" stroke-width=".05" fill="#3a414a"/><path d="M2412.7 1520l14.27-4.63v9.27z" stroke="#3a414a" stroke-width="6" fill="#3a414a"/><path d="M2406 1681.33h284.03" stroke="#3a414a" stroke-width="6" fill="none"/><path d="M2406.08 1684.3H2403v-5.94h3.08z" stroke="#3a414a" stroke-width=".05" fill="#3a414a"/><path d="M2707.3 1681.33l-14.27 4.64v-9.27z" stroke="#3a414a" stroke-width="6" fill="#3a414a"/><path d="M2420 1286a6 6 0 0 1 6-6h268a6 6 0 0 1 6 6v90.54a6 6 0 0 1-6 6h-268a6 6 0 0 1-6-6z" stroke="#000" stroke-opacity="0" stroke-width="2" fill="#fff" fill-opacity="0"/><use xlink:href="#b" transform="matrix(1,0,0,1,2425,1285) translate(102.39555555555567 62.26374999999985)"/><path d="M2420 1446a6 6 0 0 1 6-6h268a6 6 0 0 1 6 6v90.54a6 6 0 0 1-6 6h-268a6 6 0 0 1-6-6z" stroke="#000" stroke-opacity="0" stroke-width="2" fill="#fff" fill-opacity="0"/><use xlink:href="#c" transform="matrix(1,0,0,1,2425,1445) translate(101.31111111111123 62.26374999999985)"/><path d="M2420 1606a6 6 0 0 1 6-6h268a6 6 0 0 1 6 6v90.54a6 6 0 0 1-6 6h-268a6 6 0 0 1-6-6z" stroke="#000" stroke-opacity="0" stroke-width="2" fill="#fff" fill-opacity="0"/><use xlink:href="#d" transform="matrix(1,0,0,1,2425,1605) translate(90.60888888888906 62.26374999999985)"/><path d="M1449 1340h284.03M1449.08 1340H1446" stroke="#3a414a" stroke-width="6" fill="none"/><path d="M1750.3 1340l-14.27 4.63v-9.27z" stroke="#3a414a" stroke-width="6" fill="#3a414a"/><path d="M1757 1500h-284.03M1756.92 1500h3.08" stroke="#3a414a" stroke-width="6" fill="none"/><path d="M1455.7 1500l14.27-4.63v9.27z" stroke="#3a414a" stroke-width="6" fill="#3a414a"/><path d="M1449 1661.33h284.03M1449.08 1661.33H1446" stroke="#3a414a" stroke-width="6" fill="none"/><path d="M1750.3 1661.33l-14.27 4.64v-9.27z" stroke="#3a414a" stroke-width="6" fill="#3a414a"/><path d="M1463 1266a6 6 0 0 1 6-6h268a6 6 0 0 1 6 6v90.54a6 6 0 0 1-6 6h-268a6 6 0 0 1-6-6z" stroke="#000" stroke-opacity="0" stroke-width="2" fill="#fff" fill-opacity="0"/><use xlink:href="#b" transform="matrix(1,0,0,1,1467.9999155270657,1265) translate(102.39555555555567 62.26374999999985)"/><path d="M1463 1426a6 6 0 0 1 6-6h268a6 6 0 0 1 6 6v90.54a6 6 0 0 1-6 6h-268a6 6 0 0 1-6-6z" stroke="#000" stroke-opacity="0" stroke-width="2" fill="#fff" fill-opacity="0"/><use xlink:href="#c" transform="matrix(1,0,0,1,1467.9999155270657,1425) translate(101.31111111111123 62.26374999999985)"/><path d="M1463 1586a6 6 0 0 1 6-6h268a6 6 0 0 1 6 6v90.54a6 6 0 0 1-6 6h-268a6 6 0 0 1-6-6z" stroke="#000" stroke-opacity="0" stroke-width="2" fill="#fff" fill-opacity="0"/><use xlink:href="#d" transform="matrix(1,0,0,1,1467.9999155270657,1585) translate(90.60888888888906 62.26374999999985)"/><path d="M3363 1360h284.03M3363.08 1360H3360" stroke="#3a414a" stroke-width="6" fill="none"/><path d="M3664.3 1360l-14.27 4.63v-9.27z" stroke="#3a414a" stroke-width="6" fill="#3a414a"/><path d="M3671 1520h-284.03M3670.92 1520h3.08" stroke="#3a414a" stroke-width="6" fill="none"/><path d="M3369.7 1520l14.27-4.63v9.27z" stroke="#3a414a" stroke-width="6" fill="#3a414a"/><path d="M3363 1681.33h284.03M3363.08 1681.33H3360" stroke="#3a414a" stroke-width="6" fill="none"/><path d="M3664.3 1681.33l-14.27 4.64v-9.27z" stroke="#3a414a" stroke-width="6" fill="#3a414a"/><path d="M3377 1286a6 6 0 0 1 6-6h268a6 6 0 0 1 6 6v90.54a6 6 0 0 1-6 6h-268a6 6 0 0 1-6-6z" stroke="#000" stroke-opacity="0" stroke-width="2" fill="#fff" fill-opacity="0"/><use xlink:href="#b" transform="matrix(1,0,0,1,3382.000084188034,1285) translate(102.39555555555567 62.26374999999985)"/><path d="M3377 1446a6 6 0 0 1 6-6h268a6 6 0 0 1 6 6v90.54a6 6 0 0 1-6 6h-268a6 6 0 0 1-6-6z" stroke="#000" stroke-opacity="0" stroke-width="2" fill="#fff" fill-opacity="0"/><use xlink:href="#c" transform="matrix(1,0,0,1,3382.000084188034,1445) translate(101.31111111111123 62.26374999999985)"/><path d="M3377 1606a6 6 0 0 1 6-6h268a6 6 0 0 1 6 6v90.54a6 6 0 0 1-6 6h-268a6 6 0 0 1-6-6z" stroke="#000" stroke-opacity="0" stroke-width="2" fill="#fff" fill-opacity="0"/><use xlink:href="#d" transform="matrix(1,0,0,1,3382.000084188034,1605) translate(90.60888888888906 62.26374999999985)"/><defs><path fill="#3a414a" d="M23-677c-68-88 127-122 212-122 113 0 253 24 291 82 92 144-48 310-153 365-52 27-102 48-161 69-56 20-53 15-58 80-4 49-8 103-13 153-3 31-19 46-43 46-44 0-65-28-63-81 5-162 8-330 16-486 3-53-4-75-28-106zm415 73c0-44-44-66-132-66-78 0-124 8-135 26-10 16-14 89-14 218 0 44 22 39 57 25 83-34 224-115 224-203" id="e"/><path fill="#3a414a" d="M292-638c-67 2-113 14-176 21-81 9-112-68-58-103 132-46 304-52 470-66l65 5c50 52 43 111-50 111-45 0-75 15-112 18-18 16-19 83-24 152-7 108-21 214-33 322-5 46 36 20 67 20 54 0 81-10 139-16 43 25 50 62 23 110-151 29-311 50-490 79C58 24-8 22 3-44c14-83 161-45 224-90 22-16 24-69 29-107 17-126 33-258 36-397" id="f"/><path fill="#3a414a" d="M23-677c-68-88 127-122 212-122 113 0 253 24 291 82 92 144-48 310-153 365-52 27-102 48-161 69-56 20-53 15-58 80-4 49-8 103-13 153-3 31-19 46-43 46-44 0-65-28-63-81 5-162 8-330 16-486 3-53-4-75-28-106zm415 73c0-44-44-66-132-66-78 0-124 8-135 26-10 16-14 89-14 218 0 44 22 39 57 25 83-34 224-115 224-203" id="g"/><path fill="#3a414a" d="M330-158c82-22 193-18 286-31 38 11 58 81 24 113-25 24-71 25-116 25-135 0-238 34-358 47C61 7 4-52 15-159c12-113 37-213 32-340-2-59 2-121-2-178-2-44 35-62 81-61 104-31 222-52 345-64 68-7 103 34 111 94 2 12-3 22-9 31-33 14-62 15-103 16-100 2-196 10-270 40h-8c-18 23-11 79-15 106-1 13 5 22 16 25 82-10 176-25 264-12 44 7 78 26 71 72-7 49-76 30-125 30-78 0-138 22-210 29-24 1-35 28-36 52-2 41-10 83-8 126-19 84 122 51 181 35" id="h"/><path fill="#3a414a" d="M21-302C-7-136 9 24 196-12c147-28 263-93 386-142 57-23 26-120-26-120-111 32-240 115-378 126-13 1-22-26-25-45 30-174 59-350 88-524 10-62-86-124-120-61-39 73-49 196-69 277-19 77-22 145-31 199" id="i"/><path fill="#3a414a" d="M24-128c0-158-18-313-5-472 6-74-11-192 62-191 78 1 88 68 113 130 59 143 102 191 174 297 50 73 81 109 92 109 8 0 12-3 13-9 24-163 3-322-12-477-6-63 62-76 101-37 65 64 45 212 54 340 10 141 7 304-15 413-8 15-20 23-37 23-76 0-203-132-244-200-33-54-79-109-116-169l4 4c-9-20-41-55-54-51-14 102-5 244 6 344 3 30-15 69-41 68-9 0-28-1-56-3-44-28-39-45-39-119" id="j"/><g id="a"><use transform="matrix(0.05555555555555545,0,0,0.05555555555555545,0,0)" xlink:href="#e"/><use transform="matrix(0.05555555555555545,0,0,0.05555555555555545,31.33333333333327,0)" xlink:href="#f"/><use transform="matrix(0.05555555555555545,0,0,0.05555555555555545,66.61111111111097,0)" xlink:href="#g"/><use transform="matrix(0.05555555555555545,0,0,0.05555555555555545,97.94444444444424,0)" xlink:href="#h"/><use transform="matrix(0.05555555555555545,0,0,0.05555555555555545,134.94444444444417,0)" xlink:href="#i"/><use transform="matrix(0.05555555555555545,0,0,0.05555555555555545,169.11111111111077,0)" xlink:href="#f"/><use transform="matrix(0.05555555555555545,0,0,0.05555555555555545,204.3888888888885,0)" xlink:href="#j"/><use transform="matrix(0.05555555555555545,0,0,0.05555555555555545,239.99999999999955,0)" xlink:href="#h"/></g><path fill="#3a414a" d="M109-735c-25-57-110-11-99 37 30 130 91 291 122 410 18 69 44 132 72 190 44 90 75 116 148 73 102-105 149-290 208-441 32-82 48-168 48-261 0-51-15-77-46-77-38 0-59 34-73 100-35 160-89 312-149 454-40 95-58 66-91-37-28-90-54-179-79-263-24-79-42-141-61-185" id="k"/><path fill="#3a414a" d="M19-91c0-222 71-428 58-668-3-62 121-44 170-33 118 27 229 50 293 128 44 53 63 97 63 217 0 165-189 328-383 400-36 13-62 45-108 45-66 0-93-23-93-89zm185-582c-30 151-43 322-58 489 5 39 27 28 60 14 129-54 276-147 276-304 0-155-106-203-278-199" id="l"/><g id="b"><use transform="matrix(0.03555555555555543,0,0,0.03555555555555543,0,0)" xlink:href="#k"/><use transform="matrix(0.03555555555555543,0,0,0.03555555555555543,21.86666666666659,0)" xlink:href="#i"/><use transform="matrix(0.03555555555555543,0,0,0.03555555555555543,43.73333333333318,0)" xlink:href="#l"/></g><path fill="#3a414a" d="M608-642l-20 77c-36 56-69 94-113 138-49 48-58 40-29 81 33 46 69 89 97 147 44 89 52 141 40 147-3 38-20 49-63 52-68 5-97-106-129-160-40-68-56-162-144-164-53-1-27 78-45 121-7 56-12 123-28 170C157-4 113 24 66-1 46-11 40-39 49-87c19-111 19-139 19-313 0-144 1-187-40-242-27-37-13-94 26-108 103-36 250-59 389-41 63 8 182 85 165 149zm-140 11c-10-39-42-58-96-57-53 12-154 21-179 43-5 9-8 31-8 65 0 151 19 135 127 94 94-36 148-79 156-145" id="m"/><path fill="#3a414a" d="M192-85c-3 48 46 100 89 72 52-75 73-232 102-321 46-139 146-233 278-374 22-37 2-105-46-93-81 20-199 174-252 246-53 73-46 65-110 7-63-57-96-136-132-220-11-25-31-37-54-37-36-1-56 32-56 68 32 142 118 264 224 332 15 16 24 24 21 38" id="n"/><g id="c"><use transform="matrix(0.03555555555555543,0,0,0.03555555555555543,0,0)" xlink:href="#m"/><use transform="matrix(0.03555555555555543,0,0,0.03555555555555543,21.973333333333255,0)" xlink:href="#l"/><use transform="matrix(0.03555555555555543,0,0,0.03555555555555543,43.44888888888873,0)" xlink:href="#n"/></g><path fill="#3a414a" d="M103-24C79 10-2-14 8-59c42-186 129-353 193-524 23-62 63-135 99-197 39-38 106-10 109 47 27 100 51 209 81 307 8 25 72 24 72 63 0 44-26 46-37 75 12 83 46 156 55 243 7 63-106 47-114 11-13-58-36-170-57-231-3-4-7-8-9-14-69 4-134 40-198 52-53 21-53 108-81 160-4 16-8 29-18 43zm215-551c-16 18-92 195-73 208 46 2 100-12 123-31-5-30-32-162-38-171-2-3-6-5-12-6" id="o"/><path fill="#3a414a" d="M593-790c58 0 99 54 77 117-5 13-15 16-35 14-70-7-152-3-229 7-31 20-24 81-26 127-4 138-16 277-16 422 0 32 4 70-21 83-26 36-88 7-103-20 1-182 10-346 21-521 2-27 11-81-18-84-73-7-138 11-206 3-20-18-39-18-32-51-3-78 74-91 145-91 129 0 251 6 369-8 25-3 49 2 74 2" id="p"/><g id="d"><use transform="matrix(0.03555555555555543,0,0,0.03555555555555543,0,0)" xlink:href="#l"/><use transform="matrix(0.03555555555555543,0,0,0.03555555555555543,21.47555555555548,0)" xlink:href="#o"/><use transform="matrix(0.03555555555555543,0,0,0.03555555555555543,42.346666666666515,0)" xlink:href="#p"/><use transform="matrix(0.03555555555555543,0,0,0.03555555555555543,67.91111111111087,0)" xlink:href="#o"/></g></defs></g></svg>