<svg xmlns="http://www.w3.org/2000/svg" xmlns:xlink="http://www.w3.org/1999/xlink" xmlns:lucid="lucid" width="2566" height="526"><g transform="translate(-697 -456.9999999999999)" lucid:page-tab-id="0_0"><path d="M500 0h3000v1000H500z" fill="#fff"/><path d="M1600 486a6 6 0 0 1 6-6h628a6 6 0 0 1 6 6v468a6 6 0 0 1-6 6h-628a6 6 0 0 1-6-6z" stroke="#282c33" stroke-width="6" fill="#fff"/><use xlink:href="#a" transform="matrix(1,0,0,1,1612,492) translate(170.00000000000026 250.7499999999999)"/><path d="M1283 560h287.03" stroke="#3a414a" stroke-width="6" fill="none"/><path d="M1283.08 562.98H1280V557h3.08z" stroke="#3a414a" stroke-width=".05" fill="#3a414a"/><path d="M1587.3 560l-14.27 4.63v-9.26z" stroke="#3a414a" stroke-width="6" fill="#3a414a"/><path d="M1283 880h287.03" stroke="#3a414a" stroke-width="6" fill="none"/><path d="M1283.08 882.98H1280V877h3.08z" stroke="#3a414a" stroke-width=".05" fill="#3a414a"/><path d="M1587.3 880l-14.27 4.63v-9.26z" stroke="#3a414a" stroke-width="6" fill="#3a414a"/><path d="M1594 720h-287.03" stroke="#3a414a" stroke-width="6" fill="none"/><path d="M1597 722.98h-3.08V717h3.08z" stroke="#3a414a" stroke-width=".05" fill="#3a414a"/><path d="M1289.7 720l14.27-4.63v9.26z" stroke="#3a414a" stroke-width="6" fill="#3a414a"/><path d="M2246 560h287.03" stroke="#3a414a" stroke-width="6" fill="none"/><path d="M2246.08 562.98H2243V557h3.08z" stroke="#3a414a" stroke-width=".05" fill="#3a414a"/><path d="M2550.3 560l-14.27 4.63v-9.26z" stroke="#3a414a" stroke-width="6" fill="#3a414a"/><path d="M2557 720h-287.03" stroke="#3a414a" stroke-width="6" fill="none"/><path d="M2560 722.98h-3.08V717h3.08z" stroke="#3a414a" stroke-width=".05" fill="#3a414a"/><path d="M2252.7 720l14.28-4.63v9.26z" stroke="#3a414a" stroke-width="6" fill="#3a414a"/><path d="M2246 880h287.03" stroke="#3a414a" stroke-width="6" fill="none"/><path d="M2246.08 882.98H2243V877h3.08z" stroke="#3a414a" stroke-width=".05" fill="#3a414a"/><path d="M2550.3 880l-14.28 4.63v-9.26z" stroke="#3a414a" stroke-width="6" fill="#3a414a"/><path d="M1000 514.73a6 6 0 0 1 6-6h268a6 6 0 0 1 6 6v90.54a6 6 0 0 1-6 6h-268a6 6 0 0 1-6-6z" stroke="#000" stroke-opacity="0" stroke-width="2" fill="#fff" fill-opacity="0"/><use xlink:href="#b" transform="matrix(1,0,0,1,1005,513.728888888889) translate(71.40888888888911 62.26374999999985)"/><path d="M1000 836.32a6 6 0 0 1 6-6h268a6 6 0 0 1 6 6v87.36a6 6 0 0 1-6 6h-268a6 6 0 0 1-6-6z" stroke="#000" stroke-opacity="0" stroke-width="2" fill="#fff" fill-opacity="0"/><use xlink:href="#c" transform="matrix(1,0,0,1,1005,835.3244444444445) translate(59.62222222222243 61.60749999999989)"/><path d="M1000 676.32a6 6 0 0 1 6-6h268a6 6 0 0 1 6 6v87.36a6 6 0 0 1-6 6h-268a6 6 0 0 1-6-6z" stroke="#000" stroke-opacity="0" stroke-width="2" fill="#fff" fill-opacity="0"/><use xlink:href="#d" transform="matrix(1,0,0,1,1005,675.3244444444445) translate(70.32444444444468 61.60749999999985)"/><path d="M2560 516.32a6 6 0 0 1 6-6h288a6 6 0 0 1 6 6v87.36a6 6 0 0 1-6 6h-288a6 6 0 0 1-6-6z" stroke="#000" stroke-opacity="0" stroke-width="2" fill="#fff" fill-opacity="0"/><use xlink:href="#e" transform="matrix(1,0,0,1,2565,515.3244444444445) translate(66.3688888888891 61.60749999999989)"/><path d="M2560 676.32a6 6 0 0 1 6-6h288a6 6 0 0 1 6 6v87.36a6 6 0 0 1-6 6h-288a6 6 0 0 1-6-6z" stroke="#000" stroke-opacity="0" stroke-width="2" fill="#fff" fill-opacity="0"/><use xlink:href="#f" transform="matrix(1,0,0,1,2565,675.3244444444443) translate(65.28444444444466 61.60749999999989)"/><path d="M2560 836.32a6 6 0 0 1 6-6h288a6 6 0 0 1 6 6v87.36a6 6 0 0 1-6 6h-288a6 6 0 0 1-6-6z" stroke="#000" stroke-opacity="0" stroke-width="2" fill="#fff" fill-opacity="0"/><use xlink:href="#g" transform="matrix(1,0,0,1,2565,835.3244444444445) translate(54.58222222222247 61.60749999999989)"/><path d="M720 486a6 6 0 0 1 6-6h288a6 6 0 0 1 6 6v468a6 6 0 0 1-6 6H726a6 6 0 0 1-6-6z" fill="none"/><path d="M1020 960c-5.52 0-10-4.48-10-10V730c0-5.52-4.48-10-10-10 5.52 0 10-4.48 10-10V490c0-5.52 4.48-10 10-10" stroke="#fe7070" stroke-width="6" fill="none"/><use xlink:href="#h" transform="matrix(1,0,0,1,725,485) translate(15.333333333333442 255.48888888888888)"/><path d="M2880 486a6 6 0 0 1 6-6h348a6 6 0 0 1 6 6v468a6 6 0 0 1-6 6h-348a6 6 0 0 1-6-6z" fill="none"/><path d="M2880 960c5.52 0 10-4.48 10-10V730c0-5.52 4.48-10 10-10-5.52 0-10-4.48-10-10V490c0-5.52-4.48-10-10-10" stroke="#008a0e" stroke-width="6" fill="none"/><use xlink:href="#i" transform="matrix(1,0,0,1,2915,484.9999999999999) translate(8.688888888889068 255.98888888888888)"/><defs><path fill="#3a414a" d="M23-677c-68-88 127-122 212-122 113 0 253 24 291 82 92 144-48 310-153 365-52 27-102 48-161 69-56 20-53 15-58 80-4 49-8 103-13 153-3 31-19 46-43 46-44 0-65-28-63-81 5-162 8-330 16-486 3-53-4-75-28-106zm415 73c0-44-44-66-132-66-78 0-124 8-135 26-10 16-14 89-14 218 0 44 22 39 57 25 83-34 224-115 224-203" id="j"/><path fill="#3a414a" d="M292-638c-67 2-113 14-176 21-81 9-112-68-58-103 132-46 304-52 470-66l65 5c50 52 43 111-50 111-45 0-75 15-112 18-18 16-19 83-24 152-7 108-21 214-33 322-5 46 36 20 67 20 54 0 81-10 139-16 43 25 50 62 23 110-151 29-311 50-490 79C58 24-8 22 3-44c14-83 161-45 224-90 22-16 24-69 29-107 17-126 33-258 36-397" id="k"/><path fill="#3a414a" d="M23-677c-68-88 127-122 212-122 113 0 253 24 291 82 92 144-48 310-153 365-52 27-102 48-161 69-56 20-53 15-58 80-4 49-8 103-13 153-3 31-19 46-43 46-44 0-65-28-63-81 5-162 8-330 16-486 3-53-4-75-28-106zm415 73c0-44-44-66-132-66-78 0-124 8-135 26-10 16-14 89-14 218 0 44 22 39 57 25 83-34 224-115 224-203" id="l"/><path fill="#3a414a" d="M330-158c82-22 193-18 286-31 38 11 58 81 24 113-25 24-71 25-116 25-135 0-238 34-358 47C61 7 4-52 15-159c12-113 37-213 32-340-2-59 2-121-2-178-2-44 35-62 81-61 104-31 222-52 345-64 68-7 103 34 111 94 2 12-3 22-9 31-33 14-62 15-103 16-100 2-196 10-270 40h-8c-18 23-11 79-15 106-1 13 5 22 16 25 82-10 176-25 264-12 44 7 78 26 71 72-7 49-76 30-125 30-78 0-138 22-210 29-24 1-35 28-36 52-2 41-10 83-8 126-19 84 122 51 181 35" id="m"/><path fill="#3a414a" d="M21-302C-7-136 9 24 196-12c147-28 263-93 386-142 57-23 26-120-26-120-111 32-240 115-378 126-13 1-22-26-25-45 30-174 59-350 88-524 10-62-86-124-120-61-39 73-49 196-69 277-19 77-22 145-31 199" id="n"/><path fill="#3a414a" d="M24-128c0-158-18-313-5-472 6-74-11-192 62-191 78 1 88 68 113 130 59 143 102 191 174 297 50 73 81 109 92 109 8 0 12-3 13-9 24-163 3-322-12-477-6-63 62-76 101-37 65 64 45 212 54 340 10 141 7 304-15 413-8 15-20 23-37 23-76 0-203-132-244-200-33-54-79-109-116-169l4 4c-9-20-41-55-54-51-14 102-5 244 6 344 3 30-15 69-41 68-9 0-28-1-56-3-44-28-39-45-39-119" id="o"/><g id="a"><use transform="matrix(0.05555555555555545,0,0,0.05555555555555545,0,0)" xlink:href="#j"/><use transform="matrix(0.05555555555555545,0,0,0.05555555555555545,31.33333333333327,0)" xlink:href="#k"/><use transform="matrix(0.05555555555555545,0,0,0.05555555555555545,66.61111111111097,0)" xlink:href="#l"/><use transform="matrix(0.05555555555555545,0,0,0.05555555555555545,97.94444444444424,0)" xlink:href="#m"/><use transform="matrix(0.05555555555555545,0,0,0.05555555555555545,134.94444444444417,0)" xlink:href="#n"/><use transform="matrix(0.05555555555555545,0,0,0.05555555555555545,169.11111111111077,0)" xlink:href="#k"/><use transform="matrix(0.05555555555555545,0,0,0.05555555555555545,204.3888888888885,0)" xlink:href="#o"/><use transform="matrix(0.05555555555555545,0,0,0.05555555555555545,239.99999999999955,0)" xlink:href="#m"/></g><path fill="#3a414a" d="M106-737c41-53 131 12 108 86-42 139-71 285-71 455 0 88 72 66 143 48 49-12 128-35 183-63 38-19 36-69 44-119 17-114 31-247 31-354 0-57 26-85 79-85 37 0 55 27 55 81 0 190-34 397-59 573 4 31 20 93-13 105-8 10-30 7-65-8-16-20-33-38-51-54C397-48 305 0 205 0 79 0 5-43 13-176c13-196 50-391 93-561" id="p"/><path fill="#3a414a" d="M241-1c89-9 265-42 213 87-19 47-79 30-136 38-61 8-140 8-212 8-58 0-95-35-94-93-2-9 22-38 33-35 70-1 130 2 196-5" id="q"/><path fill="#3a414a" d="M109-735c-25-57-110-11-99 37 30 130 91 291 122 410 18 69 44 132 72 190 44 90 75 116 148 73 102-105 149-290 208-441 32-82 48-168 48-261 0-51-15-77-46-77-38 0-59 34-73 100-35 160-89 312-149 454-40 95-58 66-91-37-28-90-54-179-79-263-24-79-42-141-61-185" id="r"/><path fill="#3a414a" d="M19-91c0-222 71-428 58-668-3-62 121-44 170-33 118 27 229 50 293 128 44 53 63 97 63 217 0 165-189 328-383 400-36 13-62 45-108 45-66 0-93-23-93-89zm185-582c-30 151-43 322-58 489 5 39 27 28 60 14 129-54 276-147 276-304 0-155-106-203-278-199" id="s"/><g id="b"><use transform="matrix(0.03555555555555543,0,0,0.03555555555555543,0,0)" xlink:href="#p"/><use transform="matrix(0.03555555555555543,0,0,0.03555555555555543,24.995555555555466,0)" xlink:href="#l"/><use transform="matrix(0.03555555555555543,0,0,0.03555555555555543,45.048888888888726,0)" xlink:href="#q"/><use transform="matrix(0.03555555555555543,0,0,0.03555555555555543,61.973333333333116,0)" xlink:href="#r"/><use transform="matrix(0.03555555555555543,0,0,0.03555555555555543,83.8399999999997,0)" xlink:href="#n"/><use transform="matrix(0.03555555555555543,0,0,0.03555555555555543,105.7066666666663,0)" xlink:href="#s"/></g><path fill="#3a414a" d="M103-24C79 10-2-14 8-59c42-186 129-353 193-524 23-62 63-135 99-197 39-38 106-10 109 47 27 100 51 209 81 307 8 25 72 24 72 63 0 44-26 46-37 75 12 83 46 156 55 243 7 63-106 47-114 11-13-58-36-170-57-231-3-4-7-8-9-14-69 4-134 40-198 52-53 21-53 108-81 160-4 16-8 29-18 43zm215-551c-16 18-92 195-73 208 46 2 100-12 123-31-5-30-32-162-38-171-2-3-6-5-12-6" id="t"/><path fill="#3a414a" d="M593-790c58 0 99 54 77 117-5 13-15 16-35 14-70-7-152-3-229 7-31 20-24 81-26 127-4 138-16 277-16 422 0 32 4 70-21 83-26 36-88 7-103-20 1-182 10-346 21-521 2-27 11-81-18-84-73-7-138 11-206 3-20-18-39-18-32-51-3-78 74-91 145-91 129 0 251 6 369-8 25-3 49 2 74 2" id="u"/><g id="c"><use transform="matrix(0.03555555555555546,0,0,0.03555555555555546,0,0)" xlink:href="#p"/><use transform="matrix(0.03555555555555546,0,0,0.03555555555555546,24.995555555555487,0)" xlink:href="#l"/><use transform="matrix(0.03555555555555546,0,0,0.03555555555555546,45.04888888888877,0)" xlink:href="#q"/><use transform="matrix(0.03555555555555546,0,0,0.03555555555555546,61.973333333333166,0)" xlink:href="#s"/><use transform="matrix(0.03555555555555546,0,0,0.03555555555555546,83.44888888888866,0)" xlink:href="#t"/><use transform="matrix(0.03555555555555546,0,0,0.03555555555555546,104.31999999999971,0)" xlink:href="#u"/><use transform="matrix(0.03555555555555546,0,0,0.03555555555555546,129.88444444444409,0)" xlink:href="#t"/></g><path fill="#3a414a" d="M608-642l-20 77c-36 56-69 94-113 138-49 48-58 40-29 81 33 46 69 89 97 147 44 89 52 141 40 147-3 38-20 49-63 52-68 5-97-106-129-160-40-68-56-162-144-164-53-1-27 78-45 121-7 56-12 123-28 170C157-4 113 24 66-1 46-11 40-39 49-87c19-111 19-139 19-313 0-144 1-187-40-242-27-37-13-94 26-108 103-36 250-59 389-41 63 8 182 85 165 149zm-140 11c-10-39-42-58-96-57-53 12-154 21-179 43-5 9-8 31-8 65 0 151 19 135 127 94 94-36 148-79 156-145" id="v"/><path fill="#3a414a" d="M192-85c-3 48 46 100 89 72 52-75 73-232 102-321 46-139 146-233 278-374 22-37 2-105-46-93-81 20-199 174-252 246-53 73-46 65-110 7-63-57-96-136-132-220-11-25-31-37-54-37-36-1-56 32-56 68 32 142 118 264 224 332 15 16 24 24 21 38" id="w"/><g id="d"><use transform="matrix(0.03555555555555543,0,0,0.03555555555555543,0,0)" xlink:href="#p"/><use transform="matrix(0.03555555555555543,0,0,0.03555555555555543,24.995555555555466,0)" xlink:href="#l"/><use transform="matrix(0.03555555555555543,0,0,0.03555555555555543,45.048888888888726,0)" xlink:href="#q"/><use transform="matrix(0.03555555555555543,0,0,0.03555555555555543,61.973333333333116,0)" xlink:href="#v"/><use transform="matrix(0.03555555555555543,0,0,0.03555555555555543,83.94666666666637,0)" xlink:href="#s"/><use transform="matrix(0.03555555555555543,0,0,0.03555555555555543,105.42222222222185,0)" xlink:href="#w"/></g><path fill="#3a414a" d="M722-498c18-70 6-160 6-241 0-38 16-57 49-57 55 0 82 64 82 193 1 204-63 347-126 491-54 125-124 110-196 9-30-42-54-91-82-146-27-53-43-79-49-79-8-17-88 136-114 182C269-106 193 9 170-1 96-15 86-47 66-129 33-267 17-480 18-657c0-70 18-105 54-105 39 0 66 36 68 87 4 137-4 277 12 406 12 100 67-12 84-47 47-96 102-197 139-285 18-41 78-38 96-4 52 97 51 251 110 344 50 78 71 31 104-70 17-53 22-108 37-167" id="x"/><g id="e"><use transform="matrix(0.03555555555555546,0,0,0.03555555555555546,0,0)" xlink:href="#s"/><use transform="matrix(0.03555555555555546,0,0,0.03555555555555546,21.4755555555555,0)" xlink:href="#x"/><use transform="matrix(0.03555555555555546,0,0,0.03555555555555546,52.33777777777763,0)" xlink:href="#o"/><use transform="matrix(0.03555555555555546,0,0,0.03555555555555546,75.12888888888868,0)" xlink:href="#q"/><use transform="matrix(0.03555555555555546,0,0,0.03555555555555546,92.05333333333309,0)" xlink:href="#r"/><use transform="matrix(0.03555555555555546,0,0,0.03555555555555546,113.91999999999969,0)" xlink:href="#n"/><use transform="matrix(0.03555555555555546,0,0,0.03555555555555546,135.7866666666663,0)" xlink:href="#s"/></g><g id="f"><use transform="matrix(0.03555555555555546,0,0,0.03555555555555546,0,0)" xlink:href="#s"/><use transform="matrix(0.03555555555555546,0,0,0.03555555555555546,21.4755555555555,0)" xlink:href="#x"/><use transform="matrix(0.03555555555555546,0,0,0.03555555555555546,52.33777777777763,0)" xlink:href="#o"/><use transform="matrix(0.03555555555555546,0,0,0.03555555555555546,75.12888888888868,0)" xlink:href="#q"/><use transform="matrix(0.03555555555555546,0,0,0.03555555555555546,92.05333333333309,0)" xlink:href="#v"/><use transform="matrix(0.03555555555555546,0,0,0.03555555555555546,114.02666666666636,0)" xlink:href="#s"/><use transform="matrix(0.03555555555555546,0,0,0.03555555555555546,135.50222222222186,0)" xlink:href="#w"/></g><g id="g"><use transform="matrix(0.03555555555555546,0,0,0.03555555555555546,0,0)" xlink:href="#s"/><use transform="matrix(0.03555555555555546,0,0,0.03555555555555546,21.4755555555555,0)" xlink:href="#x"/><use transform="matrix(0.03555555555555546,0,0,0.03555555555555546,52.33777777777763,0)" xlink:href="#o"/><use transform="matrix(0.03555555555555546,0,0,0.03555555555555546,75.12888888888868,0)" xlink:href="#q"/><use transform="matrix(0.03555555555555546,0,0,0.03555555555555546,92.05333333333309,0)" xlink:href="#s"/><use transform="matrix(0.03555555555555546,0,0,0.03555555555555546,113.52888888888859,0)" xlink:href="#t"/><use transform="matrix(0.03555555555555546,0,0,0.03555555555555546,134.39999999999964,0)" xlink:href="#u"/><use transform="matrix(0.03555555555555546,0,0,0.03555555555555546,159.964444444444,0)" xlink:href="#t"/></g><path fill="#3a414a" d="M371-533c189 0 256 55 239 237-9 91-67 138-157 205C374-33 301-7 236-7 155-7 13-82 18-160c3-44 62-73 96-38 43 44 152 73 218 29 77-51 166-125 156-169 2-44-67-63-119-62-47 1-108 1-155 3C87-393 13-429 1-531c11-87 101-150 165-187 90-52 160-96 290-87 34 2 118 78 115 115-3 35-23 38-55 45-15 4-26-4-33-24-37-64-116-1-164 12-41 11-154 77-154 113 0 15 14 22 41 22 45 0 127-11 165-11" id="y"/><path fill="#3a414a" d="M629-645c28 177 9 401 28 582 3 29-18 50-47 50-97 0-67-194-71-306-1-24-4-66-3-92 1-39-15-57-30-33-49 79-88 161-139 243-9 15-21 23-34 23-33 0-70-69-89-115-10-23-57-152-73-152-28 0-27 119-31 162-9 93-16 174-27 265-2 3-35 21-48 20-71-3-50-117-43-176 24-211 38-410 84-595 39-67 121 2 138 59 22 73 63 167 84 249 7 23 13 34 20 34 17 0 54-75 107-225 17-48 42-155 115-96 31 25 52 57 59 103" id="z"/><g id="h"><use transform="matrix(0.0444444444444444,0,0,0.0444444444444444,0,0)" xlink:href="#p"/><use transform="matrix(0.0444444444444444,0,0,0.0444444444444444,31.24444444444441,0)" xlink:href="#l"/><use transform="matrix(0.0444444444444444,0,0,0.0444444444444444,56.31111111111105,0)" xlink:href="#y"/><use transform="matrix(0.0444444444444444,0,0,0.0444444444444444,84.35555555555547,0)" xlink:href="#u"/><use transform="matrix(0.0444444444444444,0,0,0.0444444444444444,116.31111111111099,0)" xlink:href="#v"/><use transform="matrix(0.0444444444444444,0,0,0.0444444444444444,143.77777777777763,0)" xlink:href="#m"/><use transform="matrix(0.0444444444444444,0,0,0.0444444444444444,173.3777777777776,0)" xlink:href="#t"/><use transform="matrix(0.0444444444444444,0,0,0.0444444444444444,199.46666666666647,0)" xlink:href="#z"/></g><path fill="#3a414a" d="M44-443c79-191 208-366 448-366 141 0 239 118 267 253 46 222-61 413-213 490-83 42-221 78-338 30-55-23-106-43-129-82-26-14-80-140-57-202 2-41 8-89 22-123zm103 115c1 136 75 191 208 191 130 0 180-50 241-135 38-53 55-111 55-169 0-109-73-236-179-227-143 12-260 151-311 271-9 24-14 47-14 69" id="A"/><g id="i"><use transform="matrix(0.04444444444444439,0,0,0.04444444444444439,0,0)" xlink:href="#s"/><use transform="matrix(0.04444444444444439,0,0,0.04444444444444439,26.844444444444413,0)" xlink:href="#A"/><use transform="matrix(0.04444444444444439,0,0,0.04444444444444439,62.53333333333326,0)" xlink:href="#x"/><use transform="matrix(0.04444444444444439,0,0,0.04444444444444439,101.11111111111101,0)" xlink:href="#o"/><use transform="matrix(0.04444444444444439,0,0,0.04444444444444439,129.59999999999985,0)" xlink:href="#y"/><use transform="matrix(0.04444444444444439,0,0,0.04444444444444439,157.64444444444428,0)" xlink:href="#u"/><use transform="matrix(0.04444444444444439,0,0,0.04444444444444439,189.59999999999982,0)" xlink:href="#v"/><use transform="matrix(0.04444444444444439,0,0,0.04444444444444439,217.06666666666644,0)" xlink:href="#m"/><use transform="matrix(0.04444444444444439,0,0,0.04444444444444439,246.6666666666664,0)" xlink:href="#t"/><use transform="matrix(0.04444444444444439,0,0,0.04444444444444439,272.75555555555525,0)" xlink:href="#z"/></g></defs></g></svg>