<svg xmlns="http://www.w3.org/2000/svg" xmlns:xlink="http://www.w3.org/1999/xlink" xmlns:lucid="lucid" width="4046.34" height="2968.5"><g transform="translate(181.5 -338.5)" lucid:page-tab-id="0_0"><path d="M-500 0h4500v3500H-500z" fill="#f2f3f5"/><path d="M2660.68 927.33a6 6 0 0 1 6-6H2968a6 6 0 0 1 6 6V1318a6 6 0 0 1-6 6H2666.7a6 6 0 0 1-6-6z" stroke="#54c45e" stroke-width="10" fill="#c3f7c8"/><use xlink:href="#a" transform="matrix(1,0,0,1,2676.3446466633877,941.4666666666666) translate(104.63333333333333 214.72500000000002)"/><path d="M2796.15 1318.7a3.6 3.6 0 0 0 3.2 5.3h36a3.6 3.6 0 0 0 3.2-5.3l-18.4-34.73a3.18 3.18 0 0 0-5.6 0z" stroke="#54c45e" stroke-width="10" fill="#fff"/><path d="M2674 2743.27a6 6 0 0 1 6-6h301.34a6 6 0 0 1 6 6v390.66a6 6 0 0 1-6 6H2680a6 6 0 0 1-6-6z" stroke="#54c45e" stroke-width="10" fill="#c3f7c8"/><use xlink:href="#a" transform="matrix(1,0,0,1,2689.6779799967208,2757.3999999999996) translate(104.63333333333333 214.72500000000002)"/><path d="M2809.5 3134.63a3.6 3.6 0 0 0 3.18 5.3h36a3.6 3.6 0 0 0 3.2-5.3l-18.4-34.73a3.18 3.18 0 0 0-5.6 0z" stroke="#54c45e" stroke-width="10" fill="#fff"/><path d="M709.33 830.73h160v402.67h-160z" fill="none"/><path d="M741.33 830.73v402.67l96-80.53v-241.6z" stroke="#3a414a" stroke-width="6" fill="#fc9432"/><path d="M837.33 1032.07h32M789.33 1193.13v40.27M741.33 941.47h-32M741.33 1122.67h-32" stroke="#3a414a" stroke-width="6" fill="none"/><path d="M2222.68 921.33h160V1324h-160z" fill="none"/><path d="M2254.68 921.33V1324l96-80.53v-241.6z" stroke="#3a414a" stroke-width="6" fill="#fc9432"/><path d="M2350.68 1122.67h32M2302.68 1283.73V1324M2254.68 1032.07h-32M2254.68 1213.27h-32" stroke="#3a414a" stroke-width="6" fill="none"/><path d="M2236 3139.93h160v-402.66h-160z" fill="none"/><path d="M2268 3139.93v-402.66l96 80.53v241.6z" stroke="#3a414a" stroke-width="6" fill="#fc9432"/><path d="M2364 2938.6h32M2316 2777.53v-40.26M2268 3029.2h-32M2268 2848h-32M2385.68 1122.67h267" stroke="#3a414a" stroke-width="6" fill="none"/><path d="M2385.76 1125.64h-3.08v-5.95h3.08zM2655.68 1125.64h-3.08v-5.95h3.08z" stroke="#3a414a" stroke-width=".05" fill="#3a414a"/><path d="M2399 2938.6h267" stroke="#3a414a" stroke-width="6" fill="none"/><path d="M2399.1 2941.57h-3.1v-5.95h3.1zM2669 2941.57h-3.07v-5.95h3.08z" stroke="#3a414a" stroke-width=".05" fill="#3a414a"/><path d="M2922 1884.58v-160h-48v160zM2730 1884.58v-160h-48v160z" fill="none"/><path d="M2850 1804.58h72zm-120 0h-48zm120 80l-96-80 96-80zm-120-80c0-6.4 4.8-12.8 12-12.8s12 6.4 12 12.8-4.8 12.8-12 12.8-12-6.4-12-12.8" stroke="#3a414a" stroke-width="6" fill="#fff"/><path d="M-160 1086a6 6 0 0 1 6-6H72.67a6 6 0 0 1 6 6v70.44a6 6 0 0 1-6 6H-154a6 6 0 0 1-6-6z" stroke="#000" stroke-opacity="0" stroke-width="3" fill="#fff" fill-opacity="0"/><use xlink:href="#b" transform="matrix(1,0,0,1,-155,1085) translate(24.280111111111168 61.75524999999996)"/><path d="M-160 2218.78a6 6 0 0 1 6-6H72.67a6 6 0 0 1 6 6v70.44a6 6 0 0 1-6 6H-154a6 6 0 0 1-6-6z" stroke="#000" stroke-opacity="0" stroke-width="3" fill="#fff" fill-opacity="0"/><use xlink:href="#c" transform="matrix(1,0,0,1,-155,2217.780886073175) translate(22.74155555555562 61.75524999999996)"/><path d="M-160 2903.38a6 6 0 0 1 6-6H72.67a6 6 0 0 1 6 6v70.44a6 6 0 0 1-6 6H-154a6 6 0 0 1-6-6z" stroke="#000" stroke-opacity="0" stroke-width="3" fill="#fff" fill-opacity="0"/><use xlink:href="#d" transform="matrix(1,0,0,1,-155,2902.38088888889) translate(7.557777777777844 61.75524999999996)"/><path d="M3525.34 2903.38a6 6 0 0 1 6-6h275.34a6 6 0 0 1 6 6v70.44a6 6 0 0 1-6 6h-275.34a6 6 0 0 1-6-6z" stroke="#000" stroke-opacity="0" stroke-width="3" fill="#fff" fill-opacity="0"/><use xlink:href="#e" transform="matrix(1,0,0,1,3530.3446466633873,2902.380888888889) translate(10.719777777777864 61.75524999999996)"/><path d="M3525.34 2206.1a6 6 0 0 1 6-6h275.34a6 6 0 0 1 6 6v70.45a6 6 0 0 1-6 6h-275.34a6 6 0 0 1-6-6z" stroke="#000" stroke-opacity="0" stroke-width="3" fill="#fff" fill-opacity="0"/><use xlink:href="#f" transform="matrix(1,0,0,1,3530.3446466633873,2205.114222222222) translate(25.90355555555564 61.75524999999996)"/><path d="M3556 1087.45a6 6 0 0 1 6-6h275.34a6 6 0 0 1 6 6v70.44a6 6 0 0 1-6 6H3562a6 6 0 0 1-6-6z" stroke="#000" stroke-opacity="0" stroke-width="3" fill="#fff" fill-opacity="0"/><use xlink:href="#g" transform="matrix(1,0,0,1,3561.0113133300542,1086.4475555555555) translate(27.44211111111119 61.75524999999996)"/><path d="M1280 366a6 6 0 0 1 6-6h1228a6 6 0 0 1 6 6v204.3a6 6 0 0 1-6 6H1286a6 6 0 0 1-6-6z" stroke="#000" stroke-opacity="0" stroke-width="3" fill="#fff" fill-opacity="0"/><use xlink:href="#h" transform="matrix(1,0,0,1,1285,365) translate(367.52966666666697 140.0439999999999)"/><use xlink:href="#i" transform="matrix(1,0,0,1,1285,365) translate(582.6854444444444 140.0439999999999)"/><path d="M1069.33 836.73a6 6 0 0 1 6-6h301.34a6 6 0 0 1 6 6v390.67a6 6 0 0 1-6 6h-301.34a6 6 0 0 1-6-6z" stroke="#54c45e" stroke-width="10" fill="#c3f7c8"/><use xlink:href="#a" transform="matrix(1,0,0,1,1085.0000000000011,850.8666666163066) translate(104.63333333333333 214.72500000000002)"/><path d="M1743.67 1032.07h-353" stroke="#3a414a" stroke-width="6" fill="none"/><path d="M1746.67 1035.04h-3.08v-5.95h3.07zM1390.74 1035.04h-3.07v-5.95h3.07z" stroke="#3a414a" stroke-width=".05" fill="#3a414a"/><path d="M1459.33 1046a6 6 0 0 1 6-6h275.34a6 6 0 0 1 6 6v70.44a6 6 0 0 1-6 6h-275.34a6 6 0 0 1-6-6z" stroke="#000" stroke-opacity="0" stroke-width="3" fill="#fff" fill-opacity="0"/><use xlink:href="#j" transform="matrix(1,0,0,1,1464.3333333333335,1045) translate(32.83966666666673 61.75524999999996)"/><path d="M872.33 1032.07h189" stroke="#3a414a" stroke-width="6" fill="none"/><path d="M872.4 1035.04h-3.07v-5.95h3.08zM1064.33 1035.04h-3.07v-5.95h3.07z" stroke="#3a414a" stroke-width=".05" fill="#3a414a"/><path d="M706.33 941.47H502a24 24 0 0 1-24-24V704a24 24 0 0 1 24-24h1078a24 24 0 0 1 24 24v325.07" stroke="#3a414a" stroke-width="6" fill="none"/><path d="M709.33 944.44h-3.07v-5.95h3.07z" stroke="#3a414a" stroke-width=".05" fill="#3a414a"/><path d="M1604 1029v3.07M706.33 1122.67H81.67" stroke="#3a414a" stroke-width="6" fill="none"/><path d="M709.33 1125.64h-3.07v-5.95h3.07zM81.74 1125.64h-3.07v-5.95h3.07z" stroke="#3a414a" stroke-width=".05" fill="#3a414a"/><path d="M1743.67 1213.27H1628a24 24 0 0 0-24 24V1496a24 24 0 0 1-24 24H502a24 24 0 0 1-24-24v-370.33" stroke="#3a414a" stroke-width="6" fill="none"/><path d="M1746.67 1216.24h-3.08v-5.95h3.07z" stroke="#3a414a" stroke-width=".05" fill="#3a414a"/><path d="M478 1125.74v-3.07" stroke="#3a414a" stroke-width="6" fill="none"/><path d="M2645.34 2046a6 6 0 0 1 6-6h301.34a6 6 0 0 1 6 6v390.67a6 6 0 0 1-6 6h-301.34a6 6 0 0 1-6-6z" stroke="#54c45e" stroke-width="10" fill="#c3f7c8"/><use xlink:href="#a" transform="matrix(1,0,0,1,2661.011313330054,2060.133333333333) translate(104.63333333333333 214.72500000000002)"/><path d="M2982.02 1122.67h556.53" stroke="#3a414a" stroke-width="6" stroke-linejoin="round" fill="none"/><path d="M2982.1 1125.64h-3.1v-5.95h3.1z" stroke="#3a414a" stroke-width=".05" fill="#3a414a"/><path d="M3550.12 1122.67l-12.9 7.63v-15.27z" stroke="#3a414a" stroke-width="6" fill="#3a414a"/><path d="M3522.34 2241.33h-541.2" stroke="#3a414a" stroke-width="6" stroke-linejoin="round" fill="none"/><path d="M3525.34 2244.3h-3.08v-5.94h3.08z" stroke="#3a414a" stroke-width=".05" fill="#3a414a"/><path d="M2969.57 2241.33l12.9-7.63v15.27z" stroke="#3a414a" stroke-width="6" fill="#3a414a"/><path d="M2637.3 2254H96.14" stroke="#3a414a" stroke-width="6" stroke-linejoin="round" fill="none"/><path d="M2640.34 2256.97h-3.1v-5.94h3.1z" stroke="#3a414a" stroke-width=".05" fill="#3a414a"/><path d="M84.56 2254l12.9-7.64v15.28z" stroke="#3a414a" stroke-width="6" fill="#3a414a"/><path d="M1321.8 1764.58v160h-48v-160zM1129.8 1764.58v160h-48v-160z" fill="none"/><path d="M1254.6 1804.58h67.2m-67.2 80h67.2zm-108-40h-64.8zm108-80v160h-52.8c-31.2 0-55.2-35.2-55.2-80 0-43.2 24-80 55.2-80h52.8z" stroke="#3a414a" stroke-width="6" fill="#fff"/><path d="M2679 1804.58H1324.8" stroke="#3a414a" stroke-width="6" fill="none"/><path d="M2682 1807.56h-3.07v-5.95h3.08zM1324.86 1807.56h-3.07v-5.95h3.06z" stroke="#3a414a" stroke-width=".05" fill="#3a414a"/><path d="M1069.33 2646a6 6 0 0 1 6-6h301.34a6 6 0 0 1 6 6v390.67a6 6 0 0 1-6 6h-301.34a6 6 0 0 1-6-6z" stroke="#54c45e" stroke-width="10" fill="#c3f7c8"/><use xlink:href="#a" transform="matrix(1,0,0,1,1085.0000000000014,2660.1333333333328) translate(104.63333333333333 214.72500000000002)"/><path d="M1743.67 2848h-353" stroke="#3a414a" stroke-width="6" fill="none"/><path d="M1746.67 2850.97h-3.08v-5.94h3.07zM1390.74 2850.97h-3.07v-5.94h3.07z" stroke="#3a414a" stroke-width=".05" fill="#3a414a"/><path d="M2995.35 2938.6h512.53" stroke="#3a414a" stroke-width="6" stroke-linejoin="round" fill="none"/><path d="M2995.43 2941.57h-3.1v-5.95h3.1z" stroke="#3a414a" stroke-width=".05" fill="#3a414a"/><path d="M3519.45 2938.6l-12.9 7.64v-15.28z" stroke="#3a414a" stroke-width="6" fill="#3a414a"/><path d="M1421 2886a6 6 0 0 1 6-6h275.33a6 6 0 0 1 6 6v70.44a6 6 0 0 1-6 6H1427a6 6 0 0 1-6-6z" stroke="#000" stroke-opacity="0" stroke-width="3" fill="#fff" fill-opacity="0"/><use xlink:href="#k" transform="matrix(1,0,0,1,1426.0000000000007,2885) translate(16.117333333333406 61.75524999999996)"/><path d="M709.33 3042.67h160V2640h-160z" fill="none"/><path d="M741.33 3042.67V2640l96 80.53v241.6z" stroke="#3a414a" stroke-width="6" fill="#fc9432"/><path d="M837.33 2841.33h32M789.33 2680.27V2640M741.33 2931.93h-32M741.33 2750.73h-32M872.33 2841.33h189" stroke="#3a414a" stroke-width="6" fill="none"/><path d="M872.4 2844.3h-3.07v-5.94h3.08zM1064.33 2844.3h-3.07v-5.94h3.07z" stroke="#3a414a" stroke-width=".05" fill="#3a414a"/><path d="M789.33 2640" stroke="#3a414a" stroke-width="6" fill="none"/><path stroke="#3a414a" stroke-width=".05" fill="#3a414a"/><path stroke="#3a414a" stroke-width=".05" fill="#3a414a"/><path d="M1078.8 1844.58H792.32" stroke="#3a414a" stroke-width="6" fill="none"/><path d="M1081.8 1847.56h-3.1v-5.95h3.1z" stroke="#3a414a" stroke-width=".05" fill="#3a414a"/><path d="M792.4 1844.58h-3.07M706.33 2750.73H502a24 24 0 0 1-24-24V2484a24 24 0 0 1 24-24h1043.88a24 24 0 0 1 24 24v361" stroke="#3a414a" stroke-width="6" fill="none"/><path d="M709.33 2753.7h-3.07v-5.94h3.07z" stroke="#3a414a" stroke-width=".05" fill="#3a414a"/><path d="M1569.88 2844.92v3.08M706.33 2931.93H81.67" stroke="#3a414a" stroke-width="6" fill="none"/><path d="M709.33 2934.9h-3.07v-5.94h3.07zM81.75 2934.9h-3.08v-5.94h3.08z" stroke="#3a414a" stroke-width=".05" fill="#3a414a"/><path d="M1743.67 3029.2h-13a24 24 0 0 0-24 24V3276a24 24 0 0 1-24 24H511.07a24 24 0 0 1-24-24v-341.07" stroke="#3a414a" stroke-width="6" fill="none"/><path d="M1746.67 3032.18h-3.08v-5.95h3.07z" stroke="#3a414a" stroke-width=".05" fill="#3a414a"/><path d="M487.07 2935v-3.07M2316 2734.27V2544a24 24 0 0 1 24-24h904.24a24 24 0 0 0 24-24v-251.67" stroke="#3a414a" stroke-width="6" fill="none"/><path d="M2319 2737.27h-5.96v-3.08h5.95z" stroke="#3a414a" stroke-width=".05" fill="#3a414a"/><path d="M3268.24 2244.4v-3.07M1324.8 1884.58h885.82a24 24 0 0 1 24 24V2251" stroke="#3a414a" stroke-width="6" fill="none"/><path d="M1324.86 1887.56h-3.07v-5.95h3.06z" stroke="#3a414a" stroke-width=".05" fill="#3a414a"/><path d="M2234.62 2250.92v3.08M2302.68 1327v169a24 24 0 0 0 24 24h917.56a24 24 0 0 1 24 24v694.33" stroke="#3a414a" stroke-width="6" fill="none"/><path d="M2305.65 1327.08h-5.95V1324h5.95z" stroke="#3a414a" stroke-width=".05" fill="#3a414a"/><path d="M3268.24 2238.26v3.07M2925 1804.58h340.24" stroke="#3a414a" stroke-width="6" fill="none"/><path d="M2925.1 1807.56h-3.1v-5.95h3.1z" stroke="#3a414a" stroke-width=".05" fill="#3a414a"/><path d="M3265.16 1804.58h3.08" stroke="#3a414a" stroke-width="6" fill="none"/><path d="M1746.67 921.33h160V1324h-160z" fill="none"/><path d="M1778.67 921.33V1324l96-80.53v-241.6z" stroke="#3a414a" stroke-width="6" fill="#fc9432"/><path d="M1874.67 1122.67h32M1826.67 1283.73V1324M1778.67 1032.07h-32M1778.67 1213.27h-32M789.33 1236.4V2637" stroke="#3a414a" stroke-width="6" fill="none"/><path d="M792.3 1236.48h-5.94v-3.08h5.95z" stroke="#3a414a" stroke-width=".05" fill="#3a414a"/><path d="M789.33 2636.92v3.08M2219.68 1032.07H2124a24 24 0 0 1-24-24V704a24 24 0 0 1 24-24h1106.07a24 24 0 0 1 24 24v415.67" stroke="#3a414a" stroke-width="6" fill="none"/><path d="M2222.68 1035.04h-3.08v-5.95h3.08z" stroke="#3a414a" stroke-width=".05" fill="#3a414a"/><path d="M3254.07 1119.6v3.07M1909.67 1122.67h131a24 24 0 0 1 24 24v42.6a24 24 0 0 0 24 24h131" stroke="#3a414a" stroke-width="6" fill="none"/><path d="M1909.74 1125.64h-3.07v-5.95h3.07zM2222.68 1216.24h-3.08v-5.95h3.08z" stroke="#3a414a" stroke-width=".05" fill="#3a414a"/><path d="M1826.67 1327v924" stroke="#3a414a" stroke-width="6" fill="none"/><path d="M1829.64 1327.08h-5.95V1324h5.94z" stroke="#3a414a" stroke-width=".05" fill="#3a414a"/><path d="M1826.67 2250.92v3.08" stroke="#3a414a" stroke-width="6" fill="none"/><path d="M1746.67 3139.93h160v-402.66h-160z" fill="none"/><path d="M1778.67 3139.93v-402.66l96 80.53v241.6z" stroke="#3a414a" stroke-width="6" fill="#fc9432"/><path d="M1874.67 2938.6h32M1826.67 2777.53v-40.26M1778.67 3029.2h-32M1778.67 2848h-32M1909.67 2938.6h137.67a24 24 0 0 1 24 24v42.6a24 24 0 0 0 24 24H2233" stroke="#3a414a" stroke-width="6" fill="none"/><path d="M1909.74 2941.57h-3.07v-5.95h3.07zM2236 3032.18h-3.07v-5.95h3.08z" stroke="#3a414a" stroke-width=".05" fill="#3a414a"/><path d="M1826.67 2734.27V2257" stroke="#3a414a" stroke-width="6" fill="none"/><path d="M1829.64 2737.27h-5.95v-3.08h5.94z" stroke="#3a414a" stroke-width=".05" fill="#3a414a"/><path d="M1826.67 2257.08V2254M2233 2848h-109a24 24 0 0 1-24-24v-160a24 24 0 0 1 24-24h1124.48a24 24 0 0 1 24 24v271.6" stroke="#3a414a" stroke-width="6" fill="none"/><path d="M2236 2850.97h-3.07v-5.94h3.08z" stroke="#3a414a" stroke-width=".05" fill="#3a414a"/><path d="M3272.48 2935.52v3.08" stroke="#3a414a" stroke-width="6" fill="none"/><defs><path d="M39-49c-7-93 9-204-6-289-18-30-12-41 1-77 37-27 19-97 25-162 2-23-27-37-49-40-11-18-14-56 0-71 17-39 273-99 376-109 72-7 163-32 165 45 1 65-62 51-115 66-63 18-176 24-229 55-41 23-20 107-25 176 83-2 166-25 259-33 74-6 91 70 44 97-80 23-228 35-304 57-18 6-27 18-27 35-9 45 6 274-42 299-35 2-92-5-73-49" id="l"/><g id="a"><use transform="matrix(0.06666666666666667,0,0,0.06666666666666667,0,0)" xlink:href="#l"/><use transform="matrix(0.06666666666666667,0,0,0.06666666666666667,36.86666666666667,0)" xlink:href="#l"/></g><path d="M106-737c41-53 131 12 108 86-42 139-71 285-71 455 0 88 72 66 143 48 49-12 128-35 183-63 38-19 36-69 44-119 17-114 31-247 31-354 0-57 26-85 79-85 37 0 55 27 55 81 0 190-34 397-59 573 4 31 20 93-13 105-8 10-30 7-65-8-16-20-33-38-51-54C397-48 305 0 205 0 79 0 5-43 13-176c13-196 50-391 93-561" id="m"/><path d="M23-677c-68-88 127-122 212-122 113 0 253 24 291 82 92 144-48 310-153 365-52 27-102 48-161 69-56 20-53 15-58 80-4 49-8 103-13 153-3 31-19 46-43 46-44 0-65-28-63-81 5-162 8-330 16-486 3-53-4-75-28-106zm415 73c0-44-44-66-132-66-78 0-124 8-135 26-10 16-14 89-14 218 0 44 22 39 57 25 83-34 224-115 224-203" id="n"/><path d="M241-1c89-9 265-42 213 87-19 47-79 30-136 38-61 8-140 8-212 8-58 0-95-35-94-93-2-9 22-38 33-35 70-1 130 2 196-5" id="o"/><path d="M109-735c-25-57-110-11-99 37 30 130 91 291 122 410 18 69 44 132 72 190 44 90 75 116 148 73 102-105 149-290 208-441 32-82 48-168 48-261 0-51-15-77-46-77-38 0-59 34-73 100-35 160-89 312-149 454-40 95-58 66-91-37-28-90-54-179-79-263-24-79-42-141-61-185" id="p"/><path d="M21-302C-7-136 9 24 196-12c147-28 263-93 386-142 57-23 26-120-26-120-111 32-240 115-378 126-13 1-22-26-25-45 30-174 59-350 88-524 10-62-86-124-120-61-39 73-49 196-69 277-19 77-22 145-31 199" id="q"/><path d="M19-91c0-222 71-428 58-668-3-62 121-44 170-33 118 27 229 50 293 128 44 53 63 97 63 217 0 165-189 328-383 400-36 13-62 45-108 45-66 0-93-23-93-89zm185-582c-30 151-43 322-58 489 5 39 27 28 60 14 129-54 276-147 276-304 0-155-106-203-278-199" id="r"/><g id="b"><use transform="matrix(0.05044444444444441,0,0,0.05044444444444441,0,0)" xlink:href="#m"/><use transform="matrix(0.05044444444444441,0,0,0.05044444444444441,35.46244444444442,0)" xlink:href="#n"/><use transform="matrix(0.05044444444444441,0,0,0.05044444444444441,63.913111111111064,0)" xlink:href="#o"/><use transform="matrix(0.05044444444444441,0,0,0.05044444444444441,87.92466666666661,0)" xlink:href="#p"/><use transform="matrix(0.05044444444444441,0,0,0.05044444444444441,118.94799999999992,0)" xlink:href="#q"/><use transform="matrix(0.05044444444444441,0,0,0.05044444444444441,149.97133333333323,0)" xlink:href="#r"/></g><path d="M608-642l-20 77c-36 56-69 94-113 138-49 48-58 40-29 81 33 46 69 89 97 147 44 89 52 141 40 147-3 38-20 49-63 52-68 5-97-106-129-160-40-68-56-162-144-164-53-1-27 78-45 121-7 56-12 123-28 170C157-4 113 24 66-1 46-11 40-39 49-87c19-111 19-139 19-313 0-144 1-187-40-242-27-37-13-94 26-108 103-36 250-59 389-41 63 8 182 85 165 149zm-140 11c-10-39-42-58-96-57-53 12-154 21-179 43-5 9-8 31-8 65 0 151 19 135 127 94 94-36 148-79 156-145" id="s"/><path d="M192-85c-3 48 46 100 89 72 52-75 73-232 102-321 46-139 146-233 278-374 22-37 2-105-46-93-81 20-199 174-252 246-53 73-46 65-110 7-63-57-96-136-132-220-11-25-31-37-54-37-36-1-56 32-56 68 32 142 118 264 224 332 15 16 24 24 21 38" id="t"/><g id="c"><use transform="matrix(0.05044444444444441,0,0,0.05044444444444441,0,0)" xlink:href="#m"/><use transform="matrix(0.05044444444444441,0,0,0.05044444444444441,35.46244444444442,0)" xlink:href="#n"/><use transform="matrix(0.05044444444444441,0,0,0.05044444444444441,63.913111111111064,0)" xlink:href="#o"/><use transform="matrix(0.05044444444444441,0,0,0.05044444444444441,87.92466666666661,0)" xlink:href="#s"/><use transform="matrix(0.05044444444444441,0,0,0.05044444444444441,119.09933333333325,0)" xlink:href="#r"/><use transform="matrix(0.05044444444444441,0,0,0.05044444444444441,149.56777777777768,0)" xlink:href="#t"/></g><path d="M103-24C79 10-2-14 8-59c42-186 129-353 193-524 23-62 63-135 99-197 39-38 106-10 109 47 27 100 51 209 81 307 8 25 72 24 72 63 0 44-26 46-37 75 12 83 46 156 55 243 7 63-106 47-114 11-13-58-36-170-57-231-3-4-7-8-9-14-69 4-134 40-198 52-53 21-53 108-81 160-4 16-8 29-18 43zm215-551c-16 18-92 195-73 208 46 2 100-12 123-31-5-30-32-162-38-171-2-3-6-5-12-6" id="u"/><path d="M593-790c58 0 99 54 77 117-5 13-15 16-35 14-70-7-152-3-229 7-31 20-24 81-26 127-4 138-16 277-16 422 0 32 4 70-21 83-26 36-88 7-103-20 1-182 10-346 21-521 2-27 11-81-18-84-73-7-138 11-206 3-20-18-39-18-32-51-3-78 74-91 145-91 129 0 251 6 369-8 25-3 49 2 74 2" id="v"/><g id="d"><use transform="matrix(0.05044444444444441,0,0,0.05044444444444441,0,0)" xlink:href="#m"/><use transform="matrix(0.05044444444444441,0,0,0.05044444444444441,35.46244444444442,0)" xlink:href="#n"/><use transform="matrix(0.05044444444444441,0,0,0.05044444444444441,63.913111111111064,0)" xlink:href="#o"/><use transform="matrix(0.05044444444444441,0,0,0.05044444444444441,87.92466666666661,0)" xlink:href="#r"/><use transform="matrix(0.05044444444444441,0,0,0.05044444444444441,118.39311111111103,0)" xlink:href="#u"/><use transform="matrix(0.05044444444444441,0,0,0.05044444444444441,148.0039999999999,0)" xlink:href="#v"/><use transform="matrix(0.05044444444444441,0,0,0.05044444444444441,184.27355555555545,0)" xlink:href="#u"/></g><path d="M722-498c18-70 6-160 6-241 0-38 16-57 49-57 55 0 82 64 82 193 1 204-63 347-126 491-54 125-124 110-196 9-30-42-54-91-82-146-27-53-43-79-49-79-8-17-88 136-114 182C269-106 193 9 170-1 96-15 86-47 66-129 33-267 17-480 18-657c0-70 18-105 54-105 39 0 66 36 68 87 4 137-4 277 12 406 12 100 67-12 84-47 47-96 102-197 139-285 18-41 78-38 96-4 52 97 51 251 110 344 50 78 71 31 104-70 17-53 22-108 37-167" id="w"/><path d="M24-128c0-158-18-313-5-472 6-74-11-192 62-191 78 1 88 68 113 130 59 143 102 191 174 297 50 73 81 109 92 109 8 0 12-3 13-9 24-163 3-322-12-477-6-63 62-76 101-37 65 64 45 212 54 340 10 141 7 304-15 413-8 15-20 23-37 23-76 0-203-132-244-200-33-54-79-109-116-169l4 4c-9-20-41-55-54-51-14 102-5 244 6 344 3 30-15 69-41 68-9 0-28-1-56-3-44-28-39-45-39-119" id="x"/><g id="e"><use transform="matrix(0.05044444444444441,0,0,0.05044444444444441,0,0)" xlink:href="#r"/><use transform="matrix(0.05044444444444441,0,0,0.05044444444444441,30.468444444444422,0)" xlink:href="#w"/><use transform="matrix(0.05044444444444441,0,0,0.05044444444444441,74.25422222222217,0)" xlink:href="#x"/><use transform="matrix(0.05044444444444441,0,0,0.05044444444444441,106.58911111111104,0)" xlink:href="#o"/><use transform="matrix(0.05044444444444441,0,0,0.05044444444444441,130.60066666666657,0)" xlink:href="#r"/><use transform="matrix(0.05044444444444441,0,0,0.05044444444444441,161.069111111111,0)" xlink:href="#u"/><use transform="matrix(0.05044444444444441,0,0,0.05044444444444441,190.67999999999986,0)" xlink:href="#v"/><use transform="matrix(0.05044444444444441,0,0,0.05044444444444441,226.9495555555554,0)" xlink:href="#u"/></g><g id="f"><use transform="matrix(0.05044444444444441,0,0,0.05044444444444441,0,0)" xlink:href="#r"/><use transform="matrix(0.05044444444444441,0,0,0.05044444444444441,30.468444444444422,0)" xlink:href="#w"/><use transform="matrix(0.05044444444444441,0,0,0.05044444444444441,74.25422222222217,0)" xlink:href="#x"/><use transform="matrix(0.05044444444444441,0,0,0.05044444444444441,106.58911111111104,0)" xlink:href="#o"/><use transform="matrix(0.05044444444444441,0,0,0.05044444444444441,130.60066666666657,0)" xlink:href="#s"/><use transform="matrix(0.05044444444444441,0,0,0.05044444444444441,161.7753333333332,0)" xlink:href="#r"/><use transform="matrix(0.05044444444444441,0,0,0.05044444444444441,192.24377777777764,0)" xlink:href="#t"/></g><g id="g"><use transform="matrix(0.05044444444444441,0,0,0.05044444444444441,0,0)" xlink:href="#r"/><use transform="matrix(0.05044444444444441,0,0,0.05044444444444441,30.468444444444422,0)" xlink:href="#w"/><use transform="matrix(0.05044444444444441,0,0,0.05044444444444441,74.25422222222217,0)" xlink:href="#x"/><use transform="matrix(0.05044444444444441,0,0,0.05044444444444441,106.58911111111104,0)" xlink:href="#o"/><use transform="matrix(0.05044444444444441,0,0,0.05044444444444441,130.60066666666657,0)" xlink:href="#p"/><use transform="matrix(0.05044444444444441,0,0,0.05044444444444441,161.62399999999988,0)" xlink:href="#q"/><use transform="matrix(0.05044444444444441,0,0,0.05044444444444441,192.6473333333332,0)" xlink:href="#r"/></g><path d="M371-533c189 0 256 55 239 237-9 91-67 138-157 205C374-33 301-7 236-7 155-7 13-82 18-160c3-44 62-73 96-38 43 44 152 73 218 29 77-51 166-125 156-169 2-44-67-63-119-62-47 1-108 1-155 3C87-393 13-429 1-531c11-87 101-150 165-187 90-52 160-96 290-87 34 2 118 78 115 115-3 35-23 38-55 45-15 4-26-4-33-24-37-64-116-1-164 12-41 11-154 77-154 113 0 15 14 22 41 22 45 0 127-11 165-11" id="y"/><path d="M583 1c26 5 52-17 51-41 24-60-22-103-43-144-74-69-132-138-184-228-37-64 44-88 81-120 65-56 138-104 195-168 35-39 5-108-40-113-66 17-104 68-150 105-81 65-158 127-245 187-18 12-48 33-70 13-6-6-8-14-7-23 3-63 18-122 28-181-3-53-39-88-92-91-82 12-51 140-71 216 1 133-13 257-20 381-3 58-27 167 27 193 35 29 78-2 98-20 30-59 16-164 24-251 3-31 38-61 73-59 78 41 118 121 174 184 38 44 71 96 112 139 15 15 32 34 59 21" id="z"/><path d="M292-638c-67 2-113 14-176 21-81 9-112-68-58-103 132-46 304-52 470-66l65 5c50 52 43 111-50 111-45 0-75 15-112 18-18 16-19 83-24 152-7 108-21 214-33 322-5 46 36 20 67 20 54 0 81-10 139-16 43 25 50 62 23 110-151 29-311 50-490 79C58 24-8 22 3-44c14-83 161-45 224-90 22-16 24-69 29-107 17-126 33-258 36-397" id="A"/><g id="h"><use transform="matrix(0.0748888888888888,0,0,0.0748888888888888,0,0)" xlink:href="#y"/><use transform="matrix(0.0748888888888888,0,0,0.0748888888888888,47.25488888888883,0)" xlink:href="#z"/><use transform="matrix(0.0748888888888888,0,0,0.0748888888888888,100.12644444444432,0)" xlink:href="#A"/><use transform="matrix(0.0748888888888888,0,0,0.0748888888888888,147.68088888888872,0)" xlink:href="#r"/></g><path d="M68-174c-8-157-1-333-1-488 0-23-21-28-12-60 24-87 141-85 256-77 161 12 317 42 251 258-5 17-40 45-44 60 15 30 85 80 98 123 62 108 25 192-76 258C455-45 341-9 207-4 145-2 19-30 19-85c0-36 51-41 49-89zm137-510c-18 6-26 137-16 192 30 22 66 2 112-6 70-13 158-95 159-132 17-68-169-82-255-54zm-15 330c-15 57-2 155 5 215 6 4 6 12 18 11 101-5 211-32 267-82 52-46 58-91 12-140s-73-73-81-73c-39 14-121 48-173 54-15 2-34 14-48 15" id="B"/><path d="M39-49c-7-93 9-204-6-289-18-30-12-41 1-77 37-27 19-97 25-162 2-23-27-37-49-40-11-18-14-56 0-71 17-39 273-99 376-109 72-7 163-32 165 45 1 65-62 51-115 66-63 18-176 24-229 55-41 23-20 107-25 176 83-2 166-25 259-33 74-6 91 70 44 97-80 23-228 35-304 57-18 6-27 18-27 35-9 45 6 274-42 299-35 2-92-5-73-49" id="C"/><path d="M330-158c82-22 193-18 286-31 38 11 58 81 24 113-25 24-71 25-116 25-135 0-238 34-358 47C61 7 4-52 15-159c12-113 37-213 32-340-2-59 2-121-2-178-2-44 35-62 81-61 104-31 222-52 345-64 68-7 103 34 111 94 2 12-3 22-9 31-33 14-62 15-103 16-100 2-196 10-270 40h-8c-18 23-11 79-15 106-1 13 5 22 16 25 82-10 176-25 264-12 44 7 78 26 71 72-7 49-76 30-125 30-78 0-138 22-210 29-24 1-35 28-36 52-2 41-10 83-8 126-19 84 122 51 181 35" id="D"/><g id="i"><use transform="matrix(0.0748888888888888,0,0,0.0748888888888888,0,0)" xlink:href="#B"/><use transform="matrix(0.0748888888888888,0,0,0.0748888888888888,48.1535555555555,0)" xlink:href="#m"/><use transform="matrix(0.0748888888888888,0,0,0.0748888888888888,100.80044444444432,0)" xlink:href="#C"/><use transform="matrix(0.0748888888888888,0,0,0.0748888888888888,142.21399999999983,0)" xlink:href="#C"/><use transform="matrix(0.0748888888888888,0,0,0.0748888888888888,183.62755555555532,0)" xlink:href="#D"/><use transform="matrix(0.0748888888888888,0,0,0.0748888888888888,233.50355555555527,0)" xlink:href="#s"/></g><path d="M68-174c-8-157-1-333-1-488 0-23-21-28-12-60 24-87 141-85 256-77 161 12 317 42 251 258-5 17-40 45-44 60 15 30 85 80 98 123 62 108 25 192-76 258C455-45 341-9 207-4 145-2 19-30 19-85c0-36 51-41 49-89zm137-510c-18 6-26 137-16 192 30 22 66 2 112-6 70-13 158-95 159-132 17-68-169-82-255-54zm-15 330c-15 57-2 155 5 215 6 4 6 12 18 11 101-5 211-32 267-82 52-46 58-91 12-140s-73-73-81-73c-39 14-121 48-173 54-15 2-34 14-48 15" id="E"/><g id="j"><use transform="matrix(0.05044444444444441,0,0,0.05044444444444441,0,0)" xlink:href="#E"/><use transform="matrix(0.05044444444444441,0,0,0.05044444444444441,32.43577777777776,0)" xlink:href="#m"/><use transform="matrix(0.05044444444444441,0,0,0.05044444444444441,67.89822222222219,0)" xlink:href="#C"/><use transform="matrix(0.05044444444444441,0,0,0.05044444444444441,95.79399999999995,0)" xlink:href="#o"/><use transform="matrix(0.05044444444444441,0,0,0.05044444444444441,119.8055555555555,0)" xlink:href="#p"/><use transform="matrix(0.05044444444444441,0,0,0.05044444444444441,150.8288888888888,0)" xlink:href="#q"/><use transform="matrix(0.05044444444444441,0,0,0.05044444444444441,181.8522222222221,0)" xlink:href="#r"/></g><g id="k"><use transform="matrix(0.05044444444444441,0,0,0.05044444444444441,0,0)" xlink:href="#E"/><use transform="matrix(0.05044444444444441,0,0,0.05044444444444441,32.43577777777776,0)" xlink:href="#m"/><use transform="matrix(0.05044444444444441,0,0,0.05044444444444441,67.89822222222219,0)" xlink:href="#C"/><use transform="matrix(0.05044444444444441,0,0,0.05044444444444441,95.79399999999995,0)" xlink:href="#o"/><use transform="matrix(0.05044444444444441,0,0,0.05044444444444441,119.8055555555555,0)" xlink:href="#r"/><use transform="matrix(0.05044444444444441,0,0,0.05044444444444441,150.27399999999992,0)" xlink:href="#u"/><use transform="matrix(0.05044444444444441,0,0,0.05044444444444441,179.88488888888878,0)" xlink:href="#v"/><use transform="matrix(0.05044444444444441,0,0,0.05044444444444441,216.15444444444435,0)" xlink:href="#u"/></g></defs></g></svg>